<svg width="200" height="190" viewBox="0 0 200 190" fill="none" xmlns="http://www.w3.org/2000/svg">
<path fill-rule="evenodd" clip-rule="evenodd" d="M27.708 0.101628C27.278 0.363781 27.0023 1.06189 26.9106 2.12038C26.8152 3.22133 26.9661 4.12786 27.3677 4.86566C27.5652 5.22846 28.1497 5.84401 28.6493 6.21523C28.8767 6.38412 29.516 6.7913 30.0701 7.12011C30.6243 7.44886 31.1939 7.79812 31.336 7.89629C32.4186 8.64415 32.8697 9.25485 33.0224 10.1792C33.0702 10.4691 33.065 10.6188 32.9924 11.0387C32.7633 12.3626 32.7572 12.6901 32.9376 14.0013C33.083 15.058 33.0997 15.5802 32.9962 15.8242C32.9574 15.9156 32.7031 16.2545 32.431 16.5772C32.159 16.9 31.9149 17.2256 31.8887 17.3009C31.7777 17.6193 32.0054 17.7967 32.576 17.836C32.8237 17.8531 33.02 17.9028 33.1991 17.9938C33.5274 18.1603 34.0064 18.6683 34.2976 19.1584C34.5366 19.5609 34.8161 19.8067 35.1288 19.8895C35.2308 19.9165 35.6049 19.9771 35.9601 20.0241C36.7432 20.1278 37.0774 20.2452 37.3296 20.5051C37.4942 20.6747 38.8377 23.0579 39.2408 23.8954C39.4943 24.422 39.525 24.6669 39.5256 26.1666C39.5258 26.935 39.5501 27.8988 39.5794 28.3083C39.6456 29.2306 39.5796 30.2929 39.3696 31.6866C39.2496 32.4836 39.1586 32.8767 38.9071 33.6861C38.3604 35.4452 38.0168 36.6449 37.9449 37.0444C37.9067 37.2575 37.8745 37.7246 37.8735 38.0824C37.8714 38.8365 37.9734 39.3251 38.2582 39.9264C38.5015 40.4398 38.7907 40.7996 39.4606 41.4221C39.9675 41.8933 40.0736 41.9671 40.436 42.1018C41.1249 42.358 41.6163 42.5837 43.0837 43.3182C43.8617 43.7077 44.6331 44.0683 44.7979 44.1196C45.1151 44.2183 45.235 44.2967 46.6375 45.3219C47.1252 45.6784 47.869 46.188 48.2905 46.4542C49.9886 47.5273 50.7168 48.1203 52.3382 49.7506C54.0622 51.4839 54.4756 51.8255 55.5614 52.4146C55.8445 52.5681 56.0516 52.7178 56.1017 52.805C56.1464 52.8829 56.3002 53.0049 56.4435 53.0762C56.5868 53.1475 56.8127 53.2842 56.9456 53.3799L57.1871 53.5539L34.0722 76.6734C21.359 89.3891 10.919 99.8484 10.8722 99.9162L10.7871 100.04L27.7006 116.959L44.6142 133.878L44.33 133.848C42.8499 133.689 41.7805 133.638 39.8609 133.636C37.4079 133.634 36.3584 133.708 34.718 133.999C33.0121 134.302 31.5386 134.827 30.2793 135.582C28.6773 136.542 27.7598 137.645 27.3732 139.077C27.2671 139.471 27.2666 139.518 27.2783 148.927C27.2847 154.128 27.296 158.389 27.3034 158.396C27.3218 158.415 28.6513 157.84 29.786 157.322C31.7616 156.42 32.4777 156.166 33.9968 155.832C35.8199 155.431 37.6725 155.279 40.1967 155.324C44.6103 155.404 48.8077 156.015 54.8182 157.454C55.9719 157.73 57.9431 158.226 61.0698 159.026C62.9363 159.504 68.3632 160.854 69.3622 161.089C69.9982 161.238 71.3142 161.543 72.1891 161.744L72.5877 161.836L84.8818 174.137C91.6435 180.902 97.7941 187.053 98.5499 187.805L99.9239 189.174L113.628 175.478L127.332 161.783L127.745 161.693C128.642 161.497 137.601 159.372 138.646 159.107C138.703 159.093 139.052 159.01 139.421 158.924C139.791 158.837 140.326 158.709 140.61 158.64C142.325 158.219 145.268 157.537 148.179 156.884C151.971 156.034 153.275 155.781 155.076 155.542C157.996 155.156 161.308 155.157 163.937 155.544C166.054 155.856 166.939 156.111 170.344 157.39C171.365 157.774 172.514 158.167 172.54 158.141C172.552 158.129 172.564 153.947 172.567 148.848C172.571 142.263 172.556 139.501 172.516 139.317C172.281 138.252 171.819 137.449 170.985 136.656C169.838 135.566 168.121 134.7 166.133 134.208C165.372 134.02 164.173 133.83 163.1 133.727C161.298 133.554 156.786 133.625 155.412 133.848C155.253 133.874 157.234 131.874 172.152 116.951L189.073 100.025L157.484 68.4364L125.895 36.8474L126.818 35.8529C127.326 35.3059 127.928 34.6976 128.156 34.5011C128.684 34.0473 129.79 33.3075 130.819 32.721C131.596 32.2783 131.98 32.1048 133.557 31.4846C134.142 31.2547 134.411 31.1152 134.78 30.8494C137.082 29.1936 137.382 28.9346 137.915 28.142C138.192 27.7305 138.732 26.6649 138.885 26.2288C138.923 26.1197 139.083 25.8799 139.24 25.6958C139.839 24.9926 139.964 24.8217 139.964 24.7078C139.964 24.5173 139.762 24.4749 139.008 24.5074C138.282 24.5388 137.803 24.6129 136.985 24.8207C136.696 24.894 135.94 25.0476 135.306 25.1619C133.306 25.5219 132.577 25.6787 131.594 25.9606C131.068 26.1114 130.289 26.308 129.863 26.3977C128.548 26.6743 127.266 27.0466 126.117 27.4857C123.786 28.3768 123.252 28.803 122.159 30.6428C121.814 31.2226 121.477 31.7956 121.41 31.9161C121.342 32.0367 121.263 32.1355 121.235 32.1357C121.207 32.136 116.394 27.3469 110.54 21.4933L99.8969 10.8506L97.1328 13.6037C95.6125 15.118 91.8112 18.889 88.6854 21.9836C85.5596 25.0783 81.9741 28.6333 80.7176 29.8836C79.4611 31.1339 78.4227 32.1463 78.4098 32.1335C78.3865 32.1102 77.7197 30.9407 77.3311 30.2414C77.2179 30.0376 76.8943 29.5736 76.6121 29.2103C76.33 28.8469 76.0197 28.419 75.9227 28.2593C75.7342 27.9489 75.588 27.4768 75.588 27.1781C75.588 26.7062 75.9052 25.958 76.6633 24.6422C77.2149 23.6848 77.2871 23.5211 77.5288 22.6812C77.7569 21.8883 77.9007 21.5916 78.2134 21.2688C78.5428 20.9287 78.7694 20.7785 79.6849 20.2937C80.9729 19.6117 81.8137 18.9972 82.7735 18.036C84.1546 16.6529 84.7473 15.3723 84.4553 14.402C84.3545 14.0671 83.9071 13.4443 83.4667 13.026C82.7811 12.3748 81.8945 11.8556 80.8031 11.4663C80.1336 11.2275 79.4057 11.0851 78.3082 10.9783C76.988 10.8498 76.1097 10.6395 75.6138 10.333C75.2473 10.1065 74.7501 9.95999 74.348 9.95999C73.9171 9.95999 73.595 10.0615 72.8721 10.425C72.1395 10.7935 71.9677 10.8267 70.938 10.8C68.4728 10.7359 68.3172 10.7511 66.3914 11.2456C65.1675 11.5599 64.3849 11.7471 63.834 11.8572C61.9826 12.2271 60.7228 12.5746 59.9173 12.9375C59.4396 13.1526 58.8415 13.5065 57.8151 14.1811C56.1562 15.2715 56.0272 15.329 55.3537 15.278C54.8955 15.2434 54.6411 15.1264 52.9835 14.1884C51.7236 13.4753 51.241 13.167 50.0091 12.2878C49.5141 11.9346 48.8927 11.5101 48.6283 11.3445C47.7434 10.7904 47.3344 10.3225 46.4698 8.87521C46.1934 8.41248 45.8555 7.86761 45.7189 7.66441C44.9895 6.57978 44.0625 5.81321 43.1158 5.512C42.5905 5.34481 42.028 5.30435 40.7018 5.3384C39.2374 5.37601 38.8736 5.33484 37.9751 5.0298C37.2286 4.77638 36.3987 4.34311 35.1414 3.55029C32.7701 2.05497 32.2541 1.73826 31.5268 1.332C30.1289 0.551175 28.7431 -0.000361485 28.1798 1.77762e-07C27.9674 0.00010351 27.8237 0.0311033 27.708 0.101628ZM29.4139 1.35794C29.5901 1.45373 30.476 1.9429 31.3826 2.4451C32.2891 2.94724 33.0453 3.35809 33.0631 3.35809C33.0809 3.35809 33.2227 3.45372 33.3782 3.57065C33.6857 3.80175 34.1624 4.05295 34.9892 4.41952C35.4876 4.6405 35.9455 4.92781 37.1648 5.78464C37.9511 6.33721 38.9035 6.85434 40.3259 7.50099C40.6953 7.66891 41.2649 7.96108 41.5917 8.15023C42.511 8.68228 47.1515 11.5864 48.0574 12.1966C48.2179 12.3046 48.5384 12.4882 48.7697 12.6045C49.3304 12.8865 49.3342 12.898 49.1605 13.82C49.0855 14.2181 48.9666 14.8577 48.8961 15.2413C48.7289 16.1517 48.5555 16.8946 48.5102 16.8946C48.4071 16.8946 44.6145 14.8251 43.6067 14.2189C43.2515 14.0053 42.4842 13.5244 41.9017 13.1504C40.4655 12.2282 40.1981 12.0695 39.2409 11.5714C38.7862 11.3348 38.1485 10.9808 37.8237 10.7846C37.4989 10.5884 37.0339 10.3219 36.7904 10.1923C35.6904 9.60721 34.0769 8.56547 32.1368 7.18794C31.2309 6.54481 30.6014 6.13964 30.1218 5.89133C29.3652 5.49955 28.9972 5.22763 28.6415 4.79746C27.9879 4.00702 27.8472 3.41089 28.0291 2.20356C28.1125 1.65073 28.2539 1.32968 28.4678 1.20816C28.6648 1.09615 29.0419 1.15582 29.4139 1.35794ZM74.6647 11.2413C74.9461 11.3854 74.8901 11.6526 74.4872 12.0878C74.2099 12.3873 73.9404 12.8108 73.6477 13.4072C73.5057 13.6964 73.4956 13.7568 73.4968 14.3113C73.4984 14.9975 73.5854 15.2846 73.9565 15.8269C74.2894 16.3133 74.5907 16.5272 75.3857 16.8416C76.4062 17.2451 76.8583 17.4858 77.1415 17.7766C77.9718 18.629 77.9386 20.0869 77.0718 20.8453C76.7194 21.1535 76.408 21.2549 75.8205 21.2527C75.4326 21.2512 75.2784 21.2237 74.8905 21.0865C74.5782 20.9761 74.2069 20.8955 73.76 20.8409C72.9483 20.7418 72.7003 20.6682 70.8347 19.9724C68.5683 19.1271 68.7446 19.1697 67.3782 19.1353L66.2106 19.1058L65.819 18.9063C65.2905 18.6372 64.5916 18.4092 63.8386 18.2604C63.0687 18.1083 62.8069 18.1047 62.4422 18.2412C61.7622 18.4955 61.4695 19.3712 61.9003 19.8619C62.0772 20.0634 62.5473 20.2848 62.9642 20.363C63.3766 20.4404 64.3154 20.388 64.7898 20.2612L65.1773 20.1576L66.0814 20.307C66.5787 20.3892 67.4188 20.5272 67.9482 20.6136C69.0045 20.7862 69.2882 20.8683 69.9204 21.1841C70.6317 21.5396 70.9623 21.7519 71.0866 21.9332C71.3114 22.2613 71.2931 22.3862 70.8164 23.7867C70.5756 24.4942 70.3343 25.1335 70.2801 25.2075C70.0417 25.5329 69.5413 25.6042 69.0949 25.3764C68.8192 25.2358 68.7681 25.0944 68.7681 24.4725C68.7681 23.8282 68.6851 23.4845 68.4613 23.202C68.0614 22.697 67.3665 22.6055 66.8933 22.9956C66.3961 23.4054 66.2183 24.6065 66.6162 24.8673C66.6825 24.9107 66.9481 24.9827 67.2063 25.0272C68.1611 25.192 68.5614 25.4387 68.5614 25.8622C68.5614 26.5131 67.9757 27.2403 67.3344 27.3856C66.9366 27.4757 66.5122 27.201 66.3945 26.7772C66.3647 26.6698 66.3402 26.3356 66.3401 26.0343C66.3397 25.3636 66.2826 25.1752 66.0503 25.0781C65.9556 25.0386 65.8236 25.0062 65.757 25.0062C65.533 25.0062 64.8187 24.7962 64.4441 24.6203C63.671 24.2573 63.0616 23.7418 62.0599 22.6037C61.7599 22.2627 61.3083 21.7682 61.0564 21.5049C60.3995 20.8179 60.2949 20.5755 60.2417 19.6171C60.1974 18.8199 60.1078 18.4918 59.8421 18.1546C59.5034 17.7246 58.7428 17.3846 58.2058 17.4231C57.9221 17.4434 57.885 17.4612 57.7063 17.6626C57.4819 17.9154 57.3499 18.2612 57.3499 18.5959C57.35 19.0716 57.7897 19.7171 58.2869 19.9714C58.7551 20.2109 60.3142 21.5971 60.5567 21.9895C60.8443 22.4548 60.3951 22.348 58.7448 21.5585C58.3896 21.3886 58.0176 21.2241 57.9182 21.1929C57.0174 20.9104 56.3907 20.6784 55.7999 20.4086C55.0486 20.0656 53.7641 19.5607 52.7941 19.227C52.4623 19.1129 52.1252 18.9852 52.0449 18.9433C51.8494 18.8412 51.635 18.6086 51.5614 18.4188C51.4512 18.1343 51.514 17.146 51.6927 16.3521C51.731 16.1816 51.7881 15.7747 51.8195 15.448C51.9139 14.4649 51.9135 14.4663 52.0715 14.4664C52.417 14.4665 55.1217 16.0487 56.3294 16.9572C56.5497 17.1229 56.7299 17.2506 56.7299 17.2412C56.7299 17.2317 56.6834 17.1278 56.6265 17.0101C56.5697 16.8925 56.5232 16.6939 56.5232 16.5688C56.5232 16.2925 56.6505 16.1362 57.0327 15.9424C57.1777 15.8689 57.5002 15.653 57.7493 15.4625C59.2109 14.345 59.1382 14.3885 60.5535 13.7812C62.1359 13.1022 62.2501 13.0703 63.2915 13.0173C64.3139 12.9653 64.5151 12.9244 65.7144 12.5248C67.2558 12.0113 67.457 11.9846 69.7984 11.9814C72.1624 11.9783 72.1869 11.9738 73.2756 11.3445C73.6784 11.1117 74.3186 11.0641 74.6647 11.2413ZM78.4391 12.0449C78.8089 12.1241 79.0501 12.3597 79.0485 12.6399C79.047 12.8995 78.9128 13.1851 78.6271 13.5363C78.2873 13.9541 77.8413 14.6087 77.6868 14.9165C77.3834 15.5206 77.0097 15.7642 76.3322 15.7998C75.8512 15.825 75.6604 15.7597 75.3584 15.4664C74.8923 15.0137 74.7944 14.4887 75.0589 13.8592C75.2881 13.3137 76.0537 12.3119 76.3811 12.129C76.616 11.9979 77.963 11.9427 78.4391 12.0449ZM110.114 23.4432C115.705 29.0341 120.279 33.641 120.279 33.6807C120.279 33.7205 120.203 33.8483 120.11 33.9649C120.016 34.0816 119.862 34.3331 119.767 34.5239C119.419 35.2206 118.822 35.8111 118.064 36.2065C117.847 36.3194 117.507 36.5054 117.308 36.6198C117.109 36.7341 116.726 36.9055 116.456 37.0006C115.973 37.1708 115.952 37.1735 115.113 37.1699C114.17 37.1658 113.9 37.1143 113.017 36.769C111.538 36.191 110.603 36.5706 109.823 38.0664C109.414 38.8499 109.23 39.0479 108.641 39.3358C107.358 39.9631 105.973 40.2822 104.74 40.2344C104.148 40.2114 104.005 40.1854 103.307 39.9741C102.34 39.6812 102.045 39.6273 101.424 39.6293C100.791 39.6313 100.284 39.698 99.6441 39.8631C98.8755 40.0614 98.3421 40.2894 96.6419 41.1468C95.7894 41.5767 94.8362 42.0299 94.5236 42.1538C94.211 42.2778 93.2927 42.6998 92.4828 43.0916C90.6373 43.9844 90.0139 44.2414 88.9178 44.5614C88.1769 44.7777 87.1949 45.2876 87.0276 45.5429C86.8297 45.8451 87.0529 46.0167 87.8007 46.1373C88.231 46.2067 88.6437 46.4087 89.4296 46.9345C90.1962 47.4476 90.5905 47.6281 91.5012 47.8833C92.5253 48.1703 92.8733 48.2416 93.5942 48.3123C94.3331 48.3847 95.1181 48.3482 95.7894 48.21C96.0594 48.1545 96.4707 48.083 96.7035 48.0512C97.6984 47.9155 98.6823 47.4194 100.181 46.2978C100.8 45.8345 101.315 45.595 101.858 45.518C102.439 45.4354 102.915 45.5012 103.864 45.7952C105.603 46.3344 107.131 46.5374 108.422 46.4009C109.215 46.317 109.76 46.1728 110.54 45.8409C111.412 45.4698 112.68 45.0172 113.053 44.9437C113.513 44.8534 114.071 44.8994 114.274 45.0444C114.623 45.2926 114.742 45.7969 114.551 46.2151C114.499 46.3288 114.236 46.7589 113.966 47.171C112.92 48.7709 112.839 48.9217 112.839 49.28C112.839 49.7031 113.059 49.8695 113.904 50.0886C114.185 50.1613 114.633 50.2785 114.9 50.349C116.525 50.7786 118.159 50.5876 120.181 49.7316C120.61 49.5503 120.655 49.5145 121.399 48.7576C122.445 47.6944 122.763 47.2432 123.116 46.3233C123.203 46.0986 123.318 45.8661 123.373 45.8066C123.71 45.4414 123.844 44.8307 123.75 44.0844C123.601 42.9051 123.253 42.7455 121.844 43.2101C120.995 43.4899 120.742 43.5093 120.347 43.3252C119.664 43.0073 119.569 42.1219 120.167 41.6503C120.271 41.568 120.567 41.3954 120.824 41.2666C121.081 41.1377 121.392 40.948 121.516 40.8448C121.639 40.7416 121.964 40.5247 122.237 40.3628C122.569 40.1659 122.903 39.9057 123.246 39.5768C123.963 38.8898 124.087 38.7665 124.434 38.3953L124.739 38.0682L151.988 65.3397C166.975 80.3391 180.903 94.2795 182.94 96.3184L186.644 100.025L169.526 117.143L152.409 134.261L151.831 134.352C150.287 134.596 145.998 135.519 143.4 136.166C143.139 136.231 141.262 136.679 139.292 137.146C139.022 137.21 137.186 137.651 135.211 138.125C133.236 138.6 131.329 139.055 130.974 139.136C130.619 139.218 129.573 139.459 128.649 139.672C123.458 140.869 118.911 141.809 116.12 142.261C105.229 144.028 94.5989 144.02 83.8546 142.238C82.2672 141.974 78.9055 141.332 77.0863 140.943C75.1878 140.538 74.5781 140.407 73.9605 140.272C72.8588 140.031 70.7816 139.564 70.4214 139.477C70.2367 139.432 69.6206 139.289 69.0522 139.16C68.1367 138.951 65.9201 138.432 64.7639 138.154C64.1131 137.998 59.5211 136.912 57.5565 136.45C56.5762 136.219 55.3788 135.937 54.8957 135.823C52.5197 135.262 48.9541 134.516 47.7727 134.331L47.4179 134.276L30.2919 117.142L13.166 100.009L35.7957 77.3792L58.4254 54.7494L58.5865 54.8161C58.8411 54.9216 59.1832 55.345 59.3633 55.7777C59.5951 56.3345 59.8358 56.7563 60.3929 57.5817C60.926 58.3715 61.0698 58.6779 61.0698 59.0234C61.0698 59.5224 60.7065 60.3144 60.1206 61.0929C59.7434 61.594 59.5512 61.9497 59.4076 62.4125C59.3051 62.7429 59.2877 62.9064 59.2901 63.5233C59.2934 64.4173 59.4192 64.9312 59.877 65.9202C60.4748 67.2118 60.8391 68.1755 60.9924 68.8707C61.1078 69.394 61.1511 70.8249 61.0738 71.5632C61.0035 72.2348 60.6031 75.1521 60.4494 76.1129C60.3917 76.4729 60.3214 77.0721 60.2931 77.4444C60.2648 77.8167 60.173 78.545 60.0892 79.063C59.8209 80.72 59.776 81.2167 59.7771 82.5106C59.7782 83.7432 59.8264 84.4881 59.9597 85.3264C60.0003 85.5821 60.0683 86.1401 60.1108 86.5664C60.2479 87.9425 60.4434 89.0912 60.8317 90.803C60.9026 91.1156 61.0558 91.7898 61.172 92.3013C61.8863 95.4447 61.9492 96.3631 61.5113 97.2613C61.1514 97.9996 60.9727 97.9912 58.8234 97.1353C57.3531 96.5497 56.9774 96.4382 56.4715 96.4371C56.0819 96.4363 56.0014 96.4533 55.7576 96.5876C55.0753 96.9636 54.806 97.6081 54.8049 98.8682C54.8037 100.119 54.9907 100.505 55.8859 101.102C56.3216 101.393 58.1616 102.743 58.662 103.138C58.8863 103.316 59.6379 104.031 60.3322 104.727L61.5946 105.993L62.1385 107.104C62.4376 107.715 62.7612 108.381 62.8575 108.584C63.0961 109.086 63.4289 109.515 63.7903 109.784C64.1901 110.082 64.445 110.188 65.1256 110.339C66.3724 110.615 67.0476 110.786 67.2577 110.877C67.3789 110.93 67.9282 111.23 68.4784 111.542C71.7223 113.388 73.6229 114.338 76.0339 115.321C77.0926 115.753 77.9783 116.179 79.2642 116.875C80.2669 117.417 81.16 117.841 81.9059 118.129C82.5816 118.39 82.8492 118.553 83.1675 118.899C83.4381 119.192 83.5548 119.422 83.6966 119.943C83.7586 120.17 83.9493 120.652 84.1203 121.013C84.4899 121.794 84.5765 122.092 84.5773 122.586C84.5781 123.072 84.4831 123.547 84.1963 124.489C83.8739 125.549 83.8063 126.024 83.7515 127.615C83.7256 128.368 83.6881 129.337 83.6682 129.768C83.6323 130.548 83.6329 130.554 83.7704 130.835C83.927 131.155 84.1885 131.378 84.8933 131.792C85.3957 132.088 85.6298 132.323 85.7204 132.626C85.7943 132.872 85.7338 133.132 85.5384 133.406C85.4694 133.503 85.1897 133.91 84.9168 134.31C84.3208 135.183 83.9931 135.561 83.5971 135.829C83.1892 136.106 83.0466 136.292 82.9744 136.64C82.9131 136.935 82.9538 137.4 83.0861 137.913C83.1623 138.208 83.4544 138.501 83.7644 138.593C84.2205 138.729 85.5574 138.775 88.6595 138.762C92.158 138.747 91.8445 138.797 92.4401 138.165C93.2503 137.306 93.4407 136.856 93.6672 135.26C93.8236 134.158 94.0442 133.388 94.2772 133.13C94.3241 133.078 94.5096 132.966 94.6893 132.88C95.1382 132.666 95.4776 132.31 96.0172 131.49C96.6722 130.494 96.9202 130.199 97.3585 129.896C97.8159 129.58 97.8561 129.494 97.8561 128.825C97.8561 127.836 97.6522 126.802 97.1745 125.369C96.6557 123.814 96.5592 123.324 96.5272 122.086C96.4988 120.984 96.5536 120.439 96.8002 119.374C97.2374 117.487 97.3701 116.707 97.7585 113.743C97.914 112.557 97.9288 110.708 97.7883 110.049C97.5589 108.973 97.1889 108.123 96.1814 106.36C95.5607 105.274 95.381 104.886 95.2274 104.299C95.0013 103.436 94.9525 101.835 95.1388 101.395C95.187 101.281 95.3544 100.997 95.5108 100.764C95.9839 100.06 96.1218 99.4829 95.9788 98.8052C95.8776 98.3259 95.6614 97.9147 95.2756 97.4679C94.9303 97.0681 94.5966 96.4682 94.5018 96.0769C94.4282 95.7732 94.4255 95.1451 94.4935 94.1613C94.6131 92.432 94.6145 91.4289 94.4993 89.8988C94.3302 87.6527 94.3007 86.4211 94.3542 83.8281C94.4422 79.555 94.3656 76.4813 94.1108 74.0632C93.8769 71.844 93.8666 71.582 93.8254 66.7782C93.7832 61.8705 93.7584 61.2815 93.5363 59.9325C93.3794 58.9797 93.1929 58.3989 92.8991 57.9479C92.7352 57.6963 92.6715 57.5369 92.6361 57.2888C92.5633 56.7797 92.4557 56.4788 92.1202 55.8442C91.9493 55.5211 91.5652 54.7593 91.2667 54.1514C90.9683 53.5434 90.5767 52.7878 90.3966 52.4722C90.2165 52.1566 89.9112 51.5962 89.7181 51.2267C89.2695 50.3685 89.1795 50.2265 88.7791 49.7444C88.3915 49.2779 88.05 48.9615 87.6394 48.689C87.3641 48.5063 87.1525 48.4074 86.2142 48.0235C85.7387 47.829 85.361 47.4794 85.1726 47.0595C84.9468 46.5565 84.9452 46.3685 85.1629 45.9217C85.4195 45.3948 85.4767 45.0355 85.4396 44.1851C85.3896 43.0392 85.2454 42.5651 84.5883 41.3865C84.3751 41.0041 84.1447 40.5689 84.0762 40.4193C83.9112 40.0589 83.2582 37.9653 83.1317 37.3914C82.9109 36.3894 82.4188 35.8018 81.3841 35.305C80.3854 34.8255 79.9253 34.4807 79.5423 33.9246L79.3553 33.653L82.4187 30.6084C85.3587 27.6862 87.9153 25.1507 94.1364 18.9868C95.7136 17.424 97.655 15.5004 98.4505 14.712C99.246 13.9236 99.9085 13.2783 99.9227 13.2782C99.9369 13.2781 104.523 17.8523 110.114 23.4432ZM53.8638 21.0535C54.062 21.1527 54.3636 21.3232 54.5341 21.4323C55.1569 21.8308 55.8407 22.0298 57.2465 22.2217C59.5368 22.5343 60.4805 23.0917 60.9983 24.4379L61.1473 24.8254L61.1476 26.6078C61.1478 27.5882 61.1677 28.5763 61.1919 28.8037C61.2454 29.3075 61.1825 29.583 60.9546 29.8426C60.3996 30.4747 58.9439 30.2188 58.5836 29.4258C58.3772 28.9713 58.487 28.5967 59.0367 27.8802C59.6385 27.0957 59.7007 26.9498 59.7007 26.3216C59.7007 25.8094 59.6962 25.7899 59.4777 25.3492C59.3103 25.0114 59.1625 24.8067 58.8836 24.5266C58.4843 24.1256 57.5958 23.4676 57.5676 23.552C57.5582 23.5804 57.6018 23.7041 57.6644 23.8269C57.8578 24.2059 58.0683 24.8953 58.1283 25.3458C58.1958 25.8529 58.1421 26.2994 57.9636 26.7142C57.821 27.0456 56.8935 28.2962 56.8617 28.1998C56.7715 27.9265 56.3503 26.5513 56.2475 26.1945C56.0465 25.4972 55.8227 24.7049 55.7001 24.257C55.471 23.4205 55.224 23.0429 54.906 23.0429C54.6307 23.0429 54.5336 23.1902 54.5364 23.6037C54.5383 23.8908 54.8114 26.3312 54.8987 26.8403C54.9147 26.9342 54.8525 26.8433 54.7409 26.6104C54.5263 26.1619 53.9911 25.343 53.6883 24.9998C53.5724 24.8684 53.395 24.7217 53.294 24.6738C53.1294 24.5957 53.0946 24.5946 52.9568 24.6633C52.8074 24.7379 52.8023 24.7362 52.769 24.6018C52.7502 24.5259 52.6689 24.308 52.5882 24.1178C52.5076 23.9275 52.4416 23.7135 52.4416 23.6421C52.4416 23.5707 52.5462 23.3139 52.6741 23.0715L52.9066 22.6307V22.0902C52.9066 20.8855 53.1034 20.6723 53.8638 21.0535ZM73.1213 22.9871C73.2158 23.0702 73.3494 23.258 73.4181 23.4046L73.5429 23.6712L73.4527 24.1094C73.4031 24.3504 73.1994 25.0493 73.0001 25.6625C72.8008 26.2756 72.6449 26.8263 72.6538 26.8863C72.6731 27.0174 72.7676 26.8635 73.7773 25.0579C74.5425 23.6891 74.7061 23.4155 74.838 23.2836C74.9003 23.2212 75.0156 23.1979 75.261 23.1979C75.5757 23.1979 75.6101 23.2097 75.774 23.3735C75.9118 23.5114 75.9497 23.5913 75.9497 23.7446C75.9497 24.0375 75.7544 24.721 75.5377 25.187C75.2188 25.8723 74.9421 26.185 74.0689 26.8462C73.6399 27.1711 73.0407 27.6282 72.7375 27.8619C72.1583 28.3084 71.7302 28.5863 71.4703 28.6844C70.9143 28.8943 71.0746 28.226 71.9108 26.8479L72.2754 26.247L72.0449 25.5392L71.8144 24.8316L72.0028 24.2601C72.2423 23.5338 72.5001 22.9674 72.624 22.8955C72.7868 22.8008 72.9416 22.8293 73.1213 22.9871ZM40.6225 25.2434C40.8856 25.3454 41.3021 25.4944 41.548 25.5744C42.2237 25.7943 42.7593 26.0652 43.8392 26.7333C46.0859 28.1234 47.6044 28.6521 48.7627 28.4477C49.2257 28.366 49.7047 28.1662 50.0685 27.9031C50.1944 27.8121 50.5648 27.4997 50.8916 27.2088C51.8922 26.3184 52.2838 25.9878 52.338 25.9878C52.3667 25.9878 52.39 26.1205 52.3901 26.2849C52.3903 26.6561 52.4645 26.7827 53.0211 27.3625C53.9068 28.285 55.5664 29.4854 56.2251 29.6799C56.4177 29.7368 56.4462 29.7674 56.5221 30.0004C56.7759 30.779 57.3299 31.2309 58.7279 31.7997C59.4334 32.0867 59.6577 32.3641 59.5206 32.7796C59.409 33.1179 58.6376 33.7022 58.0332 33.9061C57.4245 34.1117 56.8476 33.8307 55.6747 32.7576C55.1834 32.3081 54.947 32.1616 54.5341 32.0513C53.9263 31.889 53.4463 31.9844 52.6313 32.4295C51.356 33.126 50.6211 33.4645 49.4114 33.9122C48.6921 34.1785 48.1732 34.4254 47.7678 34.6946C47.266 35.0276 46.2912 36.1488 45.7538 37.0111C45.2985 37.7415 45.155 38.4406 45.2438 39.4959C45.2945 40.1001 45.3112 40.1681 45.4702 40.4175C45.7481 40.8539 45.872 41.1385 46.1681 42.0209C46.4856 42.9669 46.513 43.215 46.3246 43.4341C46.138 43.651 45.9172 43.6239 45.1825 43.2942C44.3106 42.9029 41.756 41.6086 41.228 41.2905C39.9223 40.5041 39.228 39.6427 38.9771 38.4982C38.7057 37.2602 38.9182 35.3762 39.5131 33.7469C39.8435 32.842 39.9712 32.6406 41.7453 30.2282C42.5168 29.1792 43.1486 27.9879 43.0074 27.8485C42.8765 27.7192 41.9926 27.3392 41.3005 27.1146C40.8704 26.975 40.4127 26.7937 40.2834 26.7117C39.989 26.525 39.939 26.366 39.9387 25.6133C39.9383 24.951 39.9092 24.9668 40.6225 25.2434ZM63.1778 25.8024C63.2545 25.8425 63.4081 25.9951 63.5191 26.1416C63.6575 26.3241 63.8138 26.4547 64.016 26.5568C64.387 26.7441 64.5667 26.9543 64.6116 27.2533C64.6915 27.7861 64.6499 27.8301 63.2301 28.7132C62.7302 29.0242 62.5681 28.906 62.5681 28.2303C62.5681 27.988 62.5352 27.7159 62.4906 27.5895C62.3413 27.1661 62.4284 26.2823 62.6508 25.9648C62.7203 25.8655 62.9138 25.735 62.997 25.7313C63.0196 25.7303 63.101 25.7623 63.1778 25.8024ZM67.4711 29.0948C67.8737 29.199 68.2063 29.3248 68.4839 29.4781C69.8288 30.2204 70.3074 30.3795 71.1964 30.3795C72.1106 30.3795 72.8976 30.1183 73.6756 29.5568C74.1795 29.1931 74.6778 28.9328 74.8701 28.9328C75.295 28.9328 75.5215 29.1622 76.0223 30.0995C76.3 30.6192 76.7793 31.4109 77.7428 32.9413C78.0482 33.4265 78.2951 33.8322 78.5104 34.2028C78.8495 34.7865 79.5058 35.448 80.0206 35.7249C80.4286 35.9444 80.7558 36.2575 80.984 36.647C81.1074 36.8575 81.1253 36.9354 81.1053 37.1763C81.0868 37.3994 81.0472 37.4993 80.9167 37.652C80.3221 38.3479 80.1907 38.7261 80.1318 39.9119C80.0829 40.8937 80.0265 41.2348 79.699 42.5277C79.5365 43.1691 79.4572 43.6095 79.421 44.071C79.3651 44.7843 79.2959 45.0367 78.9901 45.6432C78.5634 46.4892 78.3464 46.702 77.872 46.7394C77.527 46.7667 77.3429 46.69 77.2725 46.4895C77.235 46.3831 77.2618 46.2402 77.3933 45.8448C77.6169 45.1719 77.6618 44.5404 77.5036 44.2901C77.2681 43.9172 76.9094 43.8457 75.8966 43.9696C75.3211 44.0399 74.9941 44.2012 74.6451 44.5869C74.0172 45.2808 73.6794 46.1259 73.4214 47.6487C73.3311 48.1815 73.228 48.73 73.1923 48.8677C73.0975 49.2333 72.8739 49.5817 72.631 49.7425C72.4462 49.8648 72.3664 49.8834 72.0268 49.8834C71.6561 49.8834 71.5988 49.8665 70.9357 49.5609C69.8056 49.0401 69.3949 49.0202 68.9837 49.4663C68.6755 49.8008 68.3057 50.8663 68.1724 51.8045C68.0459 52.6939 67.8019 53.171 67.2326 53.642C66.6862 54.094 66.185 54.2389 65.7469 54.0716C65.4233 53.948 65.1272 53.5963 64.9877 53.1695C64.8849 52.8555 64.8732 52.6785 64.84 50.9426C64.8023 48.9733 64.7974 48.9291 64.5391 48.2387C64.267 47.5113 63.8791 46.8788 63.1437 45.9634C62.0401 44.5895 61.6863 44.0668 60.027 41.3585C58.773 39.3117 58.5797 38.9377 58.4832 38.3722C58.3959 37.8609 58.4622 37.5178 58.8662 36.3893C59.6314 34.2516 60.0055 33.5768 61.0511 32.4474C61.4082 32.0617 61.4777 32.0243 62.2043 31.8267C63.2933 31.5306 63.9843 31.0945 64.5668 30.3359C64.976 29.8029 65.5235 29.2274 65.7641 29.0773C66.14 28.843 66.5125 28.8467 67.4711 29.0948ZM54.5128 33.3906C54.7173 33.5284 54.8164 33.7011 54.8174 33.9215C54.8185 34.1471 54.6387 34.6483 54.4432 34.9644C54.3511 35.1134 54.1342 35.4621 53.9612 35.7394C53.7883 36.0167 53.5674 36.3803 53.4704 36.5474C53.2107 36.9947 52.8981 37.3192 52.4241 37.6334C52.033 37.8927 51.1005 38.3342 50.937 38.3375C50.7848 38.3406 50.2455 38.6818 50.0945 38.8703C49.9194 39.0891 49.9249 39.0197 49.959 40.5835C49.976 41.3621 49.8571 41.7467 49.4801 42.1336C49.1756 42.4463 48.9015 42.5504 48.5055 42.5036C48.1661 42.4636 47.9147 42.3184 47.5807 41.9696C47.1747 41.5457 46.9905 41.2928 46.7913 40.8858C46.5811 40.4564 46.5809 40.4556 46.4463 39.4967C46.3531 38.8331 46.3462 38.6662 46.3961 38.2861C46.5321 37.2496 46.7404 36.79 47.3464 36.19C48.0146 35.5285 48.5824 35.2792 49.7033 35.1554C51.0709 35.0043 51.8174 34.715 53.0404 33.8623C53.5707 33.4926 54.0023 33.274 54.2035 33.2733C54.2774 33.273 54.4166 33.3258 54.5128 33.3906ZM83.2857 40.7385C84.4644 43.1572 84.4318 43.0515 84.4371 44.4764C84.4408 45.4608 84.4315 45.5755 84.3169 45.9568C84.2313 46.2416 84.1923 46.4987 84.1915 46.7835C84.1905 47.1591 84.2047 47.218 84.3471 47.4293C84.5604 47.7457 85.5066 48.5052 86.5695 49.213C87.4802 49.8196 87.8115 50.1174 88.1773 50.6584C89.0643 51.9706 90.8722 55.5679 91.7775 57.8221C92.352 59.2527 92.5504 60.0915 92.6371 61.4566C92.6678 61.9397 92.7313 62.6256 92.7782 62.9808C92.8713 63.6862 92.874 63.869 92.8568 68.5282C92.8457 71.5579 92.8681 72.213 93.0256 73.469C93.383 76.3206 93.5678 78.8598 93.5678 80.9224C93.5678 82.1234 93.4301 85.1311 93.359 85.4814C93.2501 86.0183 92.8894 86.4113 92.3643 86.5649C92.1404 86.6304 92.0342 86.7087 91.7311 87.0313C91.5308 87.2444 91.343 87.4189 91.3139 87.4189C91.2847 87.4189 91.1231 87.311 90.9548 87.1791C90.7864 87.0473 90.5028 86.8705 90.3246 86.7862C90.0344 86.6491 89.9587 86.635 89.6012 86.6523C89.2695 86.6684 89.1453 86.7014 88.8662 86.8477C87.7504 87.4326 87.8663 87.393 87.2675 87.3928C86.8047 87.3926 86.6897 87.3752 86.509 87.2788C86.0534 87.0356 85.8995 86.6848 86.0498 86.2324C86.117 86.0299 86.2472 85.8533 86.6184 85.4612C86.8831 85.1815 87.1369 84.8809 87.1821 84.7933C87.6627 83.8641 87.0072 82.7587 86.2157 83.1635C85.9769 83.2856 84.7992 84.3168 84.1508 84.9714C83.8449 85.2803 83.4549 85.719 83.2841 85.9464C82.4822 87.0139 82.4571 87.5163 83.0976 89.6821C83.4227 90.7819 83.4593 91.2142 83.446 93.7996C83.4364 95.6882 83.448 96.138 83.5147 96.4576C83.5855 96.7975 83.586 96.8558 83.5186 96.9587C83.3938 97.1492 83.1194 97.3434 82.4221 97.7348C81.796 98.0862 81.6206 98.2219 81.6956 98.297C81.9101 98.5115 85.7087 98.5894 87.0579 98.407C88.0518 98.2725 88.1864 98.2212 91.2027 96.8251C91.9718 96.4692 92.2033 96.386 92.6493 96.3055C93.1586 96.2136 93.1856 96.2134 93.3095 96.3014C93.4622 96.41 93.5095 96.7437 93.4072 96.9907C93.3319 97.1723 92.7207 97.6723 92.2626 97.9269C91.8931 98.1322 91.768 98.1828 89.8737 98.893C87.4198 99.813 87.5046 99.7967 85.3012 99.7712C82.2838 99.7362 82.3467 99.7349 82.1657 99.8326C81.9347 99.9571 81.8396 100.115 81.8396 100.375C81.8396 100.697 81.9605 100.894 82.2312 101.014C82.4324 101.103 82.557 101.114 83.248 101.101C83.6811 101.092 84.512 101.106 85.0946 101.131C86.2696 101.181 86.7226 101.144 87.5991 100.923C88.3271 100.739 88.6972 100.589 90.8553 99.5989C92.9579 98.6348 93.094 98.5786 93.3289 98.5789C93.6829 98.5794 94.0322 98.9473 94.0326 99.3201C94.0329 99.5991 93.7951 99.8291 93.3855 99.9459C92.2787 100.262 91.18 100.702 89.8995 101.343C89.1133 101.736 88.4519 101.954 87.585 102.103C87.0267 102.199 86.7397 102.216 85.6629 102.213C84.8274 102.212 84.1539 102.182 83.6817 102.126C82.6615 102.004 82.534 102.01 82.3599 102.184C82.1862 102.357 82.1134 102.73 82.2013 102.996C82.2748 103.219 82.5032 103.414 82.7848 103.495C83.2981 103.642 85.9444 103.482 87.3062 103.222C88.0039 103.089 90.0649 102.35 90.9784 101.906C92.4556 101.188 92.6066 101.15 92.9202 101.426C93.2861 101.747 93.1484 101.977 92.2842 102.489C91.1721 103.148 90.2133 103.512 88.7629 103.826C87.0405 104.199 85.8818 104.357 84.0791 104.464C83.4067 104.504 83.204 104.534 83.0366 104.619C82.7085 104.787 82.6892 105.017 82.9758 105.347C83.2726 105.689 83.2821 105.886 83.0499 106.884C82.9472 107.326 82.9248 107.572 82.9159 108.357C82.9039 109.412 82.9612 109.734 83.3041 110.539C83.4009 110.767 83.5791 111.185 83.7001 111.469C83.821 111.754 84.0073 112.335 84.114 112.761C84.2208 113.187 84.3823 113.803 84.473 114.13C84.6933 114.924 84.8708 115.654 84.9126 115.939C84.9912 116.473 85.1708 116.982 85.509 117.629C85.8517 118.285 85.8736 118.35 86.0557 119.231C86.2287 120.068 86.2475 120.243 86.2692 121.209C86.2865 121.976 86.2621 122.723 86.1806 123.921C86.0555 125.758 86.0418 126.97 86.1262 128.698C86.1848 129.898 86.227 130.303 86.3646 130.988C86.409 131.209 86.437 131.415 86.4269 131.446C86.4066 131.507 85.5523 131.08 85.1755 130.821C84.9007 130.632 84.7076 130.326 84.6278 129.954C84.5831 129.746 84.5878 129.547 84.6495 129.051C84.753 128.219 84.7867 127.657 84.8288 126.063L84.8636 124.742L85.0866 124.373C85.3597 123.921 85.4565 123.614 85.4553 123.202C85.4544 122.888 85.3778 122.63 84.9416 121.467C84.8146 121.128 84.7668 120.897 84.7332 120.459C84.6793 119.76 84.6241 119.59 84.1058 118.53C83.4773 117.245 83.2549 116.498 82.8964 114.466C82.6085 112.835 82.4752 112.35 82.1305 111.681L81.8138 111.065L81.8077 110.284C81.8031 109.694 81.7727 109.36 81.683 108.915C81.5722 108.366 81.5684 108.288 81.6261 107.728C81.7323 106.698 81.6466 106.366 80.928 105.023C80.4189 104.072 80.0055 103.413 79.4921 102.737C78.6179 101.585 78.4419 101.248 78.2228 100.309C77.8946 98.9014 77.9821 97.8301 78.5402 96.4212C78.8643 95.6033 78.8739 95.3627 78.6048 94.8057C78.2242 94.0174 77.9462 93.2057 77.5529 91.733C77.4618 91.392 77.3168 90.8921 77.2307 90.6222C77.086 90.1682 77.0747 90.0789 77.0815 89.4338C77.0855 89.0502 77.1195 88.2597 77.1569 87.6772C77.2295 86.5477 77.2791 86.3525 77.5592 86.0919C77.8461 85.825 78.1507 85.808 78.7738 86.0239C79.3094 86.2095 79.4713 86.2157 79.7749 86.0626C79.9518 85.9734 80.0351 85.8864 80.133 85.6889C80.2542 85.4443 80.2607 85.3846 80.2622 84.5005L80.2638 83.5697L80.0437 83.1436C79.9226 82.9092 79.7989 82.6024 79.7688 82.4619C79.6917 82.1026 79.8234 81.83 80.3294 81.3012C81.1491 80.4445 81.4854 79.7464 81.9741 77.8865C82.4417 76.1071 82.4889 75.7448 82.3059 75.3417C82.1699 75.0421 81.9941 74.8916 81.4751 74.6305C81.0581 74.4207 80.7454 74.1547 80.6031 73.8889C80.5719 73.8306 80.501 73.567 80.4455 73.3031C80.2943 72.5841 80.2468 72.4494 80.0762 72.2551C79.6499 71.7696 78.9808 72.1331 78.7453 72.9782C78.7136 73.0918 78.6521 73.6731 78.6086 74.2698C78.4979 75.7912 78.4433 76.089 78.1814 76.5998C77.9786 76.9953 77.6905 77.1426 77.2732 77.0643C77.1282 77.0371 77.0255 76.9493 76.7508 76.6173C76.4436 76.246 76.0678 75.9152 75.4339 75.4585C75.3085 75.3681 75.0695 75.0839 74.8595 74.7752C74.4343 74.1507 74.2339 73.9789 73.8938 73.9478C73.4602 73.9081 73.071 74.2603 72.5103 75.1998C72.2477 75.6399 71.7998 76.2341 70.3864 78.0175C68.5737 80.3045 68.1306 80.9359 67.8129 81.6839C67.2752 82.9501 66.9163 83.5081 66.0531 84.4205C65.0076 85.5253 64.7937 85.9703 65.0436 86.5207C65.2591 86.9951 65.8258 87.1901 66.3092 86.9562C66.5725 86.8287 66.7912 86.5822 67.2736 85.8689C67.948 84.8718 68.7691 84.1697 69.7523 83.7494C70.6314 83.3737 70.8026 83.2347 71.5928 82.2549C71.9014 81.8722 72.1493 81.4927 72.3593 81.0813C72.7204 80.3739 72.8677 80.2373 73.2689 80.2373C73.558 80.2373 73.8993 80.3786 73.8597 80.482C73.845 80.52 73.7953 80.6811 73.7491 80.84C73.703 80.9989 73.5653 81.3198 73.4432 81.5531C73.0912 82.2262 73.0766 82.8981 73.4063 83.2468C73.5666 83.4163 73.6463 83.4226 73.8743 83.2836C73.998 83.2081 74.0947 83.0739 74.2186 82.8058C74.4202 82.3693 74.7716 81.3268 74.8667 80.8831C74.9493 80.4976 75.022 80.4109 75.343 80.3156C75.5651 80.2497 75.6205 80.2495 75.7755 80.3142C76.0326 80.4217 76.106 80.6449 76.1657 81.501C76.2536 82.7631 76.1402 83.84 75.8128 84.8517C75.5905 85.5386 75.5428 86.014 75.539 87.582C75.5373 88.2753 75.5653 88.8726 75.6189 89.2863C75.6644 89.6366 75.6926 90.0831 75.6815 90.2785C75.6628 90.6097 75.6488 90.6455 75.4746 90.8051C75.1555 91.0974 75.0629 91.1098 73.1597 91.1137C71.2547 91.1176 71.2439 91.1192 70.8658 91.4511C70.4414 91.8238 70.4222 92.3709 70.8069 93.128C71.075 93.6554 71.5601 94.2739 72.621 95.4408C73.5592 96.4727 74.3215 97.4266 74.48 97.767C74.7154 98.2727 74.6374 98.677 74.1767 99.3376C73.8307 99.8338 73.6291 100.231 73.3311 101.005C72.8539 102.243 72.3234 103.032 71.2233 104.138C70.0829 105.284 68.9489 106.093 66.8823 107.232C65.4323 108.032 64.4889 108.499 64.3241 108.499C63.7823 108.499 63.3313 107.783 63.5756 107.31C63.6996 107.071 63.9484 106.918 64.7455 106.593C66.886 105.719 68.5621 104.632 70.2012 103.054C71.1893 102.103 71.8413 101.24 72.3129 100.258C72.9297 98.9736 72.9511 98.1572 72.3864 97.4442C71.9693 96.9177 71.5983 96.9559 70.9121 97.596C70.7699 97.7286 70.5424 97.8795 70.4066 97.9314C69.9882 98.0912 69.8336 98.0107 69.1335 97.2684C67.8275 95.8837 67.2658 95.3609 66.8639 95.1559C66.5446 94.993 66.4326 94.9621 66.1601 94.9621C65.397 94.9621 64.9094 95.3473 64.2129 96.5004C64.0676 96.741 63.8182 97.196 63.6588 97.5114C63.3483 98.1259 63.2126 98.2604 62.9659 98.1984C62.6594 98.1215 62.5705 97.6691 62.719 96.9431C62.9 96.0589 62.8588 95.2026 62.5751 93.9546C62.3004 92.7465 62.0919 91.8377 61.8225 90.6738C61.5307 89.4129 60.9871 86.7252 60.7359 85.3005C60.5548 84.2734 60.5034 83.7105 60.5024 82.7428C60.5013 81.7431 60.5938 80.9067 60.831 79.7723C60.9995 78.9661 61.0741 78.4063 61.1477 77.3956C61.1956 76.7384 61.4036 75.5021 61.668 74.304C62.1023 72.3358 62.2202 71.1067 62.1126 69.6715C62.0532 68.8795 62.097 68.254 62.23 67.9968C62.414 67.6411 62.6539 67.5059 63.3607 67.3597C63.8206 67.2646 64.0168 67.2537 64.9448 67.272C65.5273 67.2834 66.5852 67.2921 67.2956 67.2912C69.0505 67.2892 69.0298 67.2983 69.9831 66.1076C70.302 65.7092 70.737 65.1856 70.9497 64.9441L71.3365 64.5049L72.7777 63.706C74.6415 62.6729 74.7595 62.6018 74.9682 62.3864C75.1726 62.1755 75.2045 61.9165 75.0474 61.7429C74.7972 61.4665 73.6807 61.3952 72.5716 61.5848C71.4197 61.7817 69.8479 62.4125 68.5097 63.215C67.4707 63.838 66.7741 64.1118 64.6864 64.7173C63.6681 65.0127 63.4472 65.1212 62.8439 65.6227C62.2158 66.1448 62.0042 66.256 61.6381 66.256C61.28 66.256 60.9619 66.0982 60.7878 65.8343C60.5402 65.4591 60.1915 63.6699 60.2687 63.1708C60.3393 62.7143 60.5548 62.2211 61.2813 60.8536C62.4328 58.6866 62.4171 58.7259 62.1978 58.5499C61.8791 58.2942 61.6269 58.0404 61.5246 57.8725C61.4618 57.7694 61.2189 57.3905 60.985 57.0305C60.4925 56.2728 60.3802 56.0644 60.2964 55.7534C60.0862 54.973 60.128 54.6213 60.5036 54.0086C60.8244 53.4852 61.0364 53.0179 61.1209 52.6476C61.2869 51.9194 61.8626 51.3577 62.4442 51.3562C62.6589 51.3557 62.8979 51.5774 63.0306 51.9003C63.1479 52.1854 63.1581 52.2796 63.1667 53.1642C63.1754 54.0459 63.1864 54.1493 63.3092 54.4977C63.493 55.0189 63.7105 55.3804 64.0074 55.6581C64.2747 55.9081 64.5181 56.0051 64.8796 56.0056C65.4121 56.0063 67.5832 55.1576 70.0339 53.9908C70.4033 53.8149 71.2752 53.4033 71.9714 53.0762C74.2826 51.9903 75.4232 51.381 76.6471 50.5784C77.3524 50.1159 77.6484 49.829 78.5099 48.7726C79.6999 47.3132 80.4686 46.4911 81.2815 45.8085C81.6175 45.5264 81.8131 45.2055 82.0097 44.6135C82.4555 43.2714 82.4932 42.2607 82.1477 40.921C82.0635 40.5945 81.9948 40.2572 81.9951 40.1713C81.9956 40.003 82.208 39.5046 82.3427 39.3558C82.4215 39.2688 82.4315 39.27 82.5534 39.3815C82.6238 39.4459 82.9534 40.0565 83.2857 40.7385ZM76.1398 44.6393C76.2853 44.6393 76.518 44.9457 76.518 45.1373C76.518 45.3742 76.3082 45.7751 76.0352 46.0601C75.8546 46.2486 75.7783 46.2926 75.6324 46.2926C75.2222 46.2926 75.0303 45.7916 75.2662 45.3368C75.4953 44.8949 75.8366 44.555 75.9926 44.6135C76.0305 44.6277 76.0967 44.6393 76.1398 44.6393ZM56.512 46.2403C56.9457 46.4372 57.0027 46.7835 56.8586 48.3488C56.7749 49.2585 56.7142 49.452 56.4199 49.7463C56.1252 50.041 55.6072 50.0122 55.3762 49.6884C55.2606 49.5263 55.257 49.4851 55.2419 48.1796C55.2249 46.6996 55.2565 46.4952 55.5327 46.2993C55.7929 46.1146 56.1833 46.0912 56.512 46.2403ZM62.1185 46.6724C62.3457 46.7673 62.6034 47.073 62.6724 47.3296C62.8673 48.0532 62.199 48.5736 61.5234 48.2242C61.0328 47.9705 60.914 46.9658 61.3437 46.7038C61.5374 46.5857 61.8779 46.5719 62.1185 46.6724ZM58.4994 50.7866C58.5709 50.8429 58.6679 50.9849 58.7148 51.1021C58.7925 51.2964 58.7933 51.3549 58.723 51.7621C58.5998 52.476 58.4328 52.8542 58.2409 52.8542C58.0502 52.8542 57.8151 52.6806 57.709 52.4616C57.5887 52.2129 57.5944 52.0289 57.7435 51.354C57.8507 50.8691 57.9751 50.6843 58.1946 50.6843C58.2906 50.6843 58.4278 50.7303 58.4994 50.7866ZM84.9137 58.8251C84.2125 58.9205 83.2873 59.1186 82.5199 59.3377C81.3415 59.6741 79.5758 60.3953 78.7719 60.8684C77.7448 61.4729 76.0383 62.9761 75.7716 63.5112C75.4455 64.1656 75.7958 64.6861 76.5178 64.6202C76.9775 64.5782 77.4054 64.3651 78.5043 63.6309C80.355 62.3943 81.9808 61.5623 83.3379 61.1574C84.4233 60.8336 85.6818 60.6372 87.7163 60.4741C88.7633 60.3901 89.2522 60.2826 89.5104 60.0796C89.6291 59.9862 89.6475 59.94 89.624 59.7948C89.5824 59.5388 89.399 59.3157 89.138 59.2039C88.8092 59.0629 87.9853 58.8624 87.4725 58.7986C86.8816 58.7251 85.5474 58.7389 84.9137 58.8251ZM84.8621 62.9343C84.117 63.0407 83.4156 63.3345 82.0936 64.0941C81.2009 64.607 80.7589 64.9073 80.0054 65.5126C79.6644 65.7866 78.8972 66.3796 78.3005 66.8303C77.7037 67.2811 77.0527 67.7813 76.8538 67.942C76.6549 68.1027 76.2132 68.4261 75.8722 68.6608C74.9657 69.2845 74.7613 69.5037 74.7613 69.8524C74.7613 70.1072 74.8993 70.3078 75.2124 70.508C75.6916 70.8146 75.9435 71.0824 76.1628 71.5186C76.4516 72.0931 76.7858 72.2699 77.1062 72.0178C77.3061 71.8606 77.3816 71.6807 77.4464 71.2073C77.5662 70.3318 77.9189 69.4532 78.378 68.8858C78.6014 68.6096 79.8312 67.5921 81.0904 66.6414C81.7844 66.1175 84.6796 64.2629 85.1204 64.0599C85.3909 63.9353 85.7804 63.9374 86.2438 64.0658C86.6813 64.187 87.1087 64.1989 87.3087 64.0955C87.5948 63.9475 87.6645 63.509 87.4437 63.2465C87.2729 63.0435 87.107 62.9953 86.3604 62.9315C85.651 62.8709 85.3017 62.8716 84.8621 62.9343ZM67.7712 65.0654C68.2531 65.3146 68.0182 65.9102 67.3612 66.1053C66.7545 66.2855 66.211 66.1049 66.0276 65.6623C65.9005 65.3553 66.1261 65.0989 66.6149 64.9948C66.9219 64.9294 67.5868 64.97 67.7712 65.0654ZM103.023 95.2463V124.98H104.779H106.536L106.542 101.717C106.545 88.923 106.544 76.4957 106.539 74.1012L106.53 69.7478L108.38 69.7613L110.23 69.7749V74.6573C110.23 77.3427 110.236 89.7638 110.243 102.26L110.256 124.98H111.987H113.718V97.3646V69.749H115.603H117.489V97.3646V124.98H119.246H121.003V95.2463V65.5124H112.013H103.023V95.2463ZM120.279 66.4166V66.6491H118.884H117.489V67.2691V67.8891H115.603H113.718V67.2691V66.6491H111.987H110.256V67.2691V67.8891H108.396H106.536V67.2691V66.6491H105.141H103.746V66.451C103.746 66.3421 103.762 66.2375 103.78 66.2185C103.799 66.1996 107.519 66.1841 112.047 66.1841H120.279V66.4166ZM105.813 70.4207V73.469H104.779H103.746V70.4207V67.3724H104.779H105.813V70.4207ZM112.994 70.4207V73.469H111.961H110.928V70.4207V67.3724H111.961H112.994V70.4207ZM120.279 70.4207V73.469H119.246H118.213V70.4207V67.3724H119.246H120.279V70.4207ZM110.23 68.6382V68.9999L108.383 69.0135L106.536 69.027V68.6382V68.2494L108.383 68.263L110.23 68.2766V68.6382ZM117.489 68.6382V69.0257H115.603H113.718V68.6382V68.2507H115.603H117.489V68.6382ZM105.813 74.3732V74.554H104.779H103.746V74.3732V74.1923H104.779H105.813V74.3732ZM112.994 74.3732V74.554H111.961H110.928V74.3732V74.1923H111.961H112.994V74.3732ZM120.279 74.3732V74.554H119.246H118.213V74.3732V74.1923H119.246H120.279V74.3732ZM72.963 77.6044C73.1088 77.7502 73.1185 77.7827 73.0976 78.0564C73.0646 78.49 72.3979 79.9153 72.1149 80.1576C71.6529 80.553 70.6961 80.5392 70.4846 80.1339C70.3924 79.9574 70.4329 79.6355 70.5892 79.3018C70.7424 78.9749 71.9234 77.7093 72.2228 77.551C72.514 77.3972 72.7747 77.416 72.963 77.6044ZM105.813 78.6098V78.7906H104.779H103.746V78.6098V78.429H104.779H105.813V78.6098ZM112.994 78.6098V78.7906H111.961H110.928V78.6098V78.429H111.961H112.994V78.6098ZM120.279 78.6098V78.7906H119.246H118.213V78.6098V78.429H119.246H120.279V78.6098ZM79.5456 78.6563C79.7058 78.8165 79.7212 78.8587 79.7201 79.1342C79.7187 79.5141 79.5959 79.7911 79.3174 80.0422C78.9774 80.3487 78.7024 80.3629 78.4277 80.0883C78.0995 79.7601 78.0963 79.1896 78.4205 78.8305C78.6475 78.579 78.8425 78.4854 79.1452 78.4826C79.3333 78.4809 79.3986 78.5092 79.5456 78.6563ZM105.813 101.885V124.257H104.779H103.746V101.885V79.5139H104.779H105.813V101.885ZM112.994 101.885V124.257H111.961H110.928V101.885V79.5139H111.961H112.994V101.885ZM120.279 101.885V124.257H119.246H118.213V101.885V79.5139H119.246H120.279V101.885ZM85.1824 88.7601C85.4516 88.9241 85.5232 89.1235 85.4973 89.6364C85.4738 90.1048 85.373 90.3865 85.2114 90.4361C85.0716 90.4789 84.7179 90.3805 84.6428 90.2779C84.5337 90.1286 84.4682 89.8109 84.4581 89.3822C84.4502 89.0444 84.4653 88.9616 84.5521 88.865C84.7497 88.645 84.9415 88.6131 85.1824 88.7601ZM85.4171 91.2846C85.5737 91.4389 85.6918 91.8908 85.8413 92.9076C85.9509 93.6531 85.9768 95.9374 85.8787 96.2142C85.7383 96.6107 85.3079 96.7447 85.0019 96.4873C84.788 96.3073 84.7533 96.1864 84.6311 95.1946C84.5387 94.4453 84.5259 94.1137 84.5442 92.9373C84.5643 91.6471 84.5727 91.547 84.6742 91.3827C84.8735 91.0603 85.152 91.0235 85.4171 91.2846ZM57.5824 97.4312C57.8381 97.5165 58.3147 97.7025 58.6415 97.8447C58.9683 97.9868 59.5224 98.2136 59.8728 98.3486C60.4003 98.5519 60.5188 98.6172 60.5619 98.7285C60.6385 98.9264 60.5855 99.345 60.4699 99.456C60.4162 99.5075 60.0364 99.7642 59.626 100.026C59.2155 100.289 58.7307 100.617 58.5488 100.757C58.0577 101.133 57.8425 101.23 57.5559 101.202C57.2306 101.171 56.832 100.9 56.2049 100.284C55.7556 99.8422 55.6965 99.762 55.6168 99.4856C55.4246 98.8185 55.6405 97.8165 56.0615 97.4222L56.2758 97.2215L56.6965 97.2489C56.9626 97.2662 57.2884 97.3333 57.5824 97.4312ZM76.289 100.411C76.6284 100.553 76.7142 101.007 76.4875 101.462C76.3268 101.784 76.0712 102.007 75.7632 102.094C74.9653 102.317 74.5934 101.606 75.1373 100.898C75.3404 100.633 75.5044 100.508 75.7718 100.412C76.032 100.32 76.0703 100.32 76.289 100.411ZM70.389 101.074C70.547 101.286 70.5266 101.546 70.3372 101.735L70.1807 101.892L69.9632 101.805C69.6263 101.67 69.4877 101.286 69.6778 101.015C69.8528 100.765 70.1783 100.792 70.389 101.074ZM75.124 102.738C75.3083 102.834 75.3814 102.961 75.3811 103.187C75.3809 103.43 75.251 103.614 74.73 104.11C74.4781 104.35 73.4081 105.4 72.3522 106.443C71.2963 107.486 70.322 108.409 70.1871 108.495C70.0522 108.58 69.7956 108.699 69.6169 108.758C69.3413 108.85 69.2583 108.858 69.0688 108.809C68.6088 108.692 68.4581 108.529 68.4581 108.147C68.4581 107.752 68.584 107.641 70.2489 106.574C70.8109 106.213 70.9906 106.055 72.0297 105.007C73.5229 103.5 74.0884 102.992 74.4772 102.808C74.8322 102.639 74.9148 102.63 75.124 102.738ZM93.9766 103.423C94.1713 103.566 94.2602 103.786 94.4627 104.624C94.6672 105.47 94.8826 106.018 95.3056 106.768C95.4659 107.052 95.7202 107.503 95.8707 107.769C96.0212 108.036 96.2958 108.62 96.4808 109.068C96.9547 110.214 96.9715 110.371 96.7999 112.066C96.4807 115.219 96.4591 115.336 96.141 115.603C95.9513 115.763 95.7874 115.767 95.6511 115.616C95.3905 115.326 95.3581 115.047 95.4332 113.743L95.4956 112.658L95.2754 111.779C94.9673 110.55 94.7937 109.947 94.5812 109.366C94.1833 108.278 93.8787 106.98 93.6683 105.476C93.5863 104.89 93.5232 104.621 93.4089 104.372C93.2248 103.972 93.1931 103.429 93.3482 103.333C93.474 103.256 93.8165 103.305 93.9766 103.423ZM91.2445 104.082C91.4448 104.186 91.4995 104.303 91.7752 105.218C93.8288 112.035 95.1792 119.115 95.7614 126.117C96.026 129.299 96.025 129.453 95.7395 129.708C95.5669 129.861 95.1683 129.851 94.9943 129.687C94.8132 129.517 94.7702 129.341 94.7333 128.623C94.6482 126.962 94.3639 123.925 94.1071 121.932C93.4044 116.478 92.2431 111.011 90.6723 105.761C90.503 105.196 90.3645 104.661 90.3645 104.573C90.3645 104.146 90.8473 103.877 91.2445 104.082ZM89.0358 104.539C89.1272 104.578 89.2451 104.658 89.2978 104.717C89.4774 104.919 90.4622 108.532 91.1661 111.573C92.0948 115.585 92.8166 119.942 93.2541 124.179C93.5034 126.592 93.7602 130.324 93.6969 130.612C93.6216 130.955 93.1666 131.166 92.8529 131.004C92.5605 130.852 92.5269 130.745 92.476 129.798C92.033 121.55 90.7457 113.87 88.5076 106.122C88.3639 105.625 88.2463 105.153 88.2463 105.073C88.2461 104.797 88.4034 104.604 88.7112 104.502C88.8344 104.462 88.86 104.465 89.0358 104.539ZM87.0106 105.537C87.1252 105.654 87.2156 105.895 87.4615 106.742C88.6211 110.734 89.4237 114.177 90.1781 118.393C90.7426 121.547 91.2465 125.621 91.4722 128.855C91.6627 131.584 91.6712 131.83 91.5821 132.018C91.3994 132.403 90.893 132.481 90.6127 132.167C90.4387 131.973 90.4402 131.983 90.3419 130.173C89.9499 122.952 88.5676 114.967 86.4087 107.454C86.0257 106.121 85.9754 105.845 86.0795 105.651C86.2521 105.328 86.7464 105.268 87.0106 105.537ZM85.1052 106.109C85.2256 106.229 85.2643 106.328 85.3043 106.616C85.3981 107.293 85.7964 109.057 86.482 111.831C88.2139 118.838 88.7002 121.471 88.4478 122.473C88.3194 122.983 87.7625 123.149 87.4167 122.781C87.2955 122.652 87.2902 122.617 87.2858 121.915C87.2811 121.147 87.2476 120.865 87.0057 119.555C86.6881 117.835 86.4089 116.623 84.9966 110.839C84.0603 107.003 83.9693 106.425 84.2534 106.109C84.4709 105.867 84.8633 105.867 85.1052 106.109ZM78.7485 106.135C79.707 106.807 80.329 107.262 80.4074 107.349C80.5587 107.517 80.6061 107.763 80.5246 107.958C80.3188 108.451 79.5514 108.466 78.9567 107.99C77.8396 107.095 77.5894 106.701 77.8355 106.225C77.9991 105.909 78.3733 105.872 78.7485 106.135ZM77.5771 108.15C80.2419 109.482 80.7546 109.755 80.7546 109.844C80.7546 110.031 80.6374 110.669 80.6031 110.669C80.5123 110.669 73.4348 107.089 73.3793 107.015C73.2717 106.872 73.3058 106.746 73.4826 106.635C73.62 106.549 73.7186 106.533 74.025 106.547L74.3996 106.563L77.5771 108.15ZM74.186 108.52C75.902 109.285 79.5116 110.901 80.474 111.336C80.8117 111.488 80.8377 111.511 80.8186 111.641C80.8072 111.719 80.8463 111.909 80.9054 112.065C80.9645 112.221 81.0129 112.39 81.0129 112.442C81.0129 112.566 81.0012 112.562 79.7213 111.985C79.1387 111.723 77.9995 111.212 77.1896 110.849C76.3798 110.487 75.1359 109.929 74.4255 109.609C73.7151 109.29 72.9595 108.953 72.7464 108.861C72.1145 108.588 72.0148 108.513 72.0331 108.326C72.0548 108.106 72.3197 107.93 72.6307 107.93C72.8132 107.93 73.1388 108.054 74.186 108.52ZM71.3099 109.126C71.5734 109.182 72.1851 109.455 78.564 112.357L81.4624 113.675L81.5098 114.165C81.5358 114.434 81.55 114.661 81.5412 114.67C81.5233 114.688 80.8874 114.402 76.8796 112.579C75.331 111.874 73.2636 110.935 72.2855 110.492C71.3075 110.049 70.4646 109.649 70.4127 109.602C70.2232 109.43 70.3392 109.224 70.6797 109.128C70.9252 109.058 70.993 109.058 71.3099 109.126ZM70.4214 110.413C70.6539 110.564 70.8225 110.65 71.7905 111.108C72.2984 111.349 72.6986 111.537 75.123 112.671C75.7908 112.984 76.7324 113.426 77.2155 113.653C77.6986 113.88 78.6169 114.31 79.2563 114.609C79.8957 114.908 80.6889 115.281 81.0191 115.437L81.6194 115.722L81.7037 116.095C81.75 116.3 81.7879 116.488 81.7879 116.512C81.7879 116.536 81.5612 116.449 81.2842 116.319C79.8153 115.63 78.193 114.871 76.8796 114.259C76.0698 113.882 74.8259 113.3 74.1155 112.968C73.4051 112.635 72.3356 112.135 71.7389 111.857C69.6083 110.864 69.4497 110.784 69.3578 110.643C69.2785 110.522 69.2773 110.499 69.3467 110.43C69.4727 110.303 69.8125 110.202 70.0081 110.233C70.1075 110.249 70.2935 110.329 70.4214 110.413ZM89.3311 130.534C89.3664 130.577 89.4386 130.943 89.4916 131.348C89.7021 132.957 89.8704 133.513 90.2834 133.964C90.5688 134.275 90.9129 134.484 91.527 134.72C92.1532 134.96 92.3588 135.134 92.423 135.478C92.4821 135.794 92.4099 136.251 92.2481 136.585C92.042 137.011 91.749 137.302 91.3067 137.521L90.9123 137.716H88.0163H85.1204L84.8189 137.568C84.3515 137.338 84.1775 136.96 84.3416 136.53C84.3929 136.396 84.6594 136.037 85.0002 135.643C85.6454 134.898 86.0959 134.325 86.7302 133.442C87.3628 132.561 87.4301 132.344 87.1828 131.98C87.0627 131.803 87.058 131.778 87.1352 131.735C87.1824 131.709 87.4807 131.489 87.7982 131.246C88.3375 130.834 88.9899 130.463 89.1828 130.459C89.229 130.458 89.2957 130.492 89.3311 130.534ZM163.937 137.662C164.401 137.734 165.68 138.021 165.721 138.062C165.732 138.073 165.788 138.65 165.846 139.345C165.904 140.04 165.966 140.728 165.983 140.874L166.014 141.138L165.763 141.175C165.626 141.194 165.464 141.222 165.405 141.236C165.308 141.26 165.279 141.208 165.127 140.729C164.71 139.411 164.187 138.794 163.219 138.475C162.718 138.309 161.852 138.285 161.404 138.424C160.597 138.675 160.063 139.364 159.964 140.285C159.905 140.836 159.971 141.26 160.184 141.69C160.526 142.381 161.174 142.904 162.827 143.823C163.282 144.076 163.826 144.393 164.036 144.529C165.317 145.358 166.012 146.209 166.238 147.225C166.369 147.811 166.325 148.688 166.138 149.237C165.354 151.539 162.582 152.614 159.474 151.823C158.848 151.664 158.011 151.387 157.85 151.285C157.773 151.236 157.58 150.205 157.426 149.016C157.279 147.883 157.272 147.94 157.585 147.873C158.017 147.78 158.008 147.774 158.172 148.243C158.754 149.914 159.771 150.954 161.065 151.202C163.049 151.581 164.456 150.33 164.199 148.417C164.055 147.351 163.402 146.666 161.483 145.568C159.784 144.597 158.78 143.74 158.368 142.908C158.049 142.264 157.979 141.927 158.009 141.179C158.029 140.688 158.062 140.478 158.168 140.18C158.675 138.745 159.921 137.843 161.747 137.59C162.2 137.527 163.302 137.563 163.937 137.662ZM35.3535 137.853C36.5117 137.888 37.483 137.932 37.512 137.95C37.5443 137.97 37.5518 138.092 37.5313 138.267L37.4978 138.551L37.0332 138.613C36.3149 138.709 36.0404 138.854 35.9813 139.169C35.9344 139.419 35.9666 139.553 36.8898 142.96C38.4708 148.795 38.402 148.558 38.475 148.418C38.5125 148.347 38.6678 147.967 38.82 147.574C38.9723 147.182 39.3583 146.186 39.6778 145.362C40.4244 143.437 41.012 141.876 41.623 140.196C41.8917 139.457 42.1601 138.719 42.2196 138.555L42.3276 138.258H42.7254H43.1233L43.6009 139.77C44.0758 141.272 45.3606 145.24 45.5959 145.931C45.6637 146.13 45.8972 146.839 46.1149 147.507C46.3326 148.174 46.5286 148.74 46.5506 148.763C46.5725 148.787 46.6139 148.74 46.6427 148.66C49.0557 141.911 49.5485 140.427 49.5481 139.914C49.5476 139.407 49.2306 139.178 48.2575 138.981C47.9596 138.921 47.7078 138.863 47.6978 138.853C47.6879 138.843 47.696 138.705 47.7158 138.547L47.7518 138.258H48.1033C48.5593 138.258 51.4041 138.351 52.2243 138.392L52.8596 138.424L52.8443 138.739L52.8291 139.054L52.414 139.113C51.2606 139.278 51.0071 139.538 50.3758 141.203C49.7633 142.819 48.7824 145.528 47.3755 149.489C46.8116 151.076 46.3388 152.387 46.3248 152.401C46.3107 152.415 46.1143 152.41 45.8883 152.39L45.4773 152.353L45.3138 151.829C45.2239 151.54 45.0375 150.955 44.8996 150.529C43.267 145.482 42.1078 141.964 42.0602 141.913C42.04 141.891 41.1333 144.181 40.0452 147.002C38.9572 149.823 38.0599 152.138 38.0515 152.148C38.043 152.157 37.8526 152.148 37.6284 152.129L37.2207 152.093L37.1057 151.673C37.0424 151.442 36.8426 150.706 36.6617 150.038C35.9933 147.572 35.6918 146.494 34.5304 142.417C34.1741 141.167 33.8261 139.993 33.7568 139.808C33.5714 139.314 33.3278 138.939 33.0805 138.768C32.8712 138.623 32.2017 138.413 31.9477 138.413C31.833 138.413 31.8268 138.396 31.8268 138.07V137.726L32.5372 137.758C32.928 137.775 34.1953 137.818 35.3535 137.853ZM57.9539 140.171C58.9146 140.399 59.8983 140.632 60.1398 140.688C62.105 141.149 62.027 141.125 62.0092 141.26C62.0002 141.328 61.9696 141.474 61.9413 141.583C61.8971 141.753 61.8735 141.778 61.7769 141.751C61.5707 141.696 60.6754 141.653 60.4791 141.69C60.1531 141.751 59.8755 142.08 59.7105 142.6C59.5636 143.064 58.722 146.575 58.7526 146.596C58.7626 146.603 59.1543 146.698 59.6232 146.807C60.092 146.915 61.673 147.289 63.1365 147.638C64.5999 147.987 65.8051 148.265 65.8146 148.255C65.8328 148.237 66.0676 147.273 66.2362 146.525C66.2905 146.283 66.4208 145.737 66.5255 145.311C66.6792 144.686 66.7171 144.431 66.7216 143.993C66.7268 143.496 66.7169 143.437 66.6028 143.285C66.4692 143.107 65.9954 142.841 65.4744 142.651C65.2968 142.587 65.1514 142.515 65.1514 142.493C65.1514 142.36 65.2801 141.927 65.3196 141.927C65.3455 141.927 65.545 141.97 65.7628 142.024C65.9807 142.077 67.2749 142.383 68.6389 142.704C70.0029 143.026 71.1402 143.307 71.1663 143.329C71.1947 143.354 71.1876 143.486 71.1485 143.661C71.084 143.949 71.082 143.951 70.9203 143.923C70.8306 143.907 70.5565 143.878 70.3112 143.859C69.7222 143.814 69.3909 143.892 69.1878 144.123C68.9138 144.435 68.9872 144.155 67.1913 151.743C66.5579 154.42 66.5361 154.524 66.528 154.93C66.5219 155.232 66.5404 155.327 66.6287 155.446C66.8165 155.7 67.1285 155.897 67.6332 156.08C67.9021 156.178 68.1313 156.264 68.1425 156.272C68.1536 156.281 68.1329 156.428 68.0964 156.6C68.0443 156.845 68.0124 156.907 67.947 156.888C67.9013 156.875 67.5035 156.78 67.0631 156.677C66.6226 156.575 66.0763 156.446 65.8489 156.391C65.6216 156.336 64.6928 156.115 63.7849 155.901C62.877 155.687 62.1235 155.501 62.1104 155.488C62.0973 155.475 62.1152 155.336 62.1502 155.179L62.2139 154.895L62.9464 154.925C64.2141 154.978 64.2332 154.953 64.8148 152.534C65.0253 151.659 65.2877 150.553 65.398 150.077L65.5984 149.211L65.4137 149.161C65.2164 149.109 60.9445 148.092 60.1657 147.912C59.9099 147.853 59.4375 147.74 59.116 147.661C58.702 147.558 58.5251 147.534 58.5099 147.576C58.4611 147.713 57.5926 151.405 57.4762 151.97C57.4067 152.308 57.3499 152.675 57.3499 152.785C57.3499 153.033 57.4543 153.293 57.6154 153.446C57.7661 153.588 58.3173 153.869 58.6803 153.988C58.9812 154.086 58.9931 154.116 58.893 154.513C58.8486 154.689 58.8151 154.738 58.7545 154.715C58.7105 154.698 58.4753 154.64 58.2318 154.585C57.9882 154.531 56.8242 154.255 55.6449 153.973C54.4656 153.691 53.367 153.432 53.2036 153.399C53.0403 153.365 52.9075 153.333 52.9087 153.328C52.91 153.323 52.9409 153.191 52.9776 153.035L53.0442 152.751L53.7659 152.77C54.4214 152.787 54.5073 152.779 54.7024 152.68C55.0778 152.488 55.2252 152.129 55.6182 150.452C55.8343 149.529 56.4279 147.011 57.0617 144.329C57.5527 142.251 57.6335 141.81 57.5838 141.479C57.521 141.061 57.1284 140.754 56.3085 140.485L55.9646 140.371L56.0064 140.206C56.0294 140.115 56.0625 139.977 56.08 139.899C56.0975 139.821 56.1333 139.757 56.1595 139.757C56.1857 139.757 56.9931 139.943 57.9539 140.171ZM148.815 139.885C150.543 140.115 152.044 141.024 152.975 142.405C153.439 143.093 153.687 143.67 153.912 144.583C154.451 146.772 154.053 148.932 152.805 150.593C152.464 151.046 151.573 151.879 151.055 152.227C149.772 153.089 148.426 153.608 146.216 154.092C145.747 154.195 145.107 154.336 144.795 154.405C142.68 154.873 141.328 155.152 141.277 155.133C141.244 155.12 141.201 155.021 141.182 154.912C141.163 154.803 141.136 154.675 141.122 154.628C141.102 154.56 141.196 154.51 141.591 154.378C142.16 154.189 142.525 153.963 142.672 153.71C142.837 153.425 142.796 153.014 142.443 151.382C142.268 150.572 142.069 149.653 142.001 149.341C141.934 149.028 141.807 148.447 141.72 148.049C141.632 147.651 141.493 147.012 141.41 146.628C141.327 146.245 141.187 145.605 141.1 145.207C141.013 144.81 140.896 144.263 140.839 143.993C140.585 142.775 140.361 142.318 139.94 142.157C139.738 142.08 139.605 142.071 139.06 142.1L138.419 142.135L138.365 141.94C138.28 141.633 138.296 141.519 138.427 141.487C138.491 141.472 138.869 141.39 139.266 141.304C141.184 140.893 142.43 140.624 143.09 140.479C144.597 140.148 145.59 139.96 146.19 139.891C147.018 139.796 148.13 139.794 148.815 139.885ZM145.311 140.841C144.178 141.005 143.148 141.334 142.856 141.626C142.571 141.911 142.561 141.847 143.605 146.628C144.112 148.952 144.268 149.668 144.435 150.452C144.828 152.296 145.013 152.689 145.633 152.989C145.997 153.165 146.701 153.146 147.533 152.939C150.563 152.182 152.062 150.079 151.84 146.895C151.79 146.183 151.653 145.442 151.452 144.806C150.79 142.706 149.55 141.437 147.671 140.936C147.223 140.817 145.862 140.762 145.311 140.841ZM133.092 143.261C133.697 143.42 134.139 143.657 134.556 144.047C134.995 144.459 135.218 144.811 135.431 145.426C135.632 146.009 135.681 146.819 135.55 147.376C135.335 148.287 134.646 149.227 133.69 149.91L133.545 150.014L134.765 151.211C136.631 153.044 137.993 154.196 138.775 154.606C139.129 154.792 139.641 154.946 139.901 154.946C140.075 154.946 140.117 155.033 140.118 155.396C140.119 155.601 140.109 155.615 139.951 155.642C138.768 155.845 137.782 155.884 137.204 155.75C136.847 155.667 136.239 155.385 135.934 155.161C135.437 154.795 134.645 154.055 133.476 152.866C132.766 152.144 132.089 151.489 131.971 151.411C131.645 151.195 131.295 151.183 130.466 151.358C129.906 151.476 129.788 151.516 129.808 151.584C129.822 151.629 129.987 152.375 130.175 153.241C130.715 155.725 130.827 156.055 131.219 156.298C131.401 156.412 131.46 156.418 132.171 156.411L132.928 156.404L132.962 156.592C132.981 156.696 133.008 156.831 133.023 156.892C133.045 156.984 133.021 157.009 132.877 157.038C132.782 157.057 132.124 157.2 131.413 157.356C130.703 157.512 129.866 157.695 129.553 157.763C129.241 157.832 128.601 157.971 128.132 158.072C127.664 158.174 127.241 158.269 127.194 158.283C127.127 158.303 127.097 158.253 127.052 158.046C127.021 157.901 126.996 157.755 126.997 157.721C126.997 157.687 127.212 157.581 127.475 157.486C128.087 157.264 128.408 157.061 128.522 156.821C128.687 156.473 128.609 155.927 128.006 153.216C127.703 151.852 127.305 150.05 127.121 149.212C126.408 145.965 126.307 145.634 125.955 145.383C125.79 145.265 125.744 145.259 124.999 145.261L124.216 145.263L124.159 144.981C124.128 144.826 124.114 144.688 124.127 144.675C124.152 144.65 125.061 144.445 128.391 143.714C129.926 143.377 130.396 143.287 131.362 143.146C131.707 143.096 132.716 143.163 133.092 143.261ZM74.5904 144.222C75.6425 144.47 77.6231 144.932 78.7396 145.191C79.1232 145.28 79.4547 145.368 79.4762 145.386C79.4976 145.405 79.4882 145.554 79.4551 145.719C79.3953 146.017 79.3945 146.018 79.2353 145.986C79.1474 145.968 78.8313 145.94 78.533 145.925C78.0343 145.898 77.9717 145.906 77.7584 146.017C77.467 146.168 77.3247 146.381 77.1617 146.909C77.0563 147.25 76.3423 150.26 75.7694 152.776C75.7016 153.075 75.5034 153.923 75.3291 154.662C74.9593 156.231 74.869 156.691 74.8665 157.023C74.8622 157.598 75.1171 157.844 76.0676 158.183C76.2727 158.256 76.4562 158.331 76.4754 158.349C76.5236 158.395 76.3923 158.951 76.3332 158.951C76.2549 158.951 74.5049 158.548 71.8394 157.916C71.1843 157.76 70.6082 157.633 70.5591 157.633C70.4307 157.633 70.4139 157.539 70.4902 157.246C70.5666 156.952 70.5085 156.967 71.2763 157.031C71.9008 157.083 72.1776 157.024 72.4121 156.789C72.6885 156.512 72.7742 156.21 73.6255 152.518C73.7926 151.794 74.0486 150.689 74.1944 150.064C75.0399 146.437 75.0862 146.212 75.06 145.841C75.0245 145.339 74.6913 145.047 73.8313 144.762C73.3973 144.619 73.42 144.638 73.469 144.445C73.4923 144.353 73.5256 144.213 73.5432 144.135C73.5607 144.057 73.5848 143.993 73.5968 143.993C73.6088 143.993 74.0559 144.096 74.5904 144.222ZM129.872 144.202C129.505 144.264 128.905 144.453 128.723 144.565C128.524 144.687 128.442 144.861 128.442 145.163C128.442 145.292 128.641 146.296 128.884 147.395C129.127 148.493 129.385 149.66 129.456 149.987C129.527 150.313 129.596 150.617 129.609 150.662C129.655 150.822 131.437 150.369 132.029 150.047C132.907 149.57 133.479 148.571 133.471 147.532C133.461 146.175 132.773 144.88 131.827 144.437C131.27 144.177 130.544 144.09 129.872 144.202ZM81.8834 145.524C81.9915 145.545 82.0766 145.612 82.1461 145.73C82.2026 145.826 82.3215 145.948 82.4103 146.002C82.5993 146.117 82.6279 146.122 85.733 146.528C87.0442 146.699 88.5471 146.896 89.0728 146.966C89.5986 147.035 90.4704 147.15 91.0103 147.221C91.5502 147.292 92.115 147.351 92.2653 147.351C92.5468 147.352 92.8659 147.228 92.9993 147.068C93.0557 147 93.1218 146.99 93.3317 147.018C93.4757 147.037 93.607 147.061 93.6232 147.071C93.6395 147.08 93.6348 147.234 93.6129 147.414C93.5628 147.822 93.4305 149.505 93.3852 150.309L93.351 150.917H92.9991H92.6472L92.5844 150.542C92.5027 150.053 92.2519 149.21 92.0983 148.908C91.8867 148.491 91.6575 148.304 91.2157 148.185C91.0515 148.141 89.2721 147.884 88.542 147.799C88.3691 147.779 88.3918 147.692 88.22 149.031C88.147 149.599 88.0307 150.494 87.9616 151.02C87.8924 151.546 87.7652 152.522 87.6788 153.19C87.4497 154.961 87.2822 156.235 87.1284 157.375C86.9646 158.589 86.9443 159.295 87.0667 159.519C87.2632 159.879 87.6429 160.081 88.4761 160.272L89.0251 160.397L88.9914 160.681C88.9729 160.838 88.943 160.981 88.9249 160.999C88.9068 161.017 88.3921 160.966 87.7812 160.885C87.1702 160.804 86.217 160.677 85.6629 160.604C81.9717 160.115 82.4079 160.194 82.4079 160.014C82.4079 159.933 82.4224 159.795 82.4402 159.706L82.4725 159.545H83.1817C84.6203 159.545 84.7057 159.426 85.0198 156.987C85.0931 156.419 85.2083 155.524 85.2758 154.998C85.3433 154.472 85.471 153.496 85.5596 152.828C86.0464 149.157 86.2431 147.553 86.2107 147.52C86.1941 147.504 85.7792 147.433 85.2888 147.363C84.1545 147.2 83.0823 147.179 82.8366 147.313C82.4721 147.512 82.0927 148.013 81.6022 148.943L81.3488 149.423L81.0388 149.39C80.8683 149.371 80.7128 149.341 80.6933 149.323C80.6738 149.304 80.7384 148.94 80.8369 148.514C81.0233 147.707 81.328 146.301 81.4276 145.789C81.4902 145.466 81.5174 145.45 81.8834 145.524ZM117.607 146.03C119.462 146.454 120.916 147.429 121.944 148.936C123.542 151.28 123.572 154.901 122.011 157.247C121.002 158.763 119.507 159.776 117.597 160.239C114.517 160.984 111.36 159.868 109.704 157.446C108.818 156.149 108.427 154.849 108.426 153.19C108.426 151.982 108.62 151.069 109.093 150.057C110.085 147.933 111.977 146.496 114.415 146.013C115.159 145.866 115.207 145.862 116.146 145.877C116.854 145.888 117.101 145.914 117.607 146.03ZM114.796 146.784C112.939 147.007 111.574 148.242 111.059 150.163C110.582 151.941 110.835 154.262 111.709 156.128C112.356 157.511 113.436 158.656 114.558 159.15C115.238 159.45 115.595 159.519 116.43 159.514C117.114 159.51 117.259 159.493 117.66 159.372C119.345 158.86 120.348 157.656 120.699 155.721C120.803 155.153 120.789 153.523 120.675 152.776C120.517 151.746 120.165 150.578 119.786 149.825C119.375 149.007 118.615 148.086 117.98 147.635C117.059 146.982 115.847 146.658 114.796 146.784ZM105.471 147.519C105.487 147.669 105.513 148.012 105.53 148.282C105.561 148.787 105.688 150.073 105.739 150.408L105.768 150.596L105.545 150.63C105.422 150.649 105.258 150.676 105.18 150.691C105.067 150.712 105.029 150.694 104.99 150.598C104.962 150.531 104.86 150.276 104.763 150.031C104.536 149.459 104.072 148.745 103.798 148.546C103.481 148.317 103.206 148.281 101.793 148.287C100.09 148.294 99.5399 148.332 99.4207 148.452C99.3165 148.557 99.3172 148.494 99.382 151.971L99.4185 153.929L101.016 153.894C101.894 153.874 102.733 153.835 102.879 153.808C103.514 153.687 103.724 153.449 103.935 152.609L104.075 152.053H104.421H104.767L104.812 154.21C104.836 155.397 104.856 156.414 104.856 156.471C104.857 156.563 104.818 156.576 104.495 156.589L104.133 156.604L104.04 156.186C103.988 155.957 103.871 155.625 103.78 155.449C103.635 155.168 103.578 155.111 103.309 154.973L103.003 154.817L101.245 154.834C100.277 154.842 99.476 154.859 99.4642 154.871C99.4525 154.883 99.4686 155.922 99.5001 157.18C99.5635 159.724 99.5922 159.954 99.8827 160.254C100.124 160.504 100.787 160.678 101.507 160.68L101.774 160.681L101.791 160.996C101.801 161.17 101.796 161.319 101.781 161.329C101.738 161.355 95.5354 161.478 95.5127 161.453C95.5015 161.441 95.4764 161.299 95.4568 161.137L95.4213 160.844L95.6699 160.813C96.7233 160.683 97.0627 160.535 97.2536 160.122C97.3617 159.888 97.3649 159.827 97.3533 158.201C97.3344 155.552 97.1872 149.684 97.1308 149.329C97.0455 148.794 96.9174 148.568 96.6078 148.407C96.4478 148.324 95.6603 148.178 95.3693 148.178H95.1694V147.842V147.507L95.6474 147.507C97.1422 147.508 104.412 147.319 105.331 147.256C105.43 147.249 105.447 147.281 105.471 147.519ZM6.17457 149.991C5.01895 150.051 4.17483 150.133 2.9971 150.299C2.07269 150.429 0.119298 150.78 0.0748136 150.825C0.0394223 150.86 1.70472 153.306 2.02252 153.685C2.77308 154.58 3.95623 155.662 6.79291 158.046C8.43325 159.425 9.79357 160.649 10.2717 161.175C10.7754 161.73 11.1836 162.281 11.1301 162.333C10.9151 162.544 9.64663 163.238 7.80205 164.155C5.24768 165.426 4.22391 165.974 3.43626 166.496C1.65228 167.678 0.757323 168.765 0.394885 170.188C0.203876 170.938 -0.000464203 171.856 7.92124e-07 171.962C0.000414121 172.049 0.0400422 172.054 0.504211 172.027C0.781244 172.011 1.36833 171.985 1.80878 171.97C2.24923 171.954 3.4466 171.892 4.46958 171.833C7.19787 171.675 9.28425 171.683 11.3153 171.86C13.7703 172.074 16.032 172.321 18.5228 172.646C20.3824 172.889 21.8317 173.084 22.7077 173.21C31.4435 174.462 33.8702 174.717 37.5617 174.77C40.5035 174.813 42.5969 174.676 44.864 174.293C48.8032 173.628 52.2545 172.288 53.4914 170.945C54.8606 169.457 54.7765 167.381 53.286 165.875C52.0385 164.615 50.491 164.132 47.9516 164.21C47.4231 164.226 46.7583 164.278 46.4741 164.325C45.8321 164.431 43.8538 164.91 42.315 165.332C38.5464 166.366 37.9379 166.523 36.9962 166.699C34.6043 167.148 32.6003 167.041 30.561 166.357C28.8984 165.799 27.6352 164.952 26.9231 163.917C26.6714 163.551 26.3659 162.87 26.2479 162.412C26.0372 161.594 26.0259 161.237 26.0604 156.467L26.0932 151.917L25.253 151.827C24.3241 151.728 23.8708 151.667 19.6336 151.072C12.1028 150.014 9.59042 149.812 6.17457 149.991ZM190.545 150.045C189.663 150.109 186.887 150.381 185.327 150.555C183.929 150.711 182.606 150.868 177.499 151.486C176.789 151.571 175.7 151.699 175.08 151.77C174.459 151.84 173.934 151.909 173.912 151.922C173.814 151.982 173.79 152.935 173.777 157.349C173.768 160.301 173.743 162.147 173.71 162.311C173.403 163.818 171.847 165.305 169.606 166.232C167.49 167.108 164.905 167.182 161.715 166.457C161.022 166.299 159.527 165.914 157.453 165.358C155.307 164.783 154.418 164.566 153.035 164.282C152.289 164.129 152.163 164.118 151.176 164.118C150.178 164.117 150.083 164.126 149.548 164.264C147.843 164.706 146.549 165.604 145.839 166.838C145.762 166.97 145.629 167.291 145.542 167.55C145.41 167.945 145.384 168.104 145.383 168.524C145.381 169.172 145.443 169.434 145.737 170.033C145.947 170.459 146.048 170.592 146.499 171.04C147.398 171.932 148.381 172.446 150.599 173.183C153.128 174.024 155.349 174.48 158.202 174.745C159.146 174.833 163.285 174.832 164.35 174.744C166.898 174.532 170.321 174.1 176.647 173.189C185.26 171.95 187.918 171.685 191.752 171.687C193.954 171.688 195.55 171.793 197.649 172.076C198.54 172.196 199.917 172.355 199.933 172.339C199.96 172.312 199.687 171.173 199.557 170.774C199.287 169.944 198.725 168.956 198.042 168.109C197.218 167.088 196.424 166.31 194.368 164.513C193.701 163.929 192.98 163.29 192.767 163.092C192.554 162.894 192.135 162.544 191.837 162.315C191.129 161.77 190.752 161.396 190.752 161.237C190.752 161.067 191.034 160.615 191.46 160.105C191.657 159.868 192.059 159.348 192.351 158.951C192.809 158.328 193.104 158.011 194.465 156.677C197.162 154.035 198.149 153.029 198.622 152.44C199.078 151.871 200 150.55 200 150.464C200 150.439 199.425 150.391 198.721 150.357C198.018 150.324 196.873 150.25 196.177 150.194C193.594 149.986 191.938 149.942 190.545 150.045ZM38.4401 156.016C37.9237 156.037 36.4403 156.173 35.7018 156.268C32.4884 156.678 30.1054 157.717 28.4669 159.422C27.2226 160.717 26.95 162.006 27.6546 163.265C27.877 163.662 28.6601 164.423 29.2435 164.809C30.8206 165.852 32.5674 166.316 34.6426 166.245C36.2783 166.189 37.476 165.929 41.9275 164.66C45.3676 163.679 46.2902 163.492 47.9725 163.437C50.1765 163.365 51.6925 163.769 53.6913 164.961C54.0802 165.193 54.4124 165.383 54.4294 165.383C54.4464 165.383 54.4536 163.935 54.4455 162.165L54.4307 158.946L54.2499 158.644C54.0545 158.318 53.6811 157.985 53.411 157.897C53.1913 157.825 50.3826 157.223 49.3007 157.016C45.054 156.203 41.6232 155.887 38.4401 156.016ZM157.944 156.037C156.285 156.131 153.961 156.405 152.08 156.729C150.062 157.076 146.685 157.791 146.333 157.944C146.065 158.061 145.653 158.465 145.518 158.744C145.438 158.909 145.411 159.116 145.382 159.777C145.339 160.794 145.326 165.045 145.367 165.085C145.383 165.102 145.703 164.975 146.077 164.805C148.382 163.755 149.773 163.397 151.537 163.398C153.113 163.4 154.429 163.673 158.859 164.921C162.996 166.087 164.15 166.305 165.891 166.247C167.269 166.201 168.364 165.944 169.539 165.389C172.339 164.069 173.245 162.097 171.952 160.137C170.984 158.667 168.853 157.347 166.417 156.707C164.233 156.134 160.904 155.871 157.944 156.037ZM78.223 163.007C82.7943 163.87 86.1229 164.354 89.9577 164.713C93.717 165.064 97.1051 165.2 101.137 165.16C107.643 165.095 112.915 164.585 119.659 163.367C120.633 163.191 123.596 162.611 124.048 162.508C124.136 162.488 120.106 166.554 112.038 174.625L99.897 186.773L87.7942 174.67C81.1376 168.014 75.6913 162.554 75.6913 162.537C75.6913 162.521 76.0807 162.585 76.5567 162.681C77.0327 162.777 77.7825 162.923 78.223 163.007ZM126.157 176.851C125.802 176.916 125.4 177.055 125.15 177.2C124.824 177.388 124.437 177.84 124.308 178.183C124.066 178.825 124.051 181.403 124.286 182.084C124.537 182.814 125.416 183.275 126.314 183.15C126.717 183.093 126.914 182.995 127.164 182.727L127.357 182.519V183.601C127.357 184.51 127.344 184.702 127.275 184.801C127.154 184.974 126.965 185.031 126.751 184.96C126.515 184.882 126.427 184.667 126.427 184.164V183.774L125.278 183.788L124.128 183.802L124.144 184.112C124.167 184.549 124.34 185.154 124.524 185.442C124.928 186.072 125.755 186.412 126.877 186.41C128.159 186.408 128.989 185.971 129.416 185.073C129.588 184.713 129.6 184.649 129.637 183.962C129.689 182.992 129.687 180.162 129.634 179.246C129.596 178.586 129.576 178.48 129.435 178.178C129.144 177.555 128.657 177.148 127.977 176.958C127.541 176.836 126.556 176.778 126.157 176.851ZM66.1848 181.633V186.257L68.2643 186.244L70.3439 186.23V185.326V184.422L69.4516 184.408L68.5592 184.394L68.5732 183.375L68.5872 182.355L69.3235 182.341L70.0597 182.327V181.477V180.627L69.3235 180.613L68.5872 180.599V179.72V178.842L69.3751 178.828L70.1631 178.814V177.911V177.008H68.1739H66.1848V181.633ZM121.729 177.159C121.592 177.352 121.062 177.769 120.686 177.981C120.526 178.071 120.154 178.224 119.859 178.32L119.323 178.496V179.005V179.514L119.878 179.551C120.431 179.588 120.656 179.655 120.8 179.828C120.861 179.902 120.878 180.443 120.899 183.074L120.925 186.23L122.075 186.244L123.224 186.258V181.633V177.008H122.53H121.836L121.729 177.159ZM130.147 177.835V178.661H131.288C132.376 178.661 132.426 178.666 132.397 178.758C132.38 178.811 132.284 179.235 132.184 179.7C131.918 180.932 131.791 181.514 131.44 183.13C131.266 183.926 131.081 184.786 131.027 185.042C130.973 185.298 130.893 185.658 130.849 185.843C130.805 186.028 130.769 186.197 130.768 186.218C130.768 186.24 131.285 186.252 131.917 186.244L133.066 186.23L133.202 185.559C133.277 185.189 133.468 184.246 133.628 183.463C133.787 182.68 134.058 181.351 134.229 180.511L134.539 178.983V177.995V177.008H132.343H130.147V177.835ZM136.31 177.486C136.222 177.749 135.776 179.097 135.319 180.482L134.487 183V183.801V184.603H135.857H137.226V185.429V186.256H138.361H139.496L139.511 185.442L139.525 184.629L139.848 184.613L140.171 184.598V183.828V183.058L139.848 183.042L139.525 183.027L139.511 180.017L139.498 177.008H137.984H136.47L136.31 177.486ZM76.6213 178.222V178.816H76.363H76.1047V179.436V180.056H76.363H76.6213L76.6226 182.601C76.6232 184 76.6447 185.235 76.6701 185.345C76.7374 185.635 76.9706 185.899 77.3108 186.07C77.6017 186.217 77.6309 186.221 78.6132 186.245L79.6179 186.27V185.65V185.029L79.332 185.005C79.1747 184.992 79.0177 184.953 78.9832 184.919C78.9363 184.872 78.9163 184.251 78.9039 182.456L78.8873 180.056H79.2009H79.5146V179.436V178.816H79.2046H78.8946V178.222V177.628H77.758H76.6213V178.222ZM127.206 178.381C127.331 178.514 127.332 178.518 127.348 179.841C127.357 180.57 127.349 181.245 127.332 181.341C127.231 181.874 126.599 181.897 126.477 181.371C126.413 181.093 126.417 178.95 126.483 178.661C126.575 178.256 126.951 178.11 127.206 178.381ZM72.6172 178.554C72.003 178.655 71.5143 178.869 71.2379 179.16C70.8024 179.619 70.6629 180.79 70.9424 181.641C71.1187 182.178 71.3987 182.411 72.9051 183.275C73.7147 183.74 73.7022 183.723 73.7022 184.354C73.7022 184.94 73.6572 185.016 73.3128 185.016C72.991 185.016 72.9362 184.903 72.9107 184.187L72.8886 183.57H71.8814H70.8742L70.8997 184.228C70.941 185.297 71.1246 185.657 71.8134 186.018C72.2792 186.263 72.7327 186.358 73.4438 186.358C74.8722 186.358 75.614 185.865 75.7975 184.795C75.8658 184.396 75.8372 183.433 75.7487 183.15C75.5968 182.664 75.1705 182.297 74.1639 181.785C73.7366 181.568 73.3522 181.331 73.1926 181.186L72.9285 180.947L72.9096 180.53C72.8918 180.14 72.899 180.106 73.0228 179.982C73.1813 179.823 73.3802 179.812 73.5213 179.953C73.6109 180.042 73.6247 180.125 73.6247 180.573V181.09H74.665H75.7053L75.6807 180.453C75.6585 179.875 75.6426 179.791 75.5086 179.545C75.2624 179.093 74.8471 178.805 74.1985 178.637C73.8175 178.538 72.983 178.495 72.6172 178.554ZM137.226 181.167V183.053H136.703C136.227 183.053 136.184 183.045 136.216 182.962C136.235 182.913 136.284 182.733 136.323 182.562C136.398 182.242 137.102 179.533 137.153 179.372C137.168 179.322 137.191 179.281 137.203 179.281C137.216 179.281 137.226 180.13 137.226 181.167ZM80.2097 184.41C80.1954 184.447 80.1901 184.872 80.1979 185.354L80.2121 186.23H81.0646H81.9171V185.3V184.37L81.0764 184.356C80.4202 184.345 80.23 184.357 80.2097 184.41Z" fill="white"/>
</svg>
