<svg width="3872" height="3662" viewBox="0 0 3872 3662" fill="none" xmlns="http://www.w3.org/2000/svg">
<path fill-rule="evenodd" clip-rule="evenodd" d="M536.289 1.96701C527.967 7.04101 522.63 20.553 520.855 41.04C519.009 62.349 521.931 79.895 529.703 94.175C533.525 101.197 544.839 113.111 554.509 120.296C558.909 123.565 571.284 131.446 582.009 137.81C592.734 144.173 603.759 150.933 606.509 152.833C627.463 167.308 636.195 179.128 639.15 197.018C640.076 202.63 639.975 205.527 638.569 213.655C634.135 239.279 634.018 245.618 637.509 270.996C640.322 291.449 640.647 301.556 638.643 306.278C637.892 308.048 632.969 314.607 627.704 320.853C622.438 327.1 617.714 333.402 617.207 334.859C615.058 341.023 619.466 344.456 630.509 345.217C635.304 345.548 639.103 346.51 642.571 348.27C648.924 351.494 658.196 361.326 663.831 370.812C668.458 378.602 673.868 383.36 679.92 384.962C681.894 385.485 689.134 386.657 696.009 387.567C711.166 389.574 717.634 391.846 722.517 396.878C725.702 400.159 751.705 446.287 759.508 462.496C764.414 472.688 765.008 477.429 765.019 506.456C765.024 521.328 765.494 539.982 766.062 547.909C767.342 565.759 766.065 586.32 762.001 613.295C759.677 628.721 757.917 636.33 753.049 651.996C742.468 686.044 735.816 709.264 734.426 716.996C733.685 721.121 733.063 730.162 733.044 737.086C733.003 751.682 734.977 761.139 740.49 772.777C745.199 782.715 750.796 789.679 763.761 801.727C773.573 810.846 775.626 812.276 782.64 814.883C795.974 819.84 805.486 824.21 833.887 838.426C848.945 845.964 863.875 852.943 867.066 853.937C873.205 855.847 875.525 857.364 902.671 877.207C912.11 884.107 926.506 893.97 934.664 899.124C967.532 919.894 981.626 931.371 1013.01 962.925C1046.38 996.473 1054.38 1003.09 1075.39 1014.49C1080.87 1017.46 1084.88 1020.36 1085.85 1022.04C1086.72 1023.55 1089.69 1025.91 1092.47 1027.29C1095.24 1028.67 1099.61 1031.32 1102.18 1033.17L1106.86 1036.54L659.468 1484.02C413.404 1730.13 211.337 1932.57 210.431 1933.88L208.784 1936.27L536.146 2263.74L863.509 2591.22L858.009 2590.63C829.361 2587.56 808.663 2586.58 771.509 2586.54C724.032 2586.49 703.718 2587.92 671.969 2593.55C638.95 2599.41 610.432 2609.58 586.057 2624.19C555.051 2642.77 537.292 2664.13 529.81 2691.85C527.756 2699.46 527.747 2700.39 527.972 2882.5C528.096 2983.15 528.315 3065.62 528.459 3065.77C528.814 3066.14 554.547 3055 576.509 3044.97C614.748 3027.51 628.607 3022.61 658.009 3016.14C693.295 3008.37 729.152 3005.43 778.009 3006.31C863.435 3007.85 944.676 3019.68 1061.01 3047.53C1083.34 3052.88 1121.49 3062.47 1182.01 3077.96C1218.14 3087.21 1323.17 3113.33 1342.51 3117.88C1354.82 3120.77 1380.29 3126.68 1397.22 3130.57L1404.94 3132.35L1642.89 3370.42C1773.76 3501.36 1892.81 3620.42 1907.44 3634.98L1934.03 3661.47L2199.27 3396.39L2464.51 3131.32L2472.51 3129.57C2489.87 3125.78 2663.28 3084.66 2683.51 3079.53C2684.61 3079.25 2691.36 3077.65 2698.51 3075.98C2705.66 3074.3 2716.01 3071.83 2721.51 3070.48C2754.7 3062.34 2811.66 3049.13 2868.01 3036.5C2941.41 3020.05 2966.64 3015.15 3001.51 3010.53C3058.01 3003.05 3122.12 3003.07 3173.01 3010.57C3213.99 3016.6 3231.12 3021.54 3297.01 3046.3C3316.78 3053.73 3339.02 3061.32 3339.52 3060.82C3339.75 3060.59 3339.98 2979.65 3340.04 2880.95C3340.12 2753.51 3339.83 2700.05 3339.05 2696.5C3334.5 2675.87 3325.56 2660.33 3309.41 2644.98C3287.22 2623.89 3253.98 2607.12 3215.51 2597.61C3200.78 2593.96 3177.57 2590.28 3156.82 2588.29C3121.92 2584.95 3034.61 2586.33 3008.01 2590.64C3004.92 2591.14 3043.28 2552.42 3332.01 2263.6L3659.51 1936L3048.1 1324.59L2436.7 713.184L2454.56 693.935C2464.39 683.348 2476.05 671.574 2480.47 667.771C2490.68 658.987 2512.1 644.668 2532.01 633.317C2547.04 624.747 2554.48 621.389 2585.01 609.386C2596.32 604.937 2601.52 602.237 2608.68 597.091C2653.23 565.044 2659.04 560.031 2669.35 544.69C2674.7 536.725 2685.16 516.101 2688.13 507.659C2688.87 505.548 2691.96 500.907 2694.99 497.344C2706.58 483.733 2709.01 480.426 2709.01 478.221C2709.01 474.533 2705.1 473.713 2690.51 474.342C2676.45 474.949 2667.19 476.383 2651.35 480.406C2645.76 481.825 2631.13 484.797 2618.85 487.009C2580.14 493.978 2566.04 497.013 2547.01 502.469C2536.83 505.387 2521.76 509.193 2513.51 510.928C2488.05 516.282 2463.25 523.488 2441.01 531.987C2395.89 549.234 2385.54 557.484 2364.39 593.092C2357.72 604.314 2351.2 615.405 2349.89 617.738C2348.58 620.072 2347.06 621.984 2346.51 621.988C2345.96 621.993 2252.81 529.3 2139.51 416.004L1933.51 210.013L1880.01 263.301C1850.58 292.61 1777.01 365.597 1716.51 425.494C1656.01 485.392 1586.61 554.199 1562.29 578.398C1537.97 602.598 1517.87 622.194 1517.63 621.946C1517.17 621.495 1504.27 598.859 1496.75 585.324C1494.56 581.38 1488.29 572.399 1482.83 565.367C1477.37 558.334 1471.37 550.051 1469.49 546.96C1465.84 540.953 1463.01 531.814 1463.01 526.033C1463.01 516.899 1469.15 502.419 1483.82 476.95C1494.5 458.42 1495.89 455.252 1500.57 438.996C1504.99 423.65 1507.77 417.907 1513.82 411.658C1520.2 405.075 1524.59 402.168 1542.31 392.786C1567.24 379.585 1583.51 367.691 1602.09 349.087C1628.82 322.318 1640.29 297.532 1634.64 278.752C1632.68 272.27 1624.03 260.215 1615.5 252.119C1602.23 239.515 1585.07 229.466 1563.95 221.931C1550.99 217.308 1536.9 214.552 1515.66 212.485C1490.11 209.999 1473.11 205.928 1463.51 199.996C1456.42 195.612 1446.79 192.776 1439.01 192.776C1430.67 192.776 1424.43 194.74 1410.44 201.777C1396.26 208.908 1392.94 209.552 1373.01 209.034C1325.29 207.793 1322.28 208.088 1285.01 217.66C1261.32 223.743 1246.17 227.365 1235.51 229.496C1199.68 236.656 1175.29 243.382 1159.7 250.405C1150.46 254.57 1138.88 261.419 1119.01 274.476C1086.91 295.58 1084.41 296.693 1071.37 295.707C1062.51 295.037 1057.58 292.772 1025.5 274.617C1001.11 260.816 991.771 254.848 967.928 237.831C958.347 230.994 946.321 222.778 941.203 219.573C924.075 208.849 916.159 199.793 899.426 171.78C894.076 162.824 887.535 152.278 884.891 148.345C870.773 127.352 852.831 112.515 834.509 106.685C824.341 103.449 813.454 102.666 787.786 103.325C759.442 104.053 752.4 103.256 735.009 97.352C720.561 92.447 704.499 84.061 680.164 68.716C634.267 39.774 624.279 33.644 610.202 25.781C583.147 10.668 556.324 -0.00699656 545.421 3.44059e-06C541.311 0.00200344 538.528 0.602006 536.289 1.96701ZM569.307 26.283C572.718 28.137 589.865 37.605 607.411 47.325C624.957 57.044 639.594 64.996 639.938 64.996C640.282 64.996 643.026 66.847 646.036 69.11C651.988 73.583 661.215 78.445 677.217 85.54C686.864 89.817 695.727 95.378 719.326 111.962C734.545 122.657 752.979 132.666 780.509 145.182C787.659 148.432 798.684 154.087 805.009 157.748C822.803 168.046 912.619 224.255 930.154 236.066C933.259 238.157 939.462 241.71 943.94 243.961C954.793 249.418 954.865 249.642 951.504 267.486C950.053 275.192 947.75 287.571 946.386 294.996C943.151 312.616 939.794 326.996 938.917 326.996C936.921 326.996 863.516 286.941 844.009 275.208C837.134 271.073 822.284 261.766 811.009 254.526C783.212 236.678 778.036 233.606 759.509 223.965C750.709 219.386 738.365 212.533 732.079 208.736C725.792 204.939 716.792 199.78 712.079 197.273C690.79 185.948 659.559 165.785 622.009 139.123C604.476 126.675 592.291 118.833 583.009 114.027C568.365 106.444 561.243 101.181 554.358 92.855C541.707 77.556 538.983 66.018 542.505 42.65C544.118 31.95 546.856 25.736 550.995 23.384C554.809 21.216 562.108 22.371 569.307 26.283ZM1445.14 217.576C1450.59 220.365 1449.5 225.537 1441.7 233.959C1436.34 239.756 1431.12 247.954 1425.45 259.496C1422.71 265.095 1422.51 266.264 1422.53 276.996C1422.56 290.278 1424.25 295.835 1431.43 306.331C1437.87 315.745 1443.71 319.885 1459.09 325.969C1478.85 333.779 1487.6 338.439 1493.08 344.066C1509.15 360.565 1508.51 388.783 1491.73 403.461C1484.91 409.427 1478.88 411.389 1467.51 411.347C1460 411.318 1457.02 410.785 1449.51 408.131C1443.47 405.994 1436.28 404.433 1427.63 403.377C1411.92 401.459 1407.12 400.034 1371.01 386.566C1327.14 370.205 1330.55 371.031 1304.11 370.364L1281.51 369.794L1273.93 365.933C1263.7 360.723 1250.17 356.311 1235.6 353.431C1220.7 350.487 1215.63 350.417 1208.57 353.059C1195.41 357.982 1189.74 374.931 1198.08 384.428C1201.51 388.328 1210.61 392.613 1218.68 394.127C1226.66 395.625 1244.83 394.611 1254.01 392.156L1261.51 390.151L1279.01 393.042C1288.63 394.633 1304.89 397.304 1315.14 398.978C1335.58 402.318 1341.08 403.907 1353.31 410.02C1367.08 416.899 1373.48 421.009 1375.88 424.519C1380.24 430.868 1379.88 433.286 1370.66 460.392C1365.99 474.086 1361.32 486.461 1360.27 487.892C1355.66 494.19 1345.98 495.571 1337.33 491.162C1332 488.44 1331.01 485.704 1331.01 473.667C1331.01 461.196 1329.4 454.544 1325.07 449.075C1317.33 439.302 1303.88 437.531 1294.72 445.08C1285.1 453.012 1281.66 476.26 1289.36 481.307C1290.64 482.147 1295.78 483.541 1300.78 484.403C1319.26 487.592 1327.01 492.367 1327.01 500.564C1327.01 513.162 1315.67 527.238 1303.26 530.049C1295.56 531.793 1287.35 526.477 1285.07 518.273C1284.49 516.196 1284.02 509.726 1284.02 503.895C1284.01 490.913 1282.9 487.267 1278.41 485.388C1276.57 484.623 1274.02 483.996 1272.73 483.996C1268.4 483.996 1254.57 479.932 1247.32 476.527C1232.36 469.501 1220.56 459.524 1201.17 437.496C1195.36 430.896 1186.62 421.325 1181.75 416.228C1169.03 402.931 1167.01 398.239 1165.98 379.69C1165.12 364.26 1163.39 357.91 1158.25 351.383C1151.69 343.06 1136.97 336.479 1126.58 337.224C1121.09 337.618 1120.37 337.963 1116.91 341.86C1112.56 346.754 1110.01 353.447 1110.01 359.924C1110.01 369.131 1118.52 381.625 1128.15 386.547C1137.21 391.183 1167.38 418.013 1172.08 425.607C1177.64 434.614 1168.95 432.546 1137.01 417.266C1130.13 413.977 1122.93 410.793 1121.01 410.189C1103.58 404.722 1091.45 400.231 1080.01 395.009C1065.47 388.371 1040.61 378.598 1021.83 372.14C1015.41 369.931 1008.89 367.46 1007.33 366.649C1003.55 364.672 999.397 360.17 997.974 356.496C995.841 350.991 997.056 331.862 1000.51 316.496C1001.26 313.196 1002.36 305.321 1002.97 298.996C1004.8 279.969 1004.79 279.996 1007.85 279.997C1014.53 279.999 1066.88 310.623 1090.26 328.207C1094.52 331.414 1098.01 333.887 1098.01 333.704C1098.01 333.521 1097.11 331.509 1096.01 329.232C1094.91 326.955 1094.01 323.112 1094.01 320.69C1094.01 315.343 1096.47 312.316 1103.87 308.566C1106.68 307.144 1112.92 302.964 1117.74 299.277C1146.03 277.648 1144.62 278.491 1172.02 266.736C1202.64 253.594 1204.85 252.977 1225.01 251.951C1244.8 250.944 1248.69 250.153 1271.91 242.419C1301.74 232.48 1305.63 231.962 1350.95 231.901C1396.71 231.84 1397.18 231.753 1418.25 219.574C1426.05 215.067 1438.44 214.147 1445.14 217.576ZM1518.19 233.129C1525.35 234.663 1530.02 239.223 1529.99 244.646C1529.96 249.67 1527.36 255.198 1521.83 261.996C1515.26 270.082 1506.62 282.753 1503.63 288.709C1497.76 300.402 1490.53 305.117 1477.41 305.806C1468.1 306.294 1464.41 305.03 1458.57 299.353C1449.54 290.591 1447.65 280.43 1452.77 268.245C1457.21 257.688 1472.02 238.297 1478.36 234.758C1482.91 232.219 1508.98 231.152 1518.19 233.129ZM2131.26 453.745C2239.47 561.957 2328.01 651.123 2328.01 651.892C2328.01 652.661 2326.53 655.136 2324.73 657.393C2322.92 659.65 2319.94 664.518 2318.09 668.212C2311.37 681.696 2299.8 693.126 2285.13 700.778C2280.94 702.964 2274.36 706.564 2270.51 708.777C2266.66 710.99 2259.23 714.307 2254.01 716.148C2244.66 719.443 2244.25 719.495 2228.01 719.425C2209.76 719.346 2204.54 718.348 2187.45 711.666C2158.81 700.479 2140.73 707.826 2125.62 736.777C2117.71 751.942 2114.14 755.774 2102.75 761.347C2077.92 773.488 2051.11 779.663 2027.24 778.738C2015.78 778.293 2013.01 777.791 1999.51 773.701C1980.79 768.031 1975.09 766.988 1963.07 767.027C1950.82 767.066 1941 768.356 1928.62 771.552C1913.74 775.39 1903.42 779.804 1870.51 796.398C1854.01 804.719 1835.56 813.49 1829.51 815.889C1823.46 818.288 1805.68 826.456 1790.01 834.039C1754.29 851.32 1742.22 856.295 1721.01 862.488C1706.67 866.675 1687.66 876.544 1684.42 881.485C1680.59 887.333 1684.91 890.655 1699.39 892.99C1707.71 894.333 1715.7 898.243 1730.91 908.42C1745.75 918.35 1753.38 921.845 1771.01 926.784C1790.83 932.338 1797.57 933.718 1811.52 935.087C1825.82 936.489 1841.02 935.782 1854.01 933.107C1859.23 932.032 1867.2 930.649 1871.7 930.034C1890.96 927.407 1910 917.805 1939.01 896.096C1950.99 887.128 1960.96 882.494 1971.47 881.002C1982.72 879.405 1991.92 880.678 2010.29 886.369C2043.96 896.804 2073.53 900.733 2098.51 898.091C2113.86 896.467 2124.42 893.676 2139.51 887.252C2156.38 880.071 2180.93 871.31 2188.15 869.888C2197.04 868.139 2207.84 869.029 2211.79 871.837C2218.53 876.641 2220.84 886.401 2217.14 894.496C2216.13 896.696 2211.04 905.021 2205.82 912.996C2185.57 943.962 2184.01 946.882 2184.01 953.817C2184.01 962.005 2188.25 965.227 2204.62 969.467C2210.06 970.875 2218.73 973.143 2223.89 974.507C2255.34 982.822 2286.97 979.125 2326.12 962.557C2334.41 959.048 2335.28 958.355 2349.69 943.705C2369.93 923.128 2376.09 914.395 2382.92 896.589C2384.59 892.241 2386.82 887.741 2387.89 886.589C2394.42 879.521 2397.01 867.701 2395.18 853.256C2392.3 830.43 2385.57 827.341 2358.29 836.334C2341.87 841.748 2336.97 842.124 2329.32 838.562C2316.11 832.409 2314.27 815.271 2325.84 806.144C2327.86 804.551 2333.58 801.209 2338.55 798.716C2343.53 796.223 2349.55 792.55 2351.94 790.553C2354.33 788.556 2360.61 784.358 2365.9 781.224C2372.33 777.412 2378.79 772.377 2385.44 766.011C2399.31 752.713 2401.71 750.327 2408.42 743.142L2414.33 736.811L2941.73 1264.65C3231.8 1554.97 3501.39 1824.78 3540.82 1864.25L3612.51 1936L3281.19 2267.31L2949.88 2598.63L2938.69 2600.4C2908.82 2605.12 2825.79 2622.98 2775.51 2635.51C2770.46 2636.76 2734.13 2645.43 2696.01 2654.47C2690.78 2655.71 2655.23 2664.24 2617.01 2673.42C2578.78 2682.61 2541.88 2691.41 2535.01 2692.99C2528.13 2694.57 2507.88 2699.23 2490.01 2703.35C2389.54 2726.52 2301.53 2744.71 2247.51 2753.47C2036.72 2787.66 1830.97 2787.51 1623.01 2753.02C1592.29 2747.92 1527.22 2735.48 1492.01 2727.97C1455.26 2720.13 1443.46 2717.59 1431.51 2714.98C1410.19 2710.31 1369.98 2701.28 1363.01 2699.58C1359.43 2698.71 1347.51 2695.95 1336.51 2693.45C1318.79 2689.41 1275.89 2679.35 1253.51 2673.98C1240.91 2670.96 1152.03 2649.94 1114.01 2640.99C1095.03 2636.52 1071.86 2631.06 1062.51 2628.85C1016.52 2618 947.509 2603.55 924.642 2599.99L917.775 2598.92L586.302 2267.3L254.829 1935.68L692.828 1497.68L1130.83 1059.68L1133.94 1060.97C1138.87 1063.01 1145.49 1071.2 1148.98 1079.58C1153.47 1090.36 1158.13 1098.52 1168.91 1114.5C1179.23 1129.78 1182.01 1135.71 1182.01 1142.4C1182.01 1152.06 1174.98 1167.39 1163.64 1182.45C1156.34 1192.15 1152.62 1199.04 1149.84 1208C1147.85 1214.39 1147.52 1217.56 1147.56 1229.5C1147.63 1246.8 1150.06 1256.75 1158.92 1275.89C1170.49 1300.89 1177.54 1319.54 1180.51 1333C1182.74 1343.12 1183.58 1370.82 1182.09 1385.11C1180.73 1398.11 1172.97 1454.57 1170 1473.17C1168.88 1480.14 1167.52 1491.73 1166.98 1498.94C1166.43 1506.15 1164.65 1520.24 1163.03 1530.27C1157.84 1562.34 1156.97 1571.95 1156.99 1597C1157.01 1620.85 1157.94 1635.27 1160.52 1651.5C1161.31 1656.45 1162.63 1667.25 1163.45 1675.5C1166.1 1702.13 1169.88 1724.36 1177.4 1757.5C1178.77 1763.55 1181.74 1776.6 1183.99 1786.5C1197.81 1847.34 1199.03 1865.11 1190.55 1882.5C1183.59 1896.79 1180.13 1896.62 1138.53 1880.06C1110.07 1868.72 1102.8 1866.57 1093.01 1866.54C1085.47 1866.53 1083.91 1866.86 1079.19 1869.46C1065.98 1876.74 1060.77 1889.21 1060.75 1913.6C1060.73 1937.8 1064.35 1945.28 1081.67 1956.84C1090.11 1962.47 1125.72 1988.59 1135.41 1996.25C1139.75 1999.68 1154.3 2013.52 1167.73 2027L1192.17 2051.5L1202.69 2073C1208.48 2084.82 1214.74 2097.71 1216.61 2101.64C1221.23 2111.37 1227.67 2119.66 1234.67 2124.88C1242.4 2130.65 1247.34 2132.7 1260.51 2135.62C1284.64 2140.96 1297.71 2144.26 1301.78 2146.04C1304.12 2147.06 1314.75 2152.85 1325.4 2158.91C1388.19 2194.62 1424.98 2213.02 1471.64 2232.05C1492.13 2240.41 1509.27 2248.65 1534.16 2262.11C1553.57 2272.61 1570.85 2280.82 1585.29 2286.4C1598.37 2291.45 1603.55 2294.61 1609.71 2301.29C1614.95 2306.97 1617.21 2311.43 1619.95 2321.5C1621.15 2325.9 1624.84 2335.22 1628.15 2342.21C1635.31 2357.32 1636.98 2363.09 1637 2372.66C1637.01 2382.07 1635.18 2391.25 1629.62 2409.5C1623.38 2430 1622.08 2439.2 1621.01 2470C1620.51 2484.57 1619.79 2503.33 1619.4 2511.67C1618.71 2526.76 1618.72 2526.88 1621.38 2532.32C1624.41 2538.52 1629.47 2542.83 1643.11 2550.85C1652.84 2556.56 1657.37 2561.13 1659.12 2566.98C1660.55 2571.75 1659.38 2576.77 1655.6 2582.09C1654.26 2583.96 1648.85 2591.83 1643.57 2599.57C1632.03 2616.48 1625.69 2623.78 1618.03 2628.99C1610.13 2634.35 1607.37 2637.94 1605.97 2644.67C1604.79 2650.39 1605.58 2659.38 1608.14 2669.3C1609.61 2675.02 1615.26 2680.7 1621.26 2682.48C1630.09 2685.1 1655.97 2685.99 1716.01 2685.74C1783.72 2685.46 1777.65 2686.42 1789.18 2674.2C1804.86 2657.57 1808.55 2648.85 1812.93 2617.96C1815.96 2596.63 1820.23 2581.72 1824.74 2576.74C1825.65 2575.74 1829.24 2573.56 1832.72 2571.9C1841.41 2567.75 1847.97 2560.88 1858.42 2545C1871.09 2525.72 1875.9 2520.02 1884.38 2514.15C1893.23 2508.03 1894.01 2506.36 1894.01 2493.42C1894.01 2474.27 1890.06 2454.26 1880.82 2426.53C1870.78 2396.42 1868.91 2386.94 1868.29 2362.98C1867.74 2341.65 1868.8 2331.11 1873.57 2310.5C1882.03 2273.96 1884.6 2258.87 1892.12 2201.5C1895.13 2178.54 1895.42 2142.76 1892.7 2130C1888.26 2109.17 1881.1 2092.73 1861.6 2058.61C1849.58 2037.58 1846.1 2030.07 1843.13 2018.72C1838.76 2002.01 1837.81 1971.01 1841.42 1962.5C1842.35 1960.3 1845.59 1954.81 1848.62 1950.3C1857.77 1936.67 1860.44 1925.5 1857.67 1912.38C1855.72 1903.1 1851.53 1895.14 1844.06 1886.5C1837.38 1878.76 1830.92 1867.15 1829.09 1859.57C1827.66 1853.69 1827.61 1841.54 1828.93 1822.5C1831.24 1789.03 1831.27 1769.61 1829.04 1740C1825.77 1696.52 1825.2 1672.68 1826.23 1622.5C1827.93 1539.79 1826.45 1480.3 1821.52 1433.5C1816.99 1390.54 1816.79 1385.47 1815.99 1292.5C1815.18 1197.51 1814.7 1186.11 1810.4 1160C1807.36 1141.55 1803.75 1130.31 1798.07 1121.58C1794.89 1116.71 1793.66 1113.63 1792.97 1108.83C1791.57 1098.97 1789.48 1093.15 1782.99 1080.87C1779.68 1074.61 1772.25 1059.87 1766.47 1048.1C1760.7 1036.33 1753.12 1021.71 1749.63 1015.6C1746.15 1009.49 1740.24 998.646 1736.5 991.496C1727.82 974.884 1726.07 972.136 1718.32 962.806C1710.82 953.775 1704.21 947.652 1696.26 942.377C1690.94 938.841 1686.84 936.928 1668.68 929.498C1659.48 925.732 1652.17 918.966 1648.52 910.839C1644.15 901.104 1644.12 897.465 1648.33 888.817C1653.3 878.619 1654.41 871.665 1653.69 855.204C1652.72 833.025 1649.93 823.849 1637.21 801.038C1633.08 793.636 1628.62 785.212 1627.3 782.317C1624.11 775.341 1611.47 734.821 1609.02 723.713C1604.75 704.318 1595.22 692.945 1575.19 683.33C1555.86 674.05 1546.96 667.375 1539.54 656.612L1535.93 651.356L1595.22 592.426C1652.12 535.867 1701.6 486.792 1822.01 367.49C1852.54 337.243 1890.12 300.011 1905.51 284.751C1920.91 269.491 1933.73 257.003 1934.01 257.001C1934.28 256.998 2023.05 345.533 2131.26 453.745ZM1042.54 407.491C1046.37 409.412 1052.21 412.712 1055.51 414.824C1067.56 422.536 1080.8 426.388 1108.01 430.102C1152.34 436.152 1170.6 446.941 1180.62 472.996L1183.51 480.496L1183.52 514.996C1183.52 533.971 1183.9 553.096 1184.37 557.496C1185.41 567.248 1184.19 572.581 1179.78 577.605C1169.04 589.84 1140.86 584.887 1133.89 569.537C1129.89 560.741 1132.02 553.491 1142.66 539.622C1154.31 524.439 1155.51 521.615 1155.51 509.455C1155.51 499.543 1155.42 499.165 1151.19 490.635C1147.95 484.096 1145.09 480.135 1139.69 474.713C1131.97 466.952 1114.77 454.216 1114.22 455.851C1114.04 456.399 1114.89 458.793 1116.1 461.171C1119.84 468.507 1123.92 481.849 1125.08 490.569C1126.38 500.385 1125.34 509.027 1121.89 517.054C1119.13 523.469 1101.18 547.674 1100.56 545.809C1098.82 540.518 1090.66 513.902 1088.67 506.996C1084.78 493.499 1080.45 478.165 1078.08 469.496C1073.64 453.305 1068.86 445.996 1062.71 445.996C1057.38 445.996 1055.5 448.847 1055.55 456.851C1055.59 462.408 1060.88 509.642 1062.57 519.496C1062.88 521.312 1061.67 519.554 1059.51 515.045C1055.36 506.365 1045 490.515 1039.14 483.872C1036.9 481.329 1033.46 478.49 1031.51 477.563C1028.32 476.05 1027.65 476.029 1024.98 477.36C1022.09 478.803 1021.99 478.771 1021.35 476.169C1020.98 474.699 1019.41 470.483 1017.85 466.801C1016.29 463.118 1015.01 458.975 1015.01 457.594C1015.01 456.212 1017.03 451.242 1019.51 446.55L1024.01 438.018V427.556C1024.01 404.24 1027.82 400.113 1042.54 407.491ZM1415.27 444.917C1417.1 446.524 1419.68 450.16 1421.01 452.998L1423.43 458.157L1421.68 466.639C1420.72 471.304 1416.78 484.83 1412.92 496.698C1409.06 508.565 1406.05 519.225 1406.22 520.385C1406.59 522.923 1408.42 519.945 1427.96 484.996C1442.77 458.504 1445.94 453.208 1448.49 450.656C1449.7 449.448 1451.93 448.996 1456.68 448.996C1462.77 448.996 1463.44 449.224 1466.61 452.396C1469.28 455.064 1470.01 456.61 1470.01 459.578C1470.01 465.247 1466.23 478.477 1462.04 487.496C1455.86 500.76 1450.51 506.811 1433.61 519.61C1425.3 525.898 1413.71 534.745 1407.84 539.269C1396.63 547.911 1388.34 553.289 1383.31 555.188C1372.55 559.25 1375.65 546.315 1391.84 519.642L1398.89 508.011L1394.43 494.313L1389.97 480.616L1393.62 469.556C1398.25 455.497 1403.24 444.536 1405.64 443.143C1408.79 441.311 1411.79 441.863 1415.27 444.917ZM786.25 488.587C791.342 490.562 799.404 493.446 804.164 494.994C817.241 499.249 827.608 504.493 848.509 517.424C891.994 544.329 921.385 554.562 943.804 550.606C952.765 549.025 962.037 545.158 969.079 540.066C971.515 538.304 978.684 532.257 985.009 526.628C1004.38 509.394 1011.96 502.996 1013 502.996C1013.56 502.996 1014.01 505.563 1014.01 508.746C1014.02 515.93 1015.45 518.38 1026.23 529.602C1043.37 547.457 1075.49 570.692 1088.24 574.456C1091.97 575.557 1092.52 576.15 1093.99 580.659C1098.9 595.729 1109.62 604.476 1136.68 615.485C1150.34 621.04 1154.68 626.408 1152.02 634.45C1149.86 640.998 1134.93 652.307 1123.24 656.255C1111.45 660.233 1100.29 654.795 1077.59 634.025C1068.08 625.324 1063.5 622.49 1055.51 620.355C1043.75 617.213 1034.46 619.06 1018.68 627.675C993.998 641.156 979.773 647.706 956.359 656.373C942.437 661.526 932.395 666.305 924.547 671.515C914.835 677.961 895.969 699.662 885.567 716.351C876.755 730.489 873.978 744.019 875.695 764.445C876.678 776.14 877.001 777.455 880.077 782.283C885.457 790.729 887.855 796.238 893.586 813.317C899.73 831.626 900.262 836.428 896.615 840.668C893.003 844.867 888.73 844.343 874.509 837.961C857.634 830.388 808.19 805.336 797.97 799.18C772.698 783.959 759.259 767.287 754.403 745.134C749.15 721.173 753.264 684.707 764.777 653.172C771.172 635.658 773.645 631.76 807.983 585.068C822.915 564.765 835.143 541.707 832.411 539.009C829.876 536.507 812.768 529.152 799.373 524.804C791.048 522.103 782.19 518.594 779.687 517.007C773.988 513.393 773.022 510.315 773.015 495.746C773.008 482.928 772.445 483.233 786.25 488.587ZM1222.81 499.407C1224.29 500.183 1227.27 503.137 1229.42 505.972C1232.09 509.505 1235.12 512.032 1239.03 514.008C1246.21 517.633 1249.69 521.701 1250.56 527.488C1252.11 537.801 1251.3 538.653 1223.82 555.746C1214.15 561.765 1211.01 559.477 1211.01 546.399C1211.01 541.709 1210.37 536.442 1209.51 533.996C1206.62 525.802 1208.31 508.695 1212.61 502.549C1213.96 500.628 1217.7 498.103 1219.31 498.031C1219.75 498.012 1221.32 498.631 1222.81 499.407ZM1305.91 563.131C1313.7 565.147 1320.14 567.583 1325.51 570.549C1351.54 584.918 1360.8 587.996 1378.01 587.996C1395.7 587.996 1410.94 582.941 1425.99 572.073C1435.75 565.034 1445.39 559.996 1449.11 559.996C1457.34 559.996 1461.72 564.436 1471.42 582.578C1476.79 592.636 1486.07 607.96 1504.72 637.58C1510.63 646.971 1515.41 654.823 1519.57 661.996C1526.14 673.295 1538.84 686.098 1548.8 691.458C1556.7 695.705 1563.03 701.766 1567.45 709.304C1569.84 713.379 1570.18 714.886 1569.8 719.549C1569.44 723.868 1568.67 725.801 1566.15 728.756C1554.64 742.226 1552.09 749.546 1550.95 772.496C1550.01 791.5 1548.92 798.101 1542.58 823.126C1539.43 835.539 1537.9 844.063 1537.2 852.996C1536.12 866.803 1534.78 871.688 1528.86 883.426C1520.6 899.8 1516.4 903.919 1507.22 904.644C1500.54 905.172 1496.98 903.687 1495.61 899.807C1494.89 897.747 1495.41 894.982 1497.95 887.328C1502.28 874.304 1503.15 862.082 1500.09 857.237C1495.53 850.02 1488.58 848.635 1468.98 851.033C1457.84 852.395 1451.52 855.517 1444.76 862.982C1432.61 876.411 1426.07 892.769 1421.07 922.243C1419.33 932.555 1417.33 943.171 1416.64 945.836C1414.81 952.913 1410.48 959.657 1405.78 962.768C1402.2 965.136 1400.65 965.496 1394.08 965.496C1386.91 965.496 1385.8 965.168 1372.96 959.254C1351.09 949.173 1343.14 948.788 1335.18 957.423C1329.22 963.896 1322.06 984.519 1319.48 1002.68C1317.03 1019.89 1312.31 1029.13 1301.29 1038.24C1290.72 1046.99 1281.01 1049.8 1272.53 1046.56C1266.27 1044.17 1260.54 1037.36 1257.84 1029.1C1255.85 1023.02 1255.62 1019.6 1254.98 985.996C1254.25 947.88 1254.16 947.025 1249.16 933.662C1243.89 919.583 1236.38 907.342 1222.15 889.623C1200.79 863.032 1193.94 852.915 1161.83 800.496C1137.56 760.88 1133.81 753.64 1131.94 742.695C1130.26 732.8 1131.54 726.159 1139.36 704.316C1154.17 662.941 1161.41 649.88 1181.65 628.02C1188.56 620.555 1189.9 619.831 1203.97 616.007C1225.04 610.277 1238.42 601.836 1249.69 587.152C1257.61 576.836 1268.21 565.698 1272.87 562.793C1280.14 558.257 1287.35 558.33 1305.91 563.131ZM1055.1 646.276C1059.06 648.944 1060.97 652.287 1060.99 656.552C1061.02 660.918 1057.53 670.62 1053.75 676.738C1051.97 679.621 1047.77 686.371 1044.42 691.738C1041.07 697.105 1036.8 704.142 1034.92 707.376C1029.9 716.035 1023.85 722.315 1014.67 728.397C1007.1 733.414 989.053 741.96 985.888 742.024C982.943 742.084 972.503 748.687 969.582 752.337C966.193 756.572 966.299 755.228 966.958 785.496C967.287 800.565 964.987 808.009 957.69 815.498C951.795 821.55 946.49 823.564 938.827 822.659C932.258 821.884 927.392 819.074 920.927 812.324C913.068 804.119 909.503 799.224 905.647 791.346C901.58 783.035 901.576 783.019 898.971 764.461C897.167 751.617 897.033 748.386 897.998 741.029C900.63 720.968 904.663 712.072 916.392 700.459C929.324 687.656 940.315 682.831 962.009 680.434C988.48 677.509 1002.93 671.91 1026.6 655.407C1036.86 648.251 1045.22 644.02 1049.11 644.006C1050.54 644 1053.24 645.022 1055.1 646.276ZM1612 788.496C1634.81 835.31 1634.18 833.264 1634.28 860.843C1634.36 879.896 1634.18 882.116 1631.96 889.496C1630.3 895.008 1629.55 899.984 1629.53 905.496C1629.51 912.767 1629.78 913.906 1632.54 917.996C1636.67 924.12 1654.99 938.82 1675.56 952.52C1693.18 964.26 1699.6 970.025 1706.68 980.496C1723.84 1005.89 1758.84 1075.52 1776.36 1119.15C1787.48 1146.84 1791.32 1163.07 1793 1189.5C1793.59 1198.85 1794.82 1212.12 1795.73 1219C1797.53 1232.65 1797.58 1236.19 1797.25 1326.37C1797.03 1385.01 1797.47 1397.69 1800.51 1422C1807.43 1477.19 1811.01 1526.33 1811.01 1566.26C1811.01 1589.5 1808.34 1647.72 1806.97 1654.5C1804.86 1664.89 1797.88 1672.49 1787.72 1675.47C1783.38 1676.74 1781.33 1678.25 1775.46 1684.49C1771.58 1688.62 1767.95 1692 1767.38 1692C1766.82 1692 1763.69 1689.91 1760.43 1687.36C1757.18 1684.8 1751.69 1681.38 1748.24 1679.75C1742.62 1677.1 1741.16 1676.82 1734.24 1677.16C1727.82 1677.47 1725.41 1678.11 1720.01 1680.94C1698.41 1692.26 1700.66 1691.5 1689.07 1691.49C1680.11 1691.49 1677.88 1691.15 1674.39 1689.28C1665.57 1684.58 1662.59 1677.79 1665.5 1669.03C1666.8 1665.11 1669.32 1661.69 1676.5 1654.1C1681.63 1648.69 1686.54 1642.87 1687.41 1641.18C1696.72 1623.19 1684.03 1601.8 1668.71 1609.63C1664.09 1612 1641.29 1631.95 1628.74 1644.63C1622.82 1650.6 1615.27 1659.1 1611.97 1663.5C1596.45 1684.16 1595.96 1693.88 1608.36 1735.8C1614.65 1757.09 1615.36 1765.45 1615.1 1815.5C1614.92 1852.05 1615.14 1860.76 1616.43 1866.94C1617.8 1873.52 1617.81 1874.65 1616.51 1876.64C1614.09 1880.33 1608.78 1884.09 1595.28 1891.66C1583.17 1898.46 1579.77 1901.09 1581.22 1902.54C1585.37 1906.69 1658.9 1908.2 1685.01 1904.67C1704.25 1902.07 1706.85 1901.07 1765.23 1874.05C1780.12 1867.16 1784.6 1865.55 1793.23 1864C1803.09 1862.22 1803.61 1862.21 1806.01 1863.92C1808.97 1866.02 1809.88 1872.48 1807.9 1877.26C1806.44 1880.78 1794.61 1890.45 1785.75 1895.38C1778.6 1899.35 1776.17 1900.33 1739.51 1914.08C1692.02 1931.88 1693.66 1931.57 1651.01 1931.08C1592.61 1930.4 1593.83 1930.37 1590.32 1932.27C1585.85 1934.68 1584.01 1937.74 1584.01 1942.77C1584.01 1949 1586.35 1952.82 1591.59 1955.13C1595.48 1956.86 1597.9 1957.06 1611.27 1956.81C1619.65 1956.64 1635.73 1956.91 1647.01 1957.39C1669.75 1958.37 1678.52 1957.64 1695.48 1953.36C1709.58 1949.81 1716.74 1946.9 1758.51 1927.74C1799.2 1909.08 1801.84 1907.99 1806.39 1908C1813.24 1908.01 1820 1915.13 1820.01 1922.35C1820.01 1927.75 1815.41 1932.2 1807.48 1934.46C1786.06 1940.57 1764.79 1949.09 1740.01 1961.49C1724.79 1969.11 1711.99 1973.32 1695.21 1976.21C1684.41 1978.07 1678.85 1978.39 1658.01 1978.35C1641.84 1978.31 1628.8 1977.73 1619.66 1976.64C1599.92 1974.29 1597.45 1974.4 1594.08 1977.77C1590.72 1981.13 1589.31 1988.35 1591.01 1993.5C1592.43 1997.81 1596.85 2001.59 1602.3 2003.15C1612.24 2006 1663.46 2002.91 1689.82 1997.87C1703.32 1995.29 1743.21 1980.99 1760.89 1972.4C1789.48 1958.49 1792.4 1957.77 1798.47 1963.1C1805.56 1969.32 1802.89 1973.77 1786.17 1983.69C1764.64 1996.44 1746.08 2003.49 1718.01 2009.56C1684.67 2016.77 1662.25 2019.83 1627.35 2021.9C1614.34 2022.67 1610.42 2023.26 1607.18 2024.91C1600.83 2028.15 1600.45 2032.61 1606 2039C1611.74 2045.61 1611.93 2049.44 1607.43 2068.75C1605.45 2077.3 1605.01 2082.06 1604.84 2097.25C1604.61 2117.67 1605.72 2123.91 1612.35 2139.5C1614.23 2143.9 1617.68 2152 1620.02 2157.5C1622.36 2163 1625.97 2174.25 1628.03 2182.5C1630.1 2190.75 1633.22 2202.67 1634.98 2209C1639.24 2224.35 1642.68 2238.49 1643.49 2244C1645.01 2254.34 1648.49 2264.19 1655.03 2276.72C1661.66 2289.42 1662.09 2290.66 1665.61 2307.72C1668.96 2323.93 1669.32 2327.3 1669.74 2346C1670.08 2360.85 1669.61 2375.3 1668.03 2398.5C1665.61 2434.06 1665.34 2457.5 1666.98 2490.95C1668.11 2514.18 1668.93 2522.03 1671.59 2535.28C1672.45 2539.56 1672.99 2543.55 1672.8 2544.14C1672.4 2545.32 1655.87 2537.06 1648.58 2532.04C1643.26 2528.38 1639.52 2522.47 1637.97 2515.27C1637.11 2511.24 1637.2 2507.4 1638.4 2497.8C1640.4 2481.68 1641.05 2470.8 1641.86 2439.95L1642.54 2414.4L1646.85 2407.25C1652.14 2398.5 1654.02 2392.55 1653.99 2384.59C1653.97 2378.51 1652.49 2373.51 1644.05 2351C1641.59 2344.45 1640.67 2339.97 1640.01 2331.5C1638.97 2317.95 1637.9 2314.67 1627.87 2294.15C1615.71 2269.28 1611.4 2254.82 1604.46 2215.5C1598.89 2183.93 1596.31 2174.54 1589.64 2161.58L1583.51 2149.67L1583.39 2134.56C1583.3 2123.13 1582.71 2116.66 1580.98 2108.06C1578.83 2097.43 1578.76 2095.92 1579.88 2085.09C1581.93 2065.15 1580.27 2058.72 1566.37 2032.73C1556.51 2014.31 1548.51 2001.57 1538.57 1988.48C1521.65 1966.18 1518.25 1959.66 1514.01 1941.48C1507.65 1914.24 1509.35 1893.51 1520.15 1866.24C1526.42 1850.41 1526.61 1845.75 1521.4 1834.97C1514.03 1819.71 1508.65 1804 1501.04 1775.5C1499.28 1768.9 1496.47 1759.22 1494.8 1754C1492 1745.21 1491.79 1743.48 1491.92 1731C1491.99 1723.57 1492.65 1708.27 1493.38 1697C1494.78 1675.13 1495.74 1671.36 1501.16 1666.31C1506.71 1661.15 1512.61 1660.82 1524.67 1665C1535.04 1668.59 1538.17 1668.71 1544.05 1665.75C1547.47 1664.02 1549.08 1662.34 1550.98 1658.51C1553.32 1653.78 1553.45 1652.62 1553.48 1635.51L1553.51 1617.5L1549.25 1609.25C1546.91 1604.71 1544.51 1598.77 1543.93 1596.05C1542.44 1589.1 1544.99 1583.82 1554.78 1573.59C1570.65 1557.01 1577.15 1543.49 1586.61 1507.5C1595.66 1473.06 1596.58 1466.04 1593.03 1458.24C1590.4 1452.44 1587 1449.53 1576.96 1444.48C1568.88 1440.42 1562.83 1435.27 1560.08 1430.12C1559.47 1428.99 1558.1 1423.89 1557.03 1418.78C1554.1 1404.87 1553.18 1402.26 1549.88 1398.5C1541.63 1389.1 1528.68 1396.14 1524.12 1412.5C1523.51 1414.7 1522.31 1425.95 1521.47 1437.5C1519.33 1466.94 1518.27 1472.71 1513.21 1482.59C1509.28 1490.25 1503.7 1493.1 1495.63 1491.58C1492.82 1491.06 1490.83 1489.36 1485.52 1482.93C1479.57 1475.74 1472.3 1469.34 1460.03 1460.5C1457.6 1458.75 1452.97 1453.25 1448.91 1447.28C1440.68 1435.19 1436.8 1431.87 1430.22 1431.26C1421.83 1430.49 1414.29 1437.31 1403.44 1455.5C1398.36 1464.01 1389.69 1475.51 1362.33 1510.03C1327.25 1554.3 1318.67 1566.52 1312.52 1581C1302.11 1605.5 1295.17 1616.3 1278.46 1633.96C1258.23 1655.35 1254.08 1663.96 1258.92 1674.61C1263.09 1683.79 1274.06 1687.57 1283.42 1683.04C1288.51 1680.57 1292.75 1675.8 1302.08 1662C1315.14 1642.7 1331.03 1629.11 1350.06 1620.97C1367.07 1613.7 1370.39 1611.01 1385.68 1592.05C1391.65 1584.64 1396.45 1577.29 1400.52 1569.33C1407.51 1555.64 1410.36 1553 1418.12 1553C1423.72 1553 1430.32 1555.73 1429.56 1557.73C1429.27 1558.47 1428.31 1561.59 1427.42 1564.66C1426.52 1567.74 1423.86 1573.95 1421.5 1578.46C1414.68 1591.49 1414.4 1604.5 1420.78 1611.25C1423.89 1614.53 1425.43 1614.65 1429.84 1611.96C1432.24 1610.5 1434.11 1607.9 1436.5 1602.71C1440.41 1594.26 1447.21 1574.08 1449.05 1565.5C1450.65 1558.03 1452.06 1556.36 1458.27 1554.51C1462.57 1553.24 1463.64 1553.23 1466.64 1554.49C1471.62 1556.56 1473.04 1560.88 1474.19 1577.46C1475.89 1601.88 1473.7 1622.73 1467.36 1642.31C1463.06 1655.6 1462.14 1664.8 1462.06 1695.15C1462.03 1708.57 1462.57 1720.13 1463.61 1728.14C1464.49 1734.92 1465.03 1743.56 1464.82 1747.34C1464.46 1753.75 1464.19 1754.45 1460.81 1757.54C1454.64 1763.2 1452.85 1763.43 1416.01 1763.51C1379.14 1763.58 1378.93 1763.62 1371.61 1770.04C1363.4 1777.25 1363.02 1787.84 1370.47 1802.5C1375.66 1812.7 1385.05 1824.68 1405.58 1847.26C1423.74 1867.23 1438.5 1885.7 1441.56 1892.28C1446.12 1902.07 1444.61 1909.9 1435.69 1922.68C1429 1932.29 1425.1 1939.98 1419.33 1954.95C1410.09 1978.92 1399.82 1994.18 1378.53 2015.59C1356.46 2037.78 1334.51 2053.43 1294.51 2075.48C1266.45 2090.96 1248.19 2100 1244.99 2100C1234.51 2100 1225.78 2086.14 1230.51 2077C1232.91 2072.36 1237.72 2069.4 1253.15 2063.11C1294.58 2046.21 1327.02 2025.16 1358.75 1994.62C1377.87 1976.21 1390.49 1959.5 1399.62 1940.5C1411.56 1915.64 1411.97 1899.84 1401.04 1886.04C1392.97 1875.85 1385.79 1876.58 1372.51 1888.97C1369.75 1891.54 1365.35 1894.46 1362.72 1895.47C1354.63 1898.56 1351.63 1897 1338.08 1882.63C1312.81 1855.83 1301.93 1845.71 1294.15 1841.75C1287.97 1838.59 1285.81 1838 1280.53 1838C1265.76 1838 1256.32 1845.45 1242.84 1867.77C1240.03 1872.43 1235.2 1881.23 1232.12 1887.34C1226.11 1899.23 1223.48 1901.83 1218.71 1900.64C1212.78 1899.15 1211.05 1890.39 1213.93 1876.34C1217.43 1859.22 1216.64 1842.65 1211.14 1818.5C1205.83 1795.11 1201.79 1777.52 1196.58 1755C1190.93 1730.59 1180.41 1678.57 1175.55 1651C1172.04 1631.11 1171.05 1620.22 1171.03 1601.49C1171.01 1582.14 1172.8 1565.95 1177.39 1544C1180.65 1528.39 1182.09 1517.56 1183.52 1498C1184.44 1485.27 1188.47 1461.35 1193.59 1438.16C1201.99 1400.06 1204.28 1376.27 1202.19 1348.5C1201.04 1333.17 1201.89 1321.06 1204.47 1316.08C1208.03 1309.2 1212.67 1306.58 1226.35 1303.75C1235.25 1301.91 1239.05 1301.7 1257.01 1302.05C1268.28 1302.27 1288.76 1302.44 1302.51 1302.42C1336.48 1302.38 1336.08 1302.56 1354.53 1279.52C1360.7 1271.8 1369.12 1261.67 1373.23 1257L1380.72 1248.5L1408.61 1233.03C1444.69 1213.04 1446.97 1211.66 1451.01 1207.49C1454.97 1203.41 1455.59 1198.4 1452.55 1195.04C1447.7 1189.69 1426.09 1188.31 1404.63 1191.98C1382.33 1195.79 1351.91 1208 1326.01 1223.53C1305.9 1235.59 1292.42 1240.89 1252.01 1252.61C1232.3 1258.32 1228.02 1260.42 1216.35 1270.13C1204.19 1280.24 1200.09 1282.39 1193.01 1282.39C1186.08 1282.39 1179.92 1279.33 1176.55 1274.23C1171.76 1266.96 1165.01 1232.33 1166.5 1222.67C1167.87 1213.84 1172.04 1204.29 1186.1 1177.82C1208.39 1135.88 1208.09 1136.64 1203.84 1133.24C1197.67 1128.29 1192.79 1123.37 1190.81 1120.12C1189.6 1118.13 1184.9 1110.8 1180.37 1103.83C1170.84 1089.16 1168.66 1085.13 1167.04 1079.11C1162.97 1064 1163.78 1057.2 1171.05 1045.34C1177.26 1035.21 1181.36 1026.16 1183 1019C1186.21 1004.9 1197.35 994.031 1208.61 994.002C1212.77 993.991 1217.39 998.282 1219.96 1004.53C1222.23 1010.05 1222.43 1011.87 1222.6 1029C1222.76 1046.06 1222.98 1048.06 1225.35 1054.81C1228.91 1064.89 1233.12 1071.89 1238.87 1077.27C1244.04 1082.1 1248.75 1083.98 1255.75 1083.99C1266.05 1084 1308.08 1067.58 1355.51 1044.99C1362.66 1041.59 1379.53 1033.62 1393.01 1027.29C1437.74 1006.27 1459.82 994.481 1483.51 978.948C1497.16 969.996 1502.89 964.442 1519.56 943.996C1542.6 915.749 1557.47 899.837 1573.21 886.626C1579.71 881.165 1583.5 874.954 1587.3 863.496C1595.93 837.52 1596.66 817.957 1589.97 792.027C1588.34 785.709 1587.01 779.18 1587.02 777.518C1587.03 774.259 1591.14 764.613 1593.75 761.734C1595.27 760.049 1595.47 760.073 1597.83 762.23C1599.19 763.477 1605.57 775.296 1612 788.496ZM1473.69 863.996C1476.51 863.996 1481.01 869.927 1481.01 873.635C1481.01 878.22 1476.95 885.98 1471.66 891.496C1468.17 895.143 1466.69 895.996 1463.87 895.996C1455.93 895.996 1452.22 886.299 1456.78 877.496C1461.22 868.942 1467.82 862.365 1470.84 863.497C1471.57 863.771 1472.86 863.996 1473.69 863.996ZM1093.79 894.984C1102.19 898.794 1103.29 905.497 1100.5 935.793C1098.88 953.401 1097.71 957.145 1092.01 962.842C1086.31 968.546 1076.28 967.989 1071.81 961.721C1069.57 958.584 1069.5 957.787 1069.21 932.518C1068.88 903.872 1069.49 899.917 1074.84 896.125C1079.87 892.551 1087.43 892.097 1093.79 894.984ZM1202.31 903.347C1206.7 905.184 1211.69 911.1 1213.03 916.067C1216.8 930.072 1203.86 940.144 1190.79 933.382C1181.29 928.471 1178.99 909.025 1187.31 903.954C1191.06 901.668 1197.65 901.401 1202.31 903.347ZM1132.26 982.977C1133.64 984.067 1135.52 986.815 1136.43 989.084C1137.93 992.844 1137.95 993.976 1136.59 1001.86C1134.2 1015.68 1130.97 1023 1127.26 1023C1123.57 1023 1119.01 1019.64 1116.96 1015.4C1114.63 1010.58 1114.74 1007.02 1117.63 993.958C1119.7 984.573 1122.11 980.996 1126.36 980.996C1128.22 980.996 1130.87 981.888 1132.26 982.977ZM1643.51 1138.56C1629.94 1140.41 1612.03 1144.24 1597.18 1148.48C1574.37 1155 1540.19 1168.95 1524.63 1178.11C1504.76 1189.81 1471.72 1218.91 1466.56 1229.26C1460.25 1241.93 1467.03 1252 1481.01 1250.73C1489.9 1249.91 1498.19 1245.79 1519.46 1231.58C1555.27 1207.64 1586.74 1191.54 1613.01 1183.7C1634.02 1177.44 1658.38 1173.64 1697.75 1170.48C1718.02 1168.85 1727.48 1166.77 1732.48 1162.84C1734.78 1161.04 1735.13 1160.14 1734.68 1157.33C1733.87 1152.38 1730.32 1148.06 1725.27 1145.89C1718.91 1143.16 1702.96 1139.28 1693.04 1138.05C1681.6 1136.63 1655.77 1136.89 1643.51 1138.56ZM1642.51 1218.1C1628.09 1220.15 1614.51 1225.84 1588.93 1240.54C1571.65 1250.47 1563.09 1256.28 1548.51 1268C1541.91 1273.3 1527.06 1284.78 1515.51 1293.5C1503.96 1302.23 1491.36 1311.91 1487.51 1315.02C1483.66 1318.13 1475.11 1324.39 1468.51 1328.93C1450.97 1341 1447.01 1345.25 1447.01 1352C1447.01 1356.93 1449.68 1360.81 1455.74 1364.69C1465.02 1370.62 1469.89 1375.8 1474.13 1384.24C1479.73 1395.36 1486.19 1398.79 1492.39 1393.91C1496.26 1390.86 1497.72 1387.38 1498.98 1378.22C1501.3 1361.28 1508.12 1344.27 1517.01 1333.29C1521.33 1327.94 1545.14 1308.25 1569.51 1289.85C1582.94 1279.71 1638.98 1243.81 1647.51 1239.88C1652.74 1237.47 1660.28 1237.51 1669.25 1240C1677.72 1242.34 1685.99 1242.57 1689.86 1240.57C1695.4 1237.71 1696.75 1229.22 1692.48 1224.14C1689.17 1220.21 1685.96 1219.28 1671.51 1218.04C1657.78 1216.87 1651.02 1216.88 1642.51 1218.1ZM1311.72 1259.34C1321.04 1264.17 1316.5 1275.69 1303.78 1279.47C1292.04 1282.96 1281.52 1279.46 1277.97 1270.9C1275.51 1264.95 1279.87 1259.99 1289.34 1257.98C1295.28 1256.71 1308.15 1257.5 1311.72 1259.34ZM1994.01 1843.5V2419H2028.01H2062.01L2062.12 1968.75C2062.19 1721.11 2062.16 1480.58 2062.07 1434.23L2061.9 1349.97L2097.7 1350.23L2133.51 1350.5V1445C2133.51 1496.97 2133.62 1737.38 2133.76 1979.25L2134.01 2419H2167.51H2201.01V1884.5V1350H2237.51H2274.01V1884.5V2419H2308.01H2342.01V1843.5V1268H2168.01H1994.01V1843.5ZM2328.01 1285.5V1290H2301.01H2274.01V1302V1314H2237.51H2201.01V1302V1290H2167.51H2134.01V1302V1314H2098.01H2062.01V1302V1290H2035.01H2008.01V1286.16C2008.01 1284.05 2008.31 1282.03 2008.68 1281.66C2009.04 1281.3 2081.04 1281 2168.68 1281H2328.01V1285.5ZM2048.01 1363V1422H2028.01H2008.01V1363V1304H2028.01H2048.01V1363ZM2187.01 1363V1422H2167.01H2147.01V1363V1304H2167.01H2187.01V1363ZM2328.01 1363V1422H2308.01H2288.01V1363V1304H2308.01H2328.01V1363ZM2133.51 1328.5V1335.5L2097.76 1335.76L2062.01 1336.02V1328.5V1320.97L2097.76 1321.23L2133.51 1321.5V1328.5ZM2274.01 1328.5V1336H2237.51H2201.01V1328.5V1321H2237.51H2274.01V1328.5ZM2048.01 1439.5V1443H2028.01H2008.01V1439.5V1436H2028.01H2048.01V1439.5ZM2187.01 1439.5V1443H2167.01H2147.01V1439.5V1436H2167.01H2187.01V1439.5ZM2328.01 1439.5V1443H2308.01H2288.01V1439.5V1436H2308.01H2328.01V1439.5ZM1412.2 1502.04C1415.03 1504.86 1415.21 1505.49 1414.81 1510.79C1414.17 1519.18 1401.26 1546.76 1395.79 1551.45C1386.85 1559.11 1368.33 1558.84 1364.23 1551C1362.45 1547.58 1363.23 1541.35 1366.26 1534.89C1369.22 1528.56 1392.08 1504.07 1397.88 1501C1403.51 1498.03 1408.56 1498.39 1412.2 1502.04ZM2048.01 1521.5V1525H2028.01H2008.01V1521.5V1518H2028.01H2048.01V1521.5ZM2187.01 1521.5V1525H2167.01H2147.01V1521.5V1518H2167.01H2187.01V1521.5ZM2328.01 1521.5V1525H2308.01H2288.01V1521.5V1518H2308.01H2328.01V1521.5ZM1539.61 1522.4C1542.71 1525.5 1543.01 1526.31 1542.99 1531.65C1542.96 1539 1540.58 1544.36 1535.19 1549.22C1528.61 1555.15 1523.29 1555.43 1517.97 1550.11C1511.62 1543.76 1511.56 1532.72 1517.83 1525.77C1522.23 1520.9 1526 1519.09 1531.86 1519.03C1535.5 1519 1536.76 1519.55 1539.61 1522.4ZM2048.01 1972V2405H2028.01H2008.01V1972V1539H2028.01H2048.01V1972ZM2187.01 1972V2405H2167.01H2147.01V1972V1539H2167.01H2187.01V1972ZM2328.01 1972V2405H2308.01H2288.01V1972V1539H2308.01H2328.01V1972ZM1648.71 1717.96C1653.92 1721.13 1655.31 1724.99 1654.81 1734.92C1654.35 1743.98 1652.4 1749.43 1649.27 1750.39C1646.57 1751.22 1639.72 1749.32 1638.27 1747.33C1636.15 1744.44 1634.89 1738.29 1634.69 1730C1634.54 1723.46 1634.83 1721.85 1636.51 1719.99C1640.33 1715.73 1644.05 1715.11 1648.71 1717.96ZM1653.25 1766.82C1656.28 1769.8 1658.57 1778.55 1661.46 1798.23C1663.58 1812.66 1664.08 1856.87 1662.19 1862.23C1659.47 1869.9 1651.14 1872.5 1645.22 1867.52C1641.08 1864.03 1640.4 1861.69 1638.04 1842.5C1636.25 1827.99 1636 1821.57 1636.36 1798.8C1636.75 1773.83 1636.91 1771.9 1638.87 1768.72C1642.73 1762.48 1648.12 1761.76 1653.25 1766.82ZM1114.51 1885.79C1119.46 1887.44 1128.68 1891.04 1135.01 1893.79C1141.33 1896.54 1152.06 1900.93 1158.84 1903.54C1169.05 1907.48 1171.34 1908.74 1172.18 1910.9C1173.66 1914.73 1172.64 1922.83 1170.4 1924.98C1169.36 1925.97 1162.01 1930.94 1154.06 1936.02C1146.12 1941.09 1136.74 1947.45 1133.21 1950.15C1123.71 1957.43 1119.54 1959.3 1114 1958.77C1107.7 1958.16 1099.99 1952.92 1087.85 1941C1079.15 1932.45 1078.01 1930.9 1076.47 1925.55C1072.75 1912.64 1076.92 1893.24 1085.07 1885.61L1089.22 1881.73L1097.36 1882.26C1102.51 1882.59 1108.82 1883.89 1114.51 1885.79ZM1476.58 1943.46C1483.15 1946.21 1484.81 1954.99 1480.42 1963.8C1477.31 1970.04 1472.36 1974.36 1466.4 1976.03C1450.96 1980.35 1443.76 1966.6 1454.29 1952.88C1458.22 1947.76 1461.39 1945.33 1466.57 1943.49C1471.6 1941.69 1472.35 1941.69 1476.58 1943.46ZM1362.38 1956.29C1365.44 1960.39 1365.05 1965.42 1361.38 1969.09L1358.35 1972.12L1354.14 1970.43C1347.62 1967.82 1344.94 1960.4 1348.62 1955.15C1352.01 1950.31 1358.31 1950.83 1362.38 1956.29ZM1454.03 1988.51C1457.6 1990.35 1459.01 1992.82 1459.01 1997.18C1459 2001.89 1456.49 2005.46 1446.4 2015.06C1441.53 2019.7 1420.82 2040.01 1400.38 2060.2C1379.94 2080.39 1361.08 2098.26 1358.47 2099.92C1355.86 2101.57 1350.9 2103.87 1347.44 2105.02C1342.1 2106.8 1340.5 2106.95 1336.83 2106.01C1327.93 2103.75 1325.01 2100.58 1325.01 2093.19C1325.01 2085.54 1327.45 2083.4 1359.67 2062.74C1370.55 2055.76 1374.03 2052.7 1394.14 2032.41C1423.04 2003.25 1433.98 1993.42 1441.51 1989.85C1448.38 1986.58 1449.98 1986.41 1454.03 1988.51ZM1818.92 2001.75C1822.69 2004.53 1824.41 2008.78 1828.33 2025C1832.29 2041.38 1836.46 2051.98 1844.65 2066.5C1847.75 2072 1852.67 2080.72 1855.58 2085.88C1858.5 2091.04 1863.81 2102.35 1867.39 2111.01C1876.56 2133.19 1876.89 2136.23 1873.57 2169.04C1867.39 2230.08 1866.97 2232.33 1860.81 2237.51C1857.14 2240.6 1853.97 2240.68 1851.33 2237.75C1846.29 2232.14 1845.66 2226.75 1847.11 2201.5L1848.32 2180.5L1844.06 2163.5C1838.1 2139.71 1834.74 2128.03 1830.62 2116.78C1822.92 2095.73 1817.03 2070.6 1812.96 2041.5C1811.37 2030.14 1810.14 2024.95 1807.93 2020.13C1804.37 2012.38 1803.76 2001.86 1806.76 2000.02C1809.19 1998.53 1815.82 1999.47 1818.92 2001.75ZM1766.04 2014.51C1769.92 2016.52 1770.98 2018.78 1776.31 2036.5C1816.06 2168.45 1842.2 2305.48 1853.47 2441C1858.59 2502.58 1858.57 2505.57 1853.04 2510.5C1849.7 2513.48 1841.99 2513.26 1838.62 2510.1C1835.11 2506.81 1834.28 2503.41 1833.57 2489.5C1831.92 2457.36 1826.42 2398.58 1821.45 2360C1807.85 2254.44 1785.37 2148.62 1754.97 2047.02C1751.69 2036.07 1749.01 2025.72 1749.01 2024.02C1749.01 2015.75 1758.35 2010.54 1766.04 2014.51ZM1723.29 2023.36C1725.06 2024.11 1727.34 2025.66 1728.36 2026.8C1731.84 2030.71 1750.9 2100.65 1764.52 2159.5C1782.5 2237.15 1796.47 2321.49 1804.94 2403.5C1809.76 2450.2 1814.73 2522.43 1813.51 2528.01C1812.05 2534.64 1803.24 2538.72 1797.17 2535.58C1791.51 2532.65 1790.86 2530.58 1789.88 2512.25C1781.3 2352.6 1756.39 2203.95 1713.07 2054C1710.29 2044.37 1708.01 2035.24 1708.01 2033.7C1708.01 2028.35 1711.05 2024.61 1717.01 2022.65C1719.39 2021.86 1719.89 2021.92 1723.29 2023.36ZM1684.1 2042.67C1686.31 2044.93 1688.06 2049.61 1692.82 2066C1715.27 2143.27 1730.8 2209.89 1745.4 2291.5C1756.33 2352.55 1766.08 2431.4 1770.45 2494C1774.13 2546.82 1774.3 2551.58 1772.58 2555.21C1769.04 2562.67 1759.24 2564.17 1753.81 2558.1C1750.45 2554.33 1750.47 2554.54 1748.57 2519.5C1740.99 2379.74 1714.23 2225.2 1672.45 2079.77C1665.03 2053.97 1664.06 2048.64 1666.07 2044.88C1669.41 2038.63 1678.98 2037.46 1684.1 2042.67ZM1647.22 2053.74C1649.55 2056.07 1650.3 2057.98 1651.07 2063.57C1652.88 2076.67 1660.59 2110.8 1673.86 2164.5C1707.38 2300.11 1716.8 2351.07 1711.91 2370.47C1709.43 2380.34 1698.65 2383.56 1691.95 2376.44C1689.61 2373.94 1689.51 2373.26 1689.42 2359.67C1689.33 2344.81 1688.68 2339.35 1684 2314C1677.85 2280.7 1672.45 2257.25 1645.11 2145.29C1626.99 2071.06 1625.23 2059.86 1630.73 2053.74C1634.94 2049.06 1642.53 2049.06 1647.22 2053.74ZM1524.18 2054.25C1542.73 2067.26 1554.77 2076.07 1556.29 2077.75C1559.22 2080.99 1560.14 2085.76 1558.56 2089.54C1554.57 2099.07 1539.72 2099.37 1528.21 2090.15C1506.59 2072.82 1501.75 2065.21 1506.51 2056C1509.68 2049.87 1516.92 2049.15 1524.18 2054.25ZM1501.51 2093.26C1553.09 2119.02 1563.01 2124.31 1563.01 2126.05C1563.01 2129.66 1560.74 2142 1560.08 2142C1558.32 2142 1421.33 2072.71 1420.26 2071.28C1418.18 2068.5 1418.84 2066.07 1422.26 2063.93C1424.92 2062.26 1426.83 2061.95 1432.76 2062.21L1440.01 2062.54L1501.51 2093.26ZM1435.87 2100.42C1469.09 2115.21 1538.95 2146.5 1557.58 2154.91C1564.11 2157.86 1564.62 2158.31 1564.25 2160.83C1564.03 2162.32 1564.78 2166.01 1565.93 2169.02C1567.07 2172.03 1568.01 2175.31 1568.01 2176.31C1568.01 2178.71 1567.78 2178.63 1543.01 2167.48C1531.73 2162.4 1509.68 2152.51 1494.01 2145.49C1478.33 2138.48 1454.26 2127.68 1440.51 2121.5C1426.76 2115.31 1412.13 2108.8 1408.01 2107.01C1395.78 2101.73 1393.85 2100.28 1394.2 2096.66C1394.62 2092.39 1399.75 2089 1405.77 2089C1409.3 2089 1415.6 2091.39 1435.87 2100.42ZM1380.21 2112.13C1385.31 2113.23 1397.15 2118.5 1520.61 2174.67L1576.71 2200.19L1577.63 2209.66C1578.13 2214.87 1578.4 2219.27 1578.23 2219.44C1577.89 2219.79 1565.58 2214.27 1488.01 2178.97C1458.03 2165.33 1418.02 2147.15 1399.09 2138.58C1380.16 2130.01 1363.85 2122.25 1362.84 2121.34C1359.17 2118.03 1361.42 2114.05 1368.01 2112.17C1372.76 2110.82 1374.07 2110.82 1380.21 2112.13ZM1363.01 2137.04C1367.51 2139.97 1370.77 2141.63 1389.51 2150.51C1399.34 2155.17 1407.08 2158.8 1454.01 2180.76C1466.93 2186.81 1485.16 2195.36 1494.51 2199.75C1503.86 2204.15 1521.63 2212.48 1534.01 2218.27C1546.38 2224.06 1561.74 2231.27 1568.13 2234.29L1579.75 2239.8L1581.38 2247.02C1582.28 2250.99 1583.01 2254.62 1583.01 2255.09C1583.01 2255.55 1578.62 2253.87 1573.26 2251.36C1544.83 2238.02 1513.43 2223.34 1488.01 2211.49C1472.33 2204.18 1448.26 2192.94 1434.51 2186.49C1420.76 2180.05 1400.06 2170.38 1388.51 2165C1347.27 2145.79 1344.2 2144.22 1342.42 2141.51C1340.89 2139.16 1340.87 2138.71 1342.21 2137.37C1344.65 2134.93 1351.23 2132.97 1355.01 2133.57C1356.93 2133.87 1360.53 2135.43 1363.01 2137.04ZM1729.01 2526.49C1729.69 2527.32 1731.09 2534.4 1732.11 2542.24C1736.19 2573.39 1739.45 2584.15 1747.44 2592.87C1752.96 2598.9 1759.62 2602.95 1771.51 2607.51C1783.63 2612.16 1787.61 2615.53 1788.85 2622.18C1790 2628.3 1788.6 2637.15 1785.47 2643.62C1781.48 2651.86 1775.81 2657.49 1767.24 2661.72L1759.61 2665.5H1703.56H1647.51L1641.67 2662.63C1632.63 2658.19 1629.26 2650.87 1632.44 2642.55C1633.43 2639.95 1638.59 2633 1645.18 2625.39C1657.67 2610.96 1666.39 2599.86 1678.67 2582.78C1690.91 2565.73 1692.21 2561.52 1687.43 2554.47C1685.1 2551.04 1685.01 2550.58 1686.51 2549.74C1687.42 2549.23 1693.19 2544.97 1699.34 2540.27C1709.78 2532.3 1722.4 2525.11 1726.14 2525.03C1727.03 2525.01 1728.32 2525.67 1729.01 2526.49ZM3173.01 2664.45C3181.99 2665.84 3206.74 2671.4 3207.54 2672.2C3207.75 2672.4 3208.83 2683.58 3209.96 2697.03C3211.08 2710.49 3212.27 2723.8 3212.6 2726.62L3213.21 2731.74L3208.36 2732.44C3205.69 2732.82 3202.57 2733.36 3201.42 2733.64C3199.54 2734.08 3198.99 2733.08 3196.05 2723.82C3187.97 2698.31 3177.85 2686.36 3159.11 2680.18C3149.4 2676.98 3132.66 2676.52 3123.99 2679.21C3108.36 2684.05 3098.04 2697.39 3096.12 2715.21C3094.97 2725.89 3096.26 2734.09 3100.38 2742.42C3106.99 2755.8 3119.52 2765.92 3151.52 2783.7C3160.33 2788.59 3170.86 2794.74 3174.92 2797.37C3199.72 2813.42 3213.18 2829.88 3217.55 2849.55C3220.08 2860.89 3219.23 2877.86 3215.6 2888.5C3200.43 2933.04 3146.79 2953.85 3086.62 2938.54C3074.5 2935.46 3058.31 2930.09 3055.19 2928.13C3053.7 2927.18 3049.97 2907.22 3046.99 2884.21C3044.15 2862.28 3044 2863.38 3050.06 2862.08C3058.43 2860.28 3058.26 2860.17 3061.42 2869.25C3072.7 2901.6 3092.38 2921.72 3117.43 2926.51C3155.81 2933.86 3183.06 2909.64 3178.08 2872.61C3175.3 2851.98 3162.66 2838.72 3125.51 2817.48C3092.62 2798.68 3073.2 2782.09 3065.22 2766C3059.04 2753.53 3057.68 2747 3058.27 2732.53C3058.66 2723.02 3059.3 2718.96 3061.34 2713.2C3071.17 2685.41 3095.27 2667.97 3130.62 2663.06C3139.39 2661.84 3160.72 2662.54 3173.01 2664.45ZM684.268 2668.16C706.685 2668.84 725.486 2669.67 726.047 2670.02C726.672 2670.41 726.817 2672.78 726.42 2676.16L725.772 2681.67L716.78 2682.86C702.876 2684.72 697.563 2687.52 696.419 2693.63C695.512 2698.46 696.135 2701.06 714.003 2767C744.604 2879.93 743.273 2875.34 744.686 2872.64C745.412 2871.26 748.417 2863.91 751.363 2856.31C754.31 2848.71 761.781 2829.45 767.965 2813.5C782.417 2776.22 793.789 2746.02 805.616 2713.5C810.816 2699.2 816.011 2684.91 817.162 2681.75L819.253 2676H826.953H834.653L843.898 2705.25C853.09 2734.33 877.956 2811.12 882.511 2824.5C883.822 2828.35 888.342 2842.07 892.556 2855C896.769 2867.92 900.564 2878.87 900.989 2879.32C901.413 2879.78 902.215 2878.88 902.771 2877.32C949.476 2746.69 959.013 2717.98 959.005 2708.04C958.997 2698.24 952.861 2693.8 934.026 2689.99C928.26 2688.82 923.386 2687.71 923.193 2687.51C923.001 2687.32 923.158 2684.65 923.542 2681.58L924.239 2676H931.042C939.868 2676 994.928 2677.78 1010.8 2678.58L1023.1 2679.2L1022.8 2685.3L1022.51 2691.4L1014.47 2692.55C992.151 2695.73 987.245 2700.76 975.025 2733C963.17 2764.27 944.186 2816.7 916.955 2893.36C906.041 2924.09 896.889 2949.45 896.618 2949.72C896.346 2949.99 892.545 2949.9 888.17 2949.51L880.216 2948.81L877.051 2938.65C875.31 2933.07 871.702 2921.75 869.033 2913.5C837.434 2815.81 814.999 2747.73 814.077 2746.73C813.687 2746.3 796.137 2790.63 775.077 2845.23C754.018 2899.82 736.652 2944.64 736.488 2944.82C736.324 2945 732.639 2944.84 728.299 2944.46L720.409 2943.77L718.183 2935.63C716.958 2931.16 713.091 2916.92 709.588 2904C696.651 2856.26 690.816 2835.39 668.337 2756.5C661.442 2732.3 654.705 2709.57 653.365 2706C649.776 2696.42 645.061 2689.16 640.275 2685.85C636.223 2683.05 623.266 2679 618.349 2679C616.13 2679 616.009 2678.65 616.009 2672.34V2665.69L629.759 2666.31C637.322 2666.65 661.851 2667.48 684.268 2668.16ZM1121.7 2713.02C1140.3 2717.43 1159.33 2721.94 1164.01 2723.03C1202.05 2731.95 1200.54 2731.49 1200.19 2734.09C1200.02 2735.41 1199.42 2738.23 1198.88 2740.35C1198.02 2743.64 1197.56 2744.11 1195.69 2743.6C1191.7 2742.52 1174.38 2741.71 1170.58 2742.42C1164.27 2743.6 1158.89 2749.96 1155.7 2760.03C1152.86 2769 1136.57 2836.96 1137.16 2837.38C1137.35 2837.52 1144.93 2839.35 1154.01 2841.45C1163.08 2843.55 1193.68 2850.79 1222.01 2857.55C1250.33 2864.3 1273.66 2869.67 1273.84 2869.49C1274.2 2869.14 1278.74 2850.48 1282 2836C1283.06 2831.32 1285.58 2820.75 1287.6 2812.5C1290.58 2800.4 1291.31 2795.47 1291.4 2787C1291.5 2777.37 1291.31 2776.23 1289.1 2773.29C1286.51 2769.84 1277.34 2764.69 1267.26 2761.02C1263.82 2759.78 1261.01 2758.39 1261.01 2757.95C1261.01 2755.38 1263.5 2747 1264.26 2747C1264.77 2747 1268.63 2747.84 1272.84 2748.87C1277.06 2749.9 1302.11 2755.84 1328.51 2762.05C1354.91 2768.27 1376.92 2773.71 1377.43 2774.14C1377.98 2774.62 1377.84 2777.18 1377.08 2780.56C1375.84 2786.13 1375.8 2786.18 1372.67 2785.63C1370.93 2785.32 1365.62 2784.77 1360.88 2784.41C1349.48 2783.53 1343.06 2785.03 1339.13 2789.51C1333.83 2795.55 1335.25 2790.13 1300.49 2937C1288.23 2988.8 1287.81 2990.82 1287.65 2998.67C1287.54 3004.53 1287.89 3006.36 1289.6 3008.67C1293.24 3013.58 1299.28 3017.39 1309.04 3020.93C1314.25 3022.82 1318.69 3024.5 1318.9 3024.66C1319.12 3024.82 1318.72 3027.67 1318.01 3030.99C1317 3035.75 1316.38 3036.94 1315.12 3036.57C1314.23 3036.32 1306.53 3034.48 1298.01 3032.5C1289.48 3030.51 1278.91 3028.02 1274.51 3026.95C1270.11 3025.89 1252.13 3021.62 1234.56 3017.47C1216.99 3013.33 1202.4 3009.72 1202.15 3009.47C1201.9 3009.22 1202.24 3006.53 1202.92 3003.5L1204.15 2998L1218.33 2998.58C1242.87 2999.6 1243.24 2999.13 1254.49 2952.31C1258.57 2935.36 1263.65 2913.96 1265.78 2904.74L1269.66 2887.98L1266.09 2887.02C1262.27 2886 1179.58 2866.32 1164.51 2862.85C1159.56 2861.7 1150.42 2859.51 1144.19 2857.98C1136.18 2856 1132.76 2855.52 1132.46 2856.34C1131.52 2858.99 1114.71 2930.44 1112.46 2941.38C1111.11 2947.92 1110.01 2955.02 1110.01 2957.17C1110.01 2961.97 1112.03 2967 1115.15 2969.95C1118.07 2972.7 1128.73 2978.14 1135.76 2980.44C1141.58 2982.35 1141.81 2982.91 1139.88 2990.61C1139.02 2994.02 1138.37 2994.97 1137.2 2994.51C1136.35 2994.19 1131.79 2993.06 1127.08 2992.01C1122.36 2990.95 1099.83 2985.62 1077.01 2980.16C1054.18 2974.69 1032.92 2969.69 1029.76 2969.04C1026.6 2968.39 1024.03 2967.77 1024.05 2967.68C1024.08 2967.58 1024.67 2965.02 1025.38 2962L1026.67 2956.5L1040.64 2956.87C1053.33 2957.21 1054.99 2957.05 1058.77 2955.12C1066.03 2951.41 1068.89 2944.47 1076.49 2912C1080.68 2894.14 1092.17 2845.41 1104.43 2793.5C1113.94 2753.28 1115.5 2744.75 1114.54 2738.33C1113.32 2730.23 1105.72 2724.31 1089.85 2719.09L1083.2 2716.9L1084.01 2713.7C1084.45 2711.94 1085.09 2709.26 1085.43 2707.75C1085.77 2706.23 1086.46 2705 1086.97 2705C1087.48 2705 1103.1 2708.61 1121.7 2713.02ZM2880.32 2707.47C2913.77 2711.93 2942.81 2729.52 2960.85 2756.26C2969.82 2769.57 2974.62 2780.73 2978.98 2798.41C2989.41 2840.78 2981.71 2882.59 2957.55 2914.73C2950.95 2923.51 2933.7 2939.62 2923.68 2946.35C2898.84 2963.05 2872.79 2973.1 2830.01 2982.46C2820.93 2984.45 2808.56 2987.17 2802.51 2988.51C2761.59 2997.57 2735.42 3002.98 2734.42 3002.6C2733.78 3002.36 2732.96 3000.43 2732.58 2998.33C2732.21 2996.22 2731.68 2993.75 2731.42 2992.84C2731.03 2991.52 2732.85 2990.55 2740.49 2988C2751.51 2984.33 2758.58 2979.96 2761.42 2975.07C2764.61 2969.55 2763.83 2961.59 2756.99 2930C2753.6 2914.32 2749.75 2896.55 2748.45 2890.5C2747.14 2884.45 2744.68 2873.2 2742.99 2865.5C2741.3 2857.8 2738.6 2845.42 2736.99 2838C2735.38 2830.57 2732.68 2818.2 2731 2810.5C2729.31 2802.8 2727.04 2792.22 2725.95 2787C2721.02 2763.41 2716.69 2754.57 2708.54 2751.46C2704.63 2749.96 2702.05 2749.8 2691.52 2750.36L2679.11 2751.02L2678.06 2747.26C2676.41 2741.32 2676.72 2739.1 2679.26 2738.49C2680.5 2738.2 2687.81 2736.6 2695.51 2734.95C2732.62 2726.98 2756.74 2721.78 2769.51 2718.98C2798.68 2712.58 2817.91 2708.93 2829.51 2707.6C2845.54 2705.77 2867.07 2705.71 2880.32 2707.47ZM2812.51 2725.99C2790.58 2729.15 2770.64 2735.52 2764.98 2741.18C2759.46 2746.7 2759.27 2745.46 2779.48 2838C2789.3 2882.98 2792.31 2896.84 2795.54 2912C2803.15 2947.69 2806.73 2955.3 2818.73 2961.1C2825.78 2964.51 2839.41 2964.16 2855.51 2960.13C2914.16 2945.48 2943.16 2904.79 2938.87 2843.16C2937.91 2829.37 2935.25 2815.04 2931.37 2802.72C2918.55 2762.08 2894.55 2737.53 2858.18 2727.83C2849.51 2725.52 2823.16 2724.46 2812.51 2725.99ZM2576.01 2772.83C2587.7 2775.89 2596.28 2780.5 2604.33 2788.05C2612.83 2796.01 2617.15 2802.83 2621.26 2814.74C2625.16 2826.01 2626.12 2841.68 2623.58 2852.47C2619.42 2870.11 2606.07 2888.3 2587.58 2901.51L2584.77 2903.52L2608.38 2926.71C2644.51 2962.16 2670.86 2984.48 2686 2992.42C2692.85 2996 2702.75 2999 2707.79 2999C2711.17 2999 2711.97 3000.67 2712 3007.7C2712.01 3011.67 2711.83 3011.94 2708.76 3012.46C2685.85 3016.4 2666.77 3017.15 2655.59 3014.55C2648.67 3012.95 2636.92 3007.49 2631.01 3003.14C2621.4 2996.06 2606.06 2981.75 2583.43 2958.72C2569.69 2944.75 2556.58 2932.08 2554.3 2930.57C2547.99 2926.4 2541.23 2926.16 2525.18 2929.54C2514.33 2931.82 2512.06 2932.6 2512.45 2933.91C2512.71 2934.78 2515.9 2949.22 2519.54 2966C2529.99 3014.07 2532.16 3020.44 2539.75 3025.16C2543.28 3027.35 2544.41 3027.49 2558.17 3027.35L2572.83 3027.21L2573.49 3030.85C2573.85 3032.86 2574.38 3035.46 2574.66 3036.65C2575.09 3038.44 2574.62 3038.91 2571.84 3039.48C2570.01 3039.85 2557.26 3042.62 2543.51 3045.63C2529.76 3048.64 2513.56 3052.19 2507.51 3053.52C2501.46 3054.84 2489.08 3057.53 2480.01 3059.5C2470.93 3061.47 2462.76 3063.3 2461.85 3063.58C2460.54 3063.97 2459.96 3063 2459.1 3058.99C2458.5 3056.19 2458.02 3053.36 2458.03 3052.7C2458.03 3052.04 2462.2 3049.99 2467.28 3048.15C2479.14 3043.86 2485.34 3039.92 2487.54 3035.28C2490.74 3028.55 2489.23 3017.98 2477.57 2965.5C2471.7 2939.1 2463.99 2904.22 2460.43 2888C2446.64 2825.16 2444.69 2818.75 2437.87 2813.89C2434.67 2811.61 2433.78 2811.5 2419.35 2811.53L2404.2 2811.57L2403.1 2806.11C2402.5 2803.12 2402.22 2800.45 2402.48 2800.19C2402.96 2799.71 2420.56 2795.75 2485.01 2781.6C2514.73 2775.07 2523.82 2773.33 2542.51 2770.6C2549.2 2769.62 2568.72 2770.92 2576.01 2772.83ZM1443.7 2791.42C1464.06 2796.21 1502.4 2805.17 1524.01 2810.18C1531.43 2811.9 1537.85 2813.6 1538.27 2813.96C1538.68 2814.31 1538.5 2817.21 1537.86 2820.4C1536.7 2826.16 1536.68 2826.18 1533.6 2825.56C1531.9 2825.21 1525.78 2824.68 1520.01 2824.38C1510.36 2823.87 1509.15 2824.02 1505.02 2826.16C1499.38 2829.09 1496.62 2833.21 1493.47 2843.43C1491.43 2850.04 1477.61 2908.28 1466.52 2957C1465.21 2962.77 1461.37 2979.2 1458 2993.5C1450.84 3023.85 1449.09 3032.77 1449.04 3039.18C1448.96 3050.31 1453.9 3055.08 1472.29 3061.63C1476.26 3063.05 1479.81 3064.5 1480.19 3064.85C1481.12 3065.74 1478.58 3076.5 1477.43 3076.5C1475.92 3076.5 1442.05 3068.69 1390.46 3056.46C1377.78 3053.46 1366.62 3051 1365.67 3051C1363.19 3051 1362.86 3049.17 1364.34 3043.5C1365.82 3037.81 1364.7 3038.11 1379.56 3039.35C1391.64 3040.35 1397 3039.21 1401.54 3034.66C1406.89 3029.29 1408.55 3023.46 1425.03 2952C1428.26 2937.97 1433.21 2916.6 1436.04 2904.5C1452.4 2834.3 1453.3 2829.93 1452.79 2822.76C1452.1 2813.05 1445.65 2807.39 1429.01 2801.88C1420.61 2799.1 1421.05 2799.48 1421.99 2795.74C1422.45 2793.96 1423.09 2791.26 1423.43 2789.75C1423.77 2788.23 1424.24 2787 1424.47 2787C1424.7 2787 1433.36 2788.99 1443.7 2791.42ZM2513.67 2791.04C2506.57 2792.24 2494.97 2795.9 2491.43 2798.06C2487.59 2800.41 2486.01 2803.79 2486.01 2809.63C2486.01 2812.13 2489.86 2831.57 2494.56 2852.83C2499.27 2874.1 2504.25 2896.67 2505.62 2903C2507 2909.32 2508.33 2915.21 2508.58 2916.08C2509.47 2919.17 2543.97 2910.4 2555.43 2904.17C2572.41 2894.94 2583.5 2875.6 2583.35 2855.5C2583.14 2829.22 2569.83 2804.16 2551.51 2795.59C2540.73 2790.55 2526.68 2788.86 2513.67 2791.04ZM1584.86 2816.61C1586.95 2817.03 1588.6 2818.33 1589.94 2820.61C1591.04 2822.46 1593.34 2824.83 1595.06 2825.88C1598.71 2828.1 1599.27 2828.19 1659.37 2836.05C1684.74 2839.37 1713.83 2843.19 1724.01 2844.53C1734.18 2845.87 1751.06 2848.1 1761.51 2849.47C1771.96 2850.85 1782.89 2851.98 1785.8 2851.99C1791.25 2852 1797.42 2849.61 1800.01 2846.5C1801.1 2845.18 1802.38 2844.99 1806.44 2845.54C1809.23 2845.92 1811.77 2846.38 1812.08 2846.56C1812.4 2846.74 1812.31 2849.73 1811.88 2853.2C1810.91 2861.1 1808.35 2893.69 1807.47 2909.25L1806.81 2921H1800H1793.19L1791.98 2913.75C1790.39 2904.29 1785.54 2887.97 1782.57 2882.12C1778.47 2874.06 1774.04 2870.42 1765.48 2868.12C1762.3 2867.27 1727.87 2862.3 1713.73 2860.66C1710.39 2860.27 1710.83 2858.59 1707.5 2884.5C1706.09 2895.5 1703.84 2912.82 1702.5 2923C1701.16 2933.17 1698.7 2952.07 1697.03 2965C1692.59 2999.28 1689.35 3023.93 1686.37 3046C1683.2 3069.51 1682.81 3083.16 1685.18 3087.5C1688.98 3094.46 1696.33 3098.38 1712.46 3102.07L1723.09 3104.5L1722.43 3110C1722.07 3113.02 1721.5 3115.79 1721.15 3116.14C1720.8 3116.5 1710.83 3115.5 1699.01 3113.93C1687.18 3112.36 1668.73 3109.92 1658.01 3108.5C1586.57 3099.03 1595.01 3100.56 1595.01 3097.08C1595.01 3095.52 1595.29 3092.84 1595.63 3091.12L1596.26 3088H1609.98C1637.83 3088 1639.48 3085.7 1645.56 3038.5C1646.98 3027.5 1649.21 3010.17 1650.52 3000C1651.82 2989.82 1654.3 2970.92 1656.01 2958C1665.43 2886.93 1669.24 2855.89 1668.61 2855.27C1668.29 2854.94 1660.26 2853.57 1650.77 2852.21C1628.81 2849.07 1608.06 2848.65 1603.31 2851.25C1596.25 2855.11 1588.91 2864.8 1579.41 2882.79L1574.51 2892.09L1568.51 2891.44C1565.21 2891.09 1562.2 2890.5 1561.82 2890.15C1561.44 2889.79 1562.7 2882.75 1564.6 2874.5C1568.21 2858.87 1574.11 2831.66 1576.03 2821.75C1577.25 2815.51 1577.77 2815.2 1584.86 2816.61ZM2276.29 2826.41C2312.19 2834.63 2340.33 2853.49 2360.22 2882.66C2391.17 2928.03 2391.74 2998.11 2361.53 3043.51C2341.99 3072.87 2313.07 3092.48 2276.1 3101.43C2216.48 3115.86 2155.38 3094.24 2123.33 3047.38C2106.17 3022.27 2098.61 2997.11 2098.6 2965C2098.58 2941.62 2102.34 2923.95 2111.5 2904.36C2130.71 2863.25 2167.32 2835.43 2214.51 2826.09C2228.9 2823.24 2229.83 2823.17 2248.01 2823.46C2261.72 2823.67 2266.5 2824.17 2276.29 2826.41ZM2221.88 2841.01C2185.95 2845.33 2159.51 2869.24 2149.54 2906.42C2140.32 2940.82 2145.22 2985.74 2162.13 3021.86C2174.66 3048.63 2195.56 3070.8 2217.28 3080.36C2230.44 3086.16 2237.36 3087.5 2253.51 3087.41C2266.74 3087.33 2269.55 3087 2277.31 3084.65C2309.92 3074.75 2329.33 3051.44 2336.14 3014C2338.15 3002.99 2337.88 2971.44 2335.67 2957C2332.6 2937.06 2325.8 2914.45 2318.47 2899.87C2310.5 2884.03 2295.8 2866.21 2283.51 2857.49C2265.69 2844.84 2242.22 2838.56 2221.88 2841.01ZM2041.4 2855.25C2041.7 2858.13 2042.21 2864.77 2042.53 2870C2043.14 2879.78 2045.6 2904.67 2046.59 2911.15L2047.15 2914.8L2042.83 2915.45C2040.45 2915.81 2037.28 2916.34 2035.77 2916.63C2033.58 2917.04 2032.84 2916.68 2032.08 2914.82C2031.55 2913.54 2029.58 2908.6 2027.69 2903.85C2023.31 2892.78 2014.32 2878.96 2009.01 2875.11C2002.88 2870.67 1997.56 2869.99 1970.21 2870.1C1937.25 2870.23 1926.6 2870.97 1924.29 2873.29C1922.28 2875.32 1922.29 2874.11 1923.54 2941.4L1924.25 2979.31L1955.16 2978.62C1972.16 2978.24 1988.4 2977.49 1991.24 2976.95C2003.53 2974.62 2007.59 2970.01 2011.68 2953.75L2014.38 2943H2021.07H2027.77L2028.63 2984.75C2029.11 3007.71 2029.5 3027.4 2029.5 3028.5C2029.51 3030.28 2028.75 3030.53 2022.51 3030.79L2015.51 3031.07L2013.69 3022.99C2012.69 3018.55 2010.44 3012.13 2008.67 3008.73C2005.86 3003.29 2004.76 3002.18 1999.55 2999.52L1993.64 2996.5L1959.59 2996.81C1940.87 2996.98 1925.36 2997.31 1925.14 2997.54C1924.91 2997.76 1925.22 3017.87 1925.83 3042.22C1927.06 3091.46 1927.61 3095.92 1933.23 3101.72C1937.91 3106.56 1950.73 3109.92 1964.67 3109.98L1969.83 3110L1970.17 3116.09C1970.36 3119.45 1970.27 3122.34 1969.97 3122.52C1969.13 3123.03 1849.09 3125.42 1848.65 3124.93C1848.44 3124.69 1847.95 3121.94 1847.57 3118.82L1846.88 3113.14L1851.7 3112.54C1872.08 3110.03 1878.65 3107.17 1882.35 3099.17C1884.44 3094.65 1884.5 3093.45 1884.28 3062C1883.91 3010.72 1881.06 2897.13 1879.97 2890.27C1878.32 2879.91 1875.84 2875.54 1869.85 2872.42C1866.75 2870.81 1851.51 2868 1845.88 2868H1842.01V2861.5V2855L1851.26 2855C1880.19 2855.02 2020.9 2851.37 2038.69 2850.15C2040.61 2850.01 2040.93 2850.62 2041.4 2855.25ZM119.509 2903.08C97.142 2904.25 80.804 2905.83 58.009 2909.04C40.117 2911.55 2.30902 2918.36 1.44802 2919.22C0.763021 2919.91 32.995 2967.24 39.146 2974.58C53.673 2991.91 76.573 3012.85 131.477 3059C163.226 3085.68 189.555 3109.36 198.81 3119.56C208.558 3130.29 216.459 3140.95 215.424 3141.96C211.262 3146.04 186.711 3159.48 151.009 3177.24C101.569 3201.82 81.754 3212.44 66.509 3222.54C31.98 3245.42 14.658 3266.45 7.64302 3294C3.94602 3308.52 -0.00898467 3326.28 1.53316e-05 3328.33C0.00801533 3330.01 0.775018 3330.11 9.75902 3329.6C15.121 3329.29 26.484 3328.79 35.009 3328.48C43.534 3328.17 66.709 3326.98 86.509 3325.84C139.315 3322.77 179.697 3322.93 219.009 3326.36C266.525 3330.51 310.301 3335.28 358.509 3341.58C394.502 3346.28 422.553 3350.06 439.509 3352.49C608.591 3376.73 655.559 3381.66 727.009 3382.69C783.947 3383.51 824.464 3380.86 868.344 3373.45C944.589 3360.57 1011.39 3334.65 1035.33 3308.64C1061.83 3279.86 1060.2 3239.66 1031.35 3210.52C1007.21 3186.14 977.256 3176.79 928.105 3178.29C917.877 3178.6 905.009 3179.6 899.509 3180.51C887.082 3182.56 848.792 3191.84 819.009 3200.01C746.067 3220.03 734.29 3223.06 716.064 3226.47C669.767 3235.15 630.981 3233.09 591.509 3219.85C559.33 3209.06 534.88 3192.66 521.097 3172.62C516.227 3165.55 510.313 3152.36 508.029 3143.5C503.951 3127.66 503.733 3120.74 504.4 3028.43L505.036 2940.36L488.773 2938.62C470.795 2936.7 462.02 2935.52 380.009 2924C234.251 2903.52 185.623 2899.62 119.509 2903.08ZM3688.01 2904.12C3670.94 2905.38 3617.22 2910.63 3587.01 2914C3559.95 2917.02 3534.35 2920.07 3435.51 2932.01C3421.76 2933.67 3400.68 2936.14 3388.68 2937.51C3376.67 2938.87 3366.49 2940.2 3366.07 2940.46C3364.18 2941.63 3363.72 2960.07 3363.47 3045.5C3363.3 3102.62 3362.81 3138.37 3362.17 3141.53C3356.23 3170.7 3326.11 3199.48 3282.73 3217.43C3241.78 3234.38 3191.75 3235.81 3130.01 3221.78C3116.59 3218.73 3087.65 3211.27 3047.51 3200.51C3005.98 3189.37 2988.77 3185.18 2962.01 3179.69C2947.56 3176.73 2945.11 3176.51 2926.01 3176.5C2906.7 3176.5 2904.87 3176.66 2894.51 3179.35C2861.5 3187.89 2836.46 3205.27 2822.71 3229.15C2821.24 3231.72 2818.66 3237.92 2816.97 3242.94C2814.41 3250.59 2813.91 3253.65 2813.89 3261.79C2813.86 3274.33 2815.05 3279.41 2820.75 3291C2824.8 3299.24 2826.76 3301.82 2835.5 3310.5C2852.89 3327.75 2871.92 3337.7 2914.84 3351.96C2963.8 3368.23 3006.8 3377.07 3062.01 3382.21C3080.28 3383.91 3160.39 3383.88 3181.01 3382.17C3230.32 3378.08 3296.58 3369.71 3419.01 3352.09C3585.72 3328.09 3637.16 3322.98 3711.37 3323.01C3753.98 3323.03 3784.88 3325.07 3825.51 3330.55C3842.74 3332.87 3869.4 3335.94 3869.71 3335.63C3870.24 3335.1 3864.95 3313.07 3862.43 3305.33C3857.2 3289.28 3846.32 3270.15 3833.11 3253.76C3817.17 3234 3801.8 3218.95 3762.01 3184.16C3749.08 3172.86 3735.13 3160.48 3731.01 3156.65C3726.88 3152.82 3718.78 3146.06 3713.01 3141.61C3699.31 3131.07 3692.01 3123.82 3692.01 3120.75C3692.01 3117.45 3697.47 3108.72 3705.71 3098.84C3709.54 3094.25 3717.3 3084.2 3722.97 3076.5C3731.83 3064.45 3737.54 3058.31 3763.88 3032.5C3816.07 2981.36 3835.18 2961.88 3844.33 2950.48C3853.17 2939.47 3871.01 2913.9 3871.01 2912.24C3871.01 2911.75 3859.87 2910.82 3846.26 2910.17C3832.65 2909.52 3810.48 2908.1 3797.01 2907.02C3747.02 2903 3714.96 2902.14 3688.01 2904.12ZM744.009 3019.7C734.014 3020.1 705.303 3022.74 691.009 3024.57C628.815 3032.51 582.691 3052.62 550.978 3085.62C526.895 3110.68 521.618 3135.64 535.256 3160C539.561 3167.68 554.718 3182.41 566.009 3189.88C596.534 3210.07 630.344 3219.06 670.509 3217.69C702.168 3216.6 725.35 3211.56 811.509 3186.99C878.092 3168.01 895.948 3164.4 928.509 3163.33C971.169 3161.93 1000.51 3169.75 1039.2 3192.83C1046.73 3197.32 1053.15 3201 1053.48 3201C1053.81 3201 1053.95 3172.97 1053.8 3138.71L1053.51 3076.42L1050.01 3070.57C1046.23 3064.24 1039 3057.8 1033.77 3056.09C1029.52 3054.7 975.157 3043.06 954.217 3039.05C872.023 3023.31 805.619 3017.2 744.009 3019.7ZM3057.01 3020.11C3024.9 3021.91 2979.92 3027.22 2943.51 3033.49C2904.46 3040.22 2839.09 3054.04 2832.27 3057.02C2827.09 3059.29 2819.13 3067.1 2816.51 3072.5C2814.96 3075.7 2814.43 3079.7 2813.88 3092.5C2813.04 3112.17 2812.79 3194.45 2813.58 3195.23C2813.89 3195.55 2820.08 3193.1 2827.33 3189.8C2871.94 3169.48 2898.86 3162.55 2933.01 3162.58C2963.5 3162.61 2988.98 3167.91 3074.72 3192.06C3154.79 3214.62 3177.13 3218.83 3210.82 3217.71C3237.51 3216.83 3258.7 3211.85 3281.44 3201.12C3335.63 3175.56 3353.16 3137.4 3328.15 3099.46C3309.4 3071.01 3268.15 3045.46 3221.01 3033.08C3178.74 3021.98 3114.3 3016.88 3057.01 3020.11ZM1514.01 3155C1602.49 3171.71 1666.91 3181.08 1741.14 3188.02C1813.9 3194.83 1879.47 3197.45 1957.51 3196.68C2083.43 3195.43 2185.48 3185.55 2316.01 3161.97C2334.85 3158.57 2392.21 3147.35 2400.95 3145.36C2402.65 3144.97 2324.66 3223.66 2168.51 3379.88L1933.51 3615L1699.26 3380.75C1570.42 3251.91 1465.01 3146.24 1465.01 3145.92C1465.01 3145.59 1472.55 3146.85 1481.76 3148.7C1490.97 3150.56 1505.48 3153.39 1514.01 3155ZM2441.77 3422.96C2434.9 3424.22 2427.13 3426.91 2422.29 3429.71C2415.98 3433.36 2408.49 3442.1 2405.98 3448.75C2401.3 3461.16 2401.02 3511.05 2405.56 3524.24C2410.42 3538.37 2427.43 3547.3 2444.82 3544.87C2452.61 3543.78 2456.43 3541.88 2461.26 3536.69L2465.01 3532.66V3553.61C2465.01 3571.19 2464.75 3574.92 2463.41 3576.84C2461.07 3580.17 2457.41 3581.28 2453.27 3579.92C2448.7 3578.41 2447.01 3574.24 2447.01 3564.51V3556.96L2424.76 3557.23L2402.51 3557.5L2402.82 3563.5C2403.26 3571.96 2406.6 3583.66 2410.17 3589.24C2417.98 3601.43 2433.99 3608.02 2455.72 3607.98C2480.53 3607.94 2496.59 3599.48 2504.85 3582.1C2508.17 3575.12 2508.41 3573.9 2509.13 3560.6C2510.13 3541.81 2510.1 3487.04 2509.08 3469.32C2508.34 3456.54 2507.96 3454.49 2505.22 3448.64C2499.58 3436.59 2490.17 3428.71 2477.01 3425.03C2468.56 3422.66 2449.5 3421.54 2441.77 3422.96ZM1281.01 3515.51V3605.02L1321.26 3604.76L1361.51 3604.5V3587V3569.5L1344.24 3569.22L1326.97 3568.95L1327.24 3549.22L1327.51 3529.5L1341.76 3529.22L1356.01 3528.94V3512.5V3496.05L1341.76 3495.77L1327.51 3495.5V3478.5V3461.5L1342.76 3461.22L1358.01 3460.94V3443.47V3426H1319.51H1281.01V3515.51ZM2356.06 3428.92C2353.41 3432.65 2343.17 3440.72 2335.88 3444.83C2332.79 3446.57 2325.59 3449.53 2319.88 3451.4L2309.51 3454.79V3464.64V3474.5L2320.24 3475.21C2330.95 3475.93 2335.31 3477.24 2338.08 3480.58C2339.27 3482.02 2339.59 3492.48 2340.01 3543.4L2340.51 3604.5L2362.76 3604.77L2385.01 3605.03V3515.52V3426H2371.58H2358.15L2356.06 3428.92ZM2519.01 3442V3458H2541.08C2562.15 3458 2563.12 3458.08 2562.55 3459.86C2562.23 3460.89 2560.37 3469.1 2558.42 3478.11C2553.27 3501.95 2550.83 3513.22 2544.02 3544.5C2540.67 3559.9 2537.07 3576.55 2536.03 3581.5C2534.98 3586.45 2533.43 3593.42 2532.58 3597C2531.73 3600.57 2531.03 3603.84 2531.02 3604.27C2531.02 3604.69 2541.02 3604.91 2553.25 3604.77L2575.49 3604.5L2578.13 3591.5C2579.58 3584.35 2583.29 3566.09 2586.38 3550.93C2589.46 3535.78 2594.69 3510.06 2598 3493.79L2604.01 3464.22V3445.11V3426H2561.51H2519.01V3442ZM2638.29 3435.25C2636.59 3440.33 2627.96 3466.43 2619.1 3493.23L2603.01 3541.97V3557.48V3573H2629.51H2656.01V3589V3605H2677.98H2699.96L2700.23 3589.25L2700.51 3573.5L2706.76 3573.2L2713.01 3572.9V3558V3543.09L2706.76 3542.79L2700.51 3542.5L2700.25 3484.25L2699.99 3426H2670.69H2641.38L2638.29 3435.25ZM1483.01 3449.5V3461H1478.01H1473.01V3473V3485H1478.01H1483.01L1483.03 3534.25C1483.05 3561.33 1483.46 3585.24 1483.95 3587.36C1485.25 3592.97 1489.77 3598.08 1496.35 3601.4C1501.98 3604.23 1502.55 3604.31 1521.56 3604.79L1541.01 3605.27V3593.26V3581.24L1535.47 3580.79C1532.43 3580.53 1529.39 3579.78 1528.72 3579.11C1527.81 3578.2 1527.43 3566.19 1527.19 3531.45L1526.87 3485H1532.94H1539.01V3473V3461H1533.01H1527.01V3449.5V3438H1505.01H1483.01V3449.5ZM2462.08 3452.58C2464.5 3455.15 2464.51 3455.23 2464.82 3480.83C2465 3494.94 2464.85 3508.01 2464.51 3509.86C2462.57 3520.18 2450.33 3520.62 2447.97 3510.45C2446.73 3505.07 2446.81 3463.59 2448.08 3458C2449.86 3450.15 2457.15 3447.33 2462.08 3452.58ZM1405.51 3455.93C1393.62 3457.87 1384.16 3462.02 1378.81 3467.66C1370.38 3476.53 1367.68 3499.2 1373.09 3515.67C1376.51 3526.06 1381.93 3530.57 1411.08 3547.31C1426.75 3556.3 1426.51 3555.97 1426.51 3568.18C1426.51 3579.51 1425.64 3581 1418.97 3581C1412.74 3581 1411.68 3578.81 1411.19 3564.95L1410.76 3553H1391.27H1371.77L1372.27 3565.75C1373.07 3586.43 1376.62 3593.39 1389.95 3600.4C1398.97 3605.13 1407.74 3606.96 1421.51 3606.96C1449.16 3606.97 1463.51 3597.44 1467.06 3576.71C1468.39 3569 1467.83 3550.36 1466.12 3544.88C1463.18 3535.47 1454.93 3528.37 1435.45 3518.46C1427.18 3514.25 1419.73 3509.66 1416.65 3506.87L1411.54 3502.24L1411.17 3494.17C1410.83 3486.62 1410.96 3485.95 1413.36 3483.55C1416.43 3480.49 1420.28 3480.26 1423.01 3483C1424.74 3484.73 1425.01 3486.33 1425.01 3495V3505H1445.14H1465.28L1464.8 3492.68C1464.37 3481.5 1464.07 3479.87 1461.47 3475.11C1456.71 3466.35 1448.67 3460.78 1436.11 3457.52C1428.74 3455.61 1412.59 3454.77 1405.51 3455.93ZM2656.01 3506.5V3543H2645.9C2636.69 3543 2635.85 3542.84 2636.47 3541.25C2636.84 3540.28 2637.78 3536.8 2638.55 3533.5C2639.99 3527.31 2653.62 3474.86 2654.6 3471.75C2654.9 3470.78 2655.34 3470 2655.58 3470C2655.81 3470 2656.01 3486.42 2656.01 3506.5ZM1552.46 3569.26C1552.19 3569.98 1552.08 3578.2 1552.23 3587.53L1552.51 3604.5H1569.01H1585.51V3586.5V3568.5L1569.24 3568.22C1556.54 3568.01 1552.86 3568.23 1552.46 3569.26Z" fill="#1B135C"/>
</svg>
